<?xml version="1.0" encoding="utf-8"?>
<!-- Generator: Adobe Illustrator 19.1.0, SVG Export Plug-In . SVG Version: 6.00 Build 0)  -->
<svg version="1.1" baseProfile="basic" id="Layer_1"
	 xmlns="http://www.w3.org/2000/svg" xmlns:xlink="http://www.w3.org/1999/xlink" x="0px" y="0px" viewBox="0 0 24 29"
	 xml:space="preserve">
<g>
	<g>
		<path d="M12,28.8c-0.1,0-0.1,0-0.2,0c-0.6-0.2-11.8-6.1-11.8-11.9V5.7c0-0.4,0.3-0.8,0.8-0.8c2.7,0,9.7-3.1,10.6-4.4
			c0.1-0.2,0.4-0.3,0.6-0.3l0,0c0.2,0,0.5,0.1,0.6,0.3c0.9,1.3,7.6,4.4,10.6,4.4c0.4,0,0.8,0.3,0.8,0.8v11.8
			c0,4.8-11.2,11.2-11.8,11.3C12.1,28.8,12.1,28.8,12,28.8z M1.6,6.4v10.5c0,4.3,8.6,9.5,10.4,10.4c1.6-0.8,10.5-6.3,10.5-9.8V6.4
			C19.3,6,14,3.7,12,2C10,3.7,4.5,6,1.6,6.4z"/>
	</g>
	<g>
		<path d="M10.1,21.7C10.1,21.7,10.1,21.7,10.1,21.7c-0.2,0-0.4-0.1-0.5-0.2l-5.2-5.4c-0.3-0.3-0.3-0.8,0-1.1l2.4-2.4
			c0.1-0.1,0.3-0.2,0.5-0.2l0,0c0.2,0,0.4,0.1,0.5,0.2l2.4,2.4l7.1-7.1c0.3-0.3,0.8-0.3,1.1,0l2.4,2.4c0.1,0.1,0.2,0.3,0.2,0.5
			c0,0.2-0.1,0.4-0.2,0.5l-10.1,10C10.5,21.7,10.3,21.7,10.1,21.7z M6,15.6l4.2,4.3l9-9l-1.3-1.3l-7.1,7.1c-0.3,0.3-0.8,0.3-1.1,0
			l-2.4-2.4L6,15.6z"/>
	</g>
</g>
</svg>
