<?xml version="1.0" encoding="utf-8"?>
<!-- Generator: Adobe Illustrator 19.1.0, SVG Export Plug-In . SVG Version: 6.00 Build 0)  -->
<svg version="1.1" baseProfile="basic" id="Layer_2"
	 xmlns="http://www.w3.org/2000/svg" xmlns:xlink="http://www.w3.org/1999/xlink" x="0px" y="0px" viewBox="0 0 30 30"
	 xml:space="preserve">
<g>
	<g>
		<path d="M27.5,24.3h-3.7v-1.5h3.7c0.5,0,1-0.4,1-1V10.5c0-0.5-0.4-1-1-1H2.5c-0.5,0-1,0.4-1,1v11.3c0,0.5,0.4,1,1,1h3.7v1.5H2.5
			c-1.4,0-2.5-1.1-2.5-2.5V10.5c0-1.4,1.1-2.5,2.5-2.5h25.1c1.4,0,2.5,1.1,2.5,2.5v11.3C30,23.2,28.9,24.3,27.5,24.3z"/>
	</g>
	<g>
		<path d="M20.4,24.2H9.6c-0.4,0-0.7-0.3-0.7-0.7s0.3-0.7,0.7-0.7h10.8c0.4,0,0.7,0.3,0.7,0.7S20.8,24.2,20.4,24.2z"/>
	</g>
	<g>
		<path d="M20.4,21.5H9.6c-0.4,0-0.7-0.3-0.7-0.7c0-0.4,0.3-0.7,0.7-0.7h10.8c0.4,0,0.7,0.3,0.7,0.7C21.2,21.1,20.8,21.5,20.4,21.5z
			"/>
	</g>
	<g>
		<path d="M25.6,13.4c-0.2,0-0.4-0.1-0.5-0.2c-0.1-0.1-0.2-0.3-0.2-0.5c0-0.2,0.1-0.4,0.2-0.5c0.3-0.3,0.8-0.3,1.1,0
			c0.1,0.1,0.2,0.3,0.2,0.5c0,0.2-0.1,0.4-0.2,0.5C26,13.3,25.8,13.4,25.6,13.4z"/>
	</g>
	<g>
		<path d="M24.6,29.9H5.4V16.6h19.2V29.9z M6.9,28.5h16.2V18H6.9V28.5z"/>
	</g>
	<g>
		<path d="M24.6,9.6H5.4V0.1h19.2V9.6z M6.9,8.1h16.2V1.5H6.9V8.1z"/>
	</g>
	<g>
		<path d="M20.4,26.9H9.6c-0.4,0-0.7-0.3-0.7-0.7c0-0.4,0.3-0.7,0.7-0.7h10.8c0.4,0,0.7,0.3,0.7,0.7C21.2,26.6,20.8,26.9,20.4,26.9z
			"/>
	</g>
</g>
</svg>
