<?xml version="1.0" encoding="utf-8"?>
<!-- Generator: Adobe Illustrator 19.1.0, SVG Export Plug-In . SVG Version: 6.00 Build 0)  -->
<svg version="1.1" baseProfile="basic" id="Layer_1"
	 xmlns="http://www.w3.org/2000/svg" xmlns:xlink="http://www.w3.org/1999/xlink" x="0px" y="0px" viewBox="0 0 53 32"
	 xml:space="preserve">
<g>
	<g> <path d="M17,23c-0.9,0-1.9-0.3-2.7-1.1c-1.4-1.4-7.4-8.4-7.7-8.7c-0.3-0.3-0.2-0.8,0.1-1.1c0.4-0.4,10.2-8.8,11.6-10 C19.7,1,23.2-1.2,27,2.6c0.1,0.1,0.2,0.3,0.2,0.5v12c0,0.2-0.1,0.4-0.3,0.6c-0.1,0.1-6.2,5.4-7,6.2C19.3,22.5,18.2,23,17,23z M8.3,12.8c1.5,1.7,6,6.9,7.1,8.1c1.1,1.1,2.8,0.6,3.5,0c0.8-0.8,5.6-5,6.8-6.1V3.4c-2.5-2.4-4.9-1.4-6.4-0.1 C18.1,4.3,10.4,10.9,8.3,12.8z" /> </g>
        <g> <path d="M29,10.2h-2.5c-0.4,0-0.8-0.3-0.8-0.8s0.3-0.8,0.8-0.8H29c0.2,0,0.4-0.2,0.4-0.4V4.3c0-0.2-0.2-0.4-0.4-0.4h-2.5 c-0.4,0-0.8-0.3-0.8-0.8s0.3-0.8,0.8-0.8H29c1.1,0,1.9,0.9,1.9,1.9v4.1C30.9,9.4,30.1,10.2,29,10.2z" /> </g>
        <g> <path d="M49,14.2c-0.1,0-0.3,0-0.4-0.1c0,0-3.3-2.1-6.2-3.6c-2.7-1.4-3.4-1.4-5.6-1.4h-6.7c-0.4,0-0.8-0.3-0.8-0.8 c0-0.4,0.3-0.7,0.8-0.7h6.7c2.3,0,3.2,0,6.3,1.6c2.1,1.1,4.5,2.6,5.6,3.3l1.2-2c-1.4-0.9-5-2.9-7.2-4.1C40.3,5,39.2,5,37.3,5 l-7.2,0c-0.4,0-0.8-0.3-0.8-0.8s0.3-0.8,0.8-0.8l7.2,0c2,0,3.3,0,6.2,1.5c2.9,1.5,7.9,4.5,7.9,4.5c0.4,0.2,0.5,0.7,0.3,1l-2,3.3 c-0.1,0.2-0.3,0.3-0.5,0.3C49.1,14.2,49.1,14.2,49,14.2z" /> </g>
        <g> <path d="M10.6,17.4c-0.2,0-0.4-0.1-0.6-0.3c-0.3-0.3-0.2-0.8,0.1-1.1l9.7-8.2c0.3-0.3,0.8-0.2,1,0.1l6.1,6.7 c0.3,0.3,0.3,0.8,0,1.1c-0.3,0.3-0.8,0.3-1.1,0l-5.7-6.2l-9.1,7.7C11,17.3,10.8,17.4,10.6,17.4z" /> </g>
        <g> <path d="M17.1,19.9c-0.1,0-0.2,0-0.3-0.1c-0.4-0.2-0.5-0.6-0.4-1c0-0.1,1.1-2.3,1.5-3.3c0.5-1,0.6-1.3,1.4-2c1-1,2.3-1.1,2.8-1.1 h2.5c0.4,0,0.8,0.3,0.8,0.8s-0.3,0.8-0.8,0.8h-2.5c-0.3,0-1.1,0.1-1.8,0.7c-0.6,0.6-0.7,0.7-1.1,1.7c-0.5,0.9-1.5,3.2-1.5,3.2 C17.6,19.8,17.4,19.9,17.1,19.9z" /> </g>
        <g> <path d="M0.9,31.5c-0.4,0-0.7-0.3-0.8-0.7c0-0.2-0.1-5.1,1.1-8.9c1.5-4.9,6-8.7,6.2-8.8c0.3-0.3,0.8-0.2,1.1,0.1 c0.3,0.3,0.2,0.8-0.1,1.1c0,0-4.3,3.6-5.7,8.1c-1.1,3.5-1,8.4-1,8.5C1.6,31.2,1.3,31.5,0.9,31.5C0.9,31.5,0.9,31.5,0.9,31.5z" /> </g>
        <g> <path d="M5.2,31.5c-0.4,0-0.7-0.3-0.7-0.6c0-0.1-0.5-3.6,0.7-7.4c1.5-4.9,4.9-7.4,5-7.5c0.3-0.2,0.8-0.2,1,0.2 c0.2,0.3,0.2,0.8-0.2,1c0,0-3.1,2.2-4.5,6.7C5.5,27.4,6,30.6,6,30.7c0.1,0.4-0.2,0.8-0.6,0.9C5.3,31.5,5.3,31.5,5.2,31.5z" /> </g>
        <g> <path d="M50.3,23.6c-1.4,0-2.5-1.1-2.5-2.5c0-1.1,1.5-3.7,1.9-4.5c0.3-0.5,1-0.5,1.3,0c0.4,0.8,1.9,3.4,1.9,4.5 C52.9,22.5,51.7,23.6,50.3,23.6z M50.3,18.6c-0.6,1.1-1,2.2-1,2.5c0,0.6,0.5,1,1,1c0.6,0,1-0.5,1-1C51.4,20.8,50.9,19.7,50.3,18.6 z" /> </g>
</g>
</svg>
