<?xml version="1.0" encoding="utf-8"?>
<!-- Generator: Adobe Illustrator 19.1.0, SVG Export Plug-In . SVG Version: 6.00 Build 0)  -->
<svg version="1.1" baseProfile="basic" id="Layer_1"
	 xmlns="http://www.w3.org/2000/svg" xmlns:xlink="http://www.w3.org/1999/xlink" x="0px" y="0px" viewBox="0 0 21 30"
	 xml:space="preserve">
<g>
	<g> <path d="M2.5,29.9c-0.4,0-0.8-0.3-0.8-0.8V3.7c0-0.4,0.3-0.8,0.8-0.8s0.8,0.3,0.8,0.8v25.5C3.3,29.6,2.9,29.9,2.5,29.9z" /> </g>
        <g> <path d="M18.6,29.9c-0.4,0-0.8-0.3-0.8-0.8V3.7c0-0.4,0.3-0.8,0.8-0.8s0.8,0.3,0.8,0.8v25.5C19.4,29.6,19,29.9,18.6,29.9z" /> </g>
        <g> <path d="M19.9,4.4H1.1c-0.4,0-0.8-0.3-0.8-0.8s0.3-0.8,0.8-0.8h18.7c0.4,0,0.8,0.3,0.8,0.8S20.3,4.4,19.9,4.4z" /> </g>
        <g> <path d="M19.9,12.3H1.1c-0.4,0-0.8-0.3-0.8-0.8s0.3-0.8,0.8-0.8h18.7c0.4,0,0.8,0.3,0.8,0.8S20.3,12.3,19.9,12.3z" /> </g>
        <g> <path d="M19.9,22.1H1.1c-0.4,0-0.8-0.3-0.8-0.8s0.3-0.8,0.8-0.8h18.7c0.4,0,0.8,0.3,0.8,0.8S20.3,22.1,19.9,22.1z" /> </g>
        <g> <path d="M19.9,29.9H1.1c-0.4,0-0.8-0.3-0.8-0.8s0.3-0.8,0.8-0.8h18.7c0.4,0,0.8,0.3,0.8,0.8S20.3,29.9,19.9,29.9z" /> </g>
        <g> <path d="M17.7,4.4c-0.4,0-0.8-0.3-0.8-0.8V1.6h-2.1v2.1c0,0.4-0.3,0.8-0.8,0.8s-0.8-0.3-0.8-0.8V0.8c0-0.4,0.3-0.8,0.8-0.8h3.6 c0.4,0,0.8,0.3,0.8,0.8v2.8C18.4,4.1,18.1,4.4,17.7,4.4z" /> </g>
        <g> <path d="M16.2,10.2c-0.4,0-0.8-0.3-0.8-0.8V6c0-0.4,0.3-0.8,0.8-0.8S17,5.6,17,6v3.5C17,9.9,16.6,10.2,16.2,10.2z" /> </g>
        <g> <path d="M16.2,27.7c-0.4,0-0.8-0.3-0.8-0.8v-3.5c0-0.4,0.3-0.8,0.8-0.8s0.8,0.3,0.8,0.8V27C17,27.4,16.6,27.7,16.2,27.7z" /> </g>
        <g> <path d="M16.2,19.9c-0.4,0-0.8-0.3-0.8-0.8v-5.4c0-0.4,0.3-0.8,0.8-0.8s0.8,0.3,0.8,0.8v5.4C17,19.6,16.6,19.9,16.2,19.9z" /> </g>
        <g> <path d="M10.5,20c-1.5,0-2.7-1.2-2.7-2.7c0-1.2,1.6-3.5,2.1-4.2c0.3-0.4,0.9-0.4,1.2,0c0.5,0.7,2.1,3,2.1,4.2 C13.2,18.8,12,20,10.5,20z M10.5,14.9c-0.6,1-1.2,2-1.2,2.4c0,0.6,0.5,1.2,1.2,1.2s1.2-0.5,1.2-1.2C11.7,17,11.1,15.9,10.5,14.9z" /> </g>
</g>
</svg>
