<?xml version="1.0" encoding="utf-8"?>
<!-- Generator: Adobe Illustrator 19.1.0, SVG Export Plug-In . SVG Version: 6.00 Build 0)  -->
<svg version="1.1" baseProfile="basic" id="Isolation_Mode"
	 xmlns="http://www.w3.org/2000/svg" xmlns:xlink="http://www.w3.org/1999/xlink" x="0px" y="0px" viewBox="0 0 47 19"
	 xml:space="preserve">
<g>
	<path d="M43,4.6c-0.6-0.6-1.4-0.7-2.2-0.5l-14,5.3c-0.2,0.1-0.5,0-0.7-0.1l-2.7-2.2c-0.4-0.3-0.8-0.5-1.3-0.5h-3.7V5.1h2.2
		c1.2,0,2.1-1,2.1-2.1V2.4c0-1.2-1-2.1-2.1-2.1h-5.8c-1.2,0-2.1,1-2.1,2.1v0.5c0,1.2,1,2.1,2.1,2.1h2.3v1.6H11
		c-0.3,0-0.5,0.1-0.7,0.1V5.7c0-0.9-0.6-1.7-1.4-1.9L3.9,2.2c-1-0.3-2.1,0.2-2.5,1.1L0.2,6.3C0,6.8,0,7.4,0.2,7.9S0.8,8.8,1.3,9
		l7.7,3v4.8c0,1.1,0.9,2,2,2h17.2c0.5,0,1.1-0.2,1.4-0.6L41.4,6.4c0.1-0.1,0.3-0.2,0.5-0.2h2.7L43,4.6z M14.1,2.9V2.4
		c0-0.5,0.4-0.8,0.8-0.8h5.8c0.5,0,0.8,0.4,0.8,0.8v0.5c0,0.5-0.4,0.8-0.8,0.8h-5.8C14.5,3.8,14.1,3.4,14.1,2.9z M1.8,7.8
		C1.6,7.7,1.5,7.5,1.4,7.4C1.3,7.2,1.3,7,1.4,6.8l1.3-2.9C2.7,3.6,3,3.4,3.3,3.4c0.1,0,0.1,0,0.2,0L8.5,5C8.8,5.1,9,5.3,9,5.7v3v1.8
		L1.8,7.8z M28.8,17.2c-0.1,0.1-0.3,0.2-0.5,0.2H11c-0.4,0-0.7-0.3-0.7-0.7v-4.3V8.7C10.3,8.3,10.6,8,11,8h11.2
		c0.2,0,0.3,0.1,0.5,0.2l2.7,2.2c0.6,0.5,1.3,0.6,2,0.3l12.9-4.9L28.8,17.2z"/>
	<path d="M45.6,12.3L45,10.8l-0.6,1.5C44,13.1,43,15.9,43,16.7c0,1.1,0.9,2,2,2s2-0.9,2-2C47,15.9,45.9,13.1,45.6,12.3z M45,17.4
		c-0.4,0-0.7-0.3-0.7-0.7c0-0.3,0.3-1.2,0.7-2.3c0.4,1.1,0.7,2,0.7,2.3C45.7,17.1,45.4,17.4,45,17.4z"/>
</g>
</svg>
