<?xml version="1.0" encoding="utf-8"?>
<!-- Generator: Adobe Illustrator 19.1.0, SVG Export Plug-In . SVG Version: 6.00 Build 0)  -->
<svg version="1.1" baseProfile="basic" id="Isolation_Mode"
	 xmlns="http://www.w3.org/2000/svg" xmlns:xlink="http://www.w3.org/1999/xlink" x="0px" y="0px" viewBox="0 0 31 28"
	 xml:space="preserve">
<g>
	<path d="M23,19.9c-0.2,0-0.4-0.1-0.6-0.3l-0.7-1.3c-0.6,0.1-1.2,0.1-1.8,0l-0.7,1.3c-0.1,0.3-0.5,0.4-0.8,0.3l-3-1.2
		c-0.3-0.1-0.5-0.5-0.4-0.8l0.5-1.4c-0.5-0.4-0.9-0.8-1.3-1.3L13,15.7c-0.3,0.1-0.6-0.1-0.8-0.4l-1.2-3c-0.1-0.3,0-0.6,0.3-0.8
		l1.3-0.7c-0.1-0.6-0.1-1.2,0-1.8l-1.3-0.7C11,8.3,10.9,7.9,11,7.6l1.2-3c0.1-0.3,0.5-0.5,0.8-0.4l1.4,0.5c0.4-0.5,0.8-0.9,1.3-1.3
		l-0.5-1.4c-0.1-0.3,0.1-0.6,0.4-0.8l3-1.2c0.3-0.1,0.6,0,0.8,0.3l0.7,1.3c0.6-0.1,1.2-0.1,1.8,0l0.7-1.3c0.1-0.3,0.5-0.4,0.8-0.3
		l3,1.2c0.3,0.1,0.5,0.5,0.4,0.8l-0.5,1.4c0.5,0.4,0.9,0.8,1.3,1.3l1.4-0.5c0.3-0.1,0.6,0.1,0.8,0.4l1.2,3c0.1,0.3,0,0.6-0.3,0.8
		l-1.3,0.7c0.1,0.6,0.1,1.2,0,1.8l1.3,0.7c0.3,0.1,0.4,0.5,0.3,0.8l-1.2,3c-0.1,0.3-0.5,0.5-0.8,0.4l-1.4-0.5
		c-0.4,0.5-0.8,0.9-1.3,1.3l0.5,1.4c0.1,0.3-0.1,0.6-0.4,0.8l-3,1.2C23.1,19.9,23.1,19.9,23,19.9z M16.5,17.7l1.9,0.8l0.6-1.2
		c0.1-0.2,0.4-0.4,0.7-0.3c0.8,0.1,1.5,0.1,2.3,0c0.3-0.1,0.5,0.1,0.7,0.3l0.6,1.2l1.9-0.8l-0.4-1.3c-0.1-0.3,0-0.5,0.2-0.7
		c0.6-0.5,1.2-1,1.6-1.6c0.2-0.2,0.4-0.3,0.7-0.2l1.3,0.4l0.8-1.9l-1.2-0.6c-0.2-0.1-0.4-0.4-0.3-0.7c0.1-0.8,0.1-1.5,0-2.3
		c0-0.3,0.1-0.5,0.3-0.7l1.2-0.6l-0.8-1.9l-1.3,0.4c-0.3,0.1-0.5,0-0.7-0.2c-0.5-0.6-1-1.2-1.6-1.6c-0.2-0.2-0.3-0.4-0.2-0.7
		l0.4-1.3l-1.9-0.8l-0.6,1.2C22.6,2.9,22.3,3,22,3c-0.8-0.1-1.5-0.1-2.3,0C19.4,3,19.2,2.9,19,2.7l-0.6-1.2l-1.9,0.8L17,3.5
		c0.1,0.3,0,0.5-0.2,0.7c-0.6,0.5-1.2,1-1.6,1.6c-0.2,0.2-0.4,0.3-0.7,0.2l-1.3-0.4l-0.8,1.9l1.2,0.6c0.2,0.1,0.4,0.4,0.3,0.7
		c-0.1,0.8-0.1,1.6,0,2.3c0,0.3-0.1,0.5-0.3,0.7l-1.2,0.6l0.8,1.9l1.3-0.4c0.3-0.1,0.5,0,0.7,0.2c0.5,0.6,1,1.2,1.6,1.6
		c0.2,0.2,0.3,0.4,0.2,0.7L16.5,17.7z"/>
	<path d="M20.9,13.7c-0.5,0-1-0.1-1.4-0.3c-0.9-0.4-1.6-1.1-2-2c-0.4-0.9-0.4-1.9,0-2.8c0.4-0.9,1.1-1.6,2-2c1.9-0.8,4.1,0.1,4.8,2
		c0.4,0.9,0.4,1.9,0,2.8c-0.4,0.9-1.1,1.6-2,2C21.8,13.6,21.3,13.7,20.9,13.7z M20.9,7.5c-0.3,0-0.6,0.1-0.9,0.2
		C19.3,8,18.8,8.4,18.6,9c-0.3,0.6-0.3,1.3,0,1.9c0.3,0.6,0.7,1.1,1.3,1.3c0.6,0.3,1.3,0.3,1.9,0s1.1-0.7,1.3-1.3
		c0.3-0.6,0.3-1.3,0-1.9C22.7,8.1,21.8,7.5,20.9,7.5z"/>
	<path d="M5.8,12.4c-0.5-0.3-0.9-0.8-1.2-1.3c-0.6-1.4,0.1-3,1.5-3.6c1.4-0.6,3,0.1,3.6,1.5L8.6,9.5c-0.3-0.8-1.2-1.1-2-0.8
		c-0.8,0.3-1.1,1.2-0.8,2c0.1,0.3,0.3,0.6,0.6,0.7L5.8,12.4z"/>
	<path d="M6.1,27.9c-0.1,0-0.2,0-0.2,0l-2-0.8c-0.2-0.1-0.3-0.2-0.3-0.3c-0.1-0.2-0.1-0.3,0-0.5L4,25.1c-0.2-0.2-0.4-0.4-0.6-0.6
		L2.3,25c-0.2,0.1-0.3,0.1-0.5,0s-0.3-0.2-0.3-0.3l-0.8-2c-0.1-0.2-0.1-0.3,0-0.5C0.7,22,0.8,21.9,1,21.8l1.1-0.5c0-0.3,0-0.5,0-0.8
		L1,20.1c-0.3-0.1-0.5-0.5-0.3-0.8l0.8-2c0.1-0.3,0.5-0.5,0.8-0.3l1.1,0.5C3.6,17.2,3.8,17,4,16.8l-0.5-1.1c-0.1-0.3,0-0.7,0.3-0.8
		l2-0.8c0.3-0.1,0.7,0,0.8,0.3l0.5,1.1c0.3,0,0.5,0,0.8,0l0.5-1.1C8.6,14,8.9,13.9,9.3,14l2,0.8c0.2,0.1,0.3,0.2,0.3,0.3
		c0.1,0.2,0.1,0.3,0,0.5l-0.5,1.1c0.2,0.2,0.4,0.4,0.6,0.6l1.1-0.5c0.2-0.1,0.3-0.1,0.5,0c0.2,0.1,0.3,0.2,0.3,0.3l0.8,2
		c0.1,0.2,0.1,0.3,0,0.5c-0.1,0.2-0.2,0.3-0.3,0.3L13,20.6c0,0.3,0,0.5,0,0.8l1.1,0.5c0.3,0.1,0.5,0.5,0.3,0.8l-0.8,2
		c-0.1,0.3-0.5,0.5-0.8,0.3l-1.1-0.5c-0.2,0.2-0.4,0.4-0.6,0.6l0.5,1.1c0.1,0.3,0,0.7-0.3,0.8l-2,0.8c-0.3,0.1-0.7,0-0.8-0.3L8,26.4
		c-0.3,0-0.5,0-0.8,0l-0.5,1.1C6.6,27.8,6.4,27.9,6.1,27.9z M8.4,25.1c0.2,0,0.5,0.1,0.6,0.4l0.4,1l0.9-0.4l-0.4-1
		c-0.1-0.3,0-0.6,0.2-0.7c0.4-0.3,0.7-0.6,1-1c0.2-0.2,0.5-0.3,0.7-0.2l1,0.4l0.4-0.9l-1-0.4c-0.3-0.1-0.4-0.4-0.4-0.7
		c0.1-0.5,0.1-0.9,0-1.4c0-0.3,0.1-0.6,0.4-0.7l1-0.4l-0.4-0.9l-1,0.4c-0.3,0.1-0.6,0-0.7-0.2c-0.3-0.4-0.6-0.7-1-1
		c-0.2-0.2-0.3-0.5-0.2-0.7l0.4-1l-0.9-0.4l-0.4,1c-0.1,0.3-0.4,0.4-0.7,0.4c-0.5-0.1-0.9-0.1-1.4,0c-0.3,0.1-0.6-0.1-0.7-0.4
		l-0.4-1l-0.9,0.4l0.4,1c0.1,0.3,0,0.6-0.2,0.7c-0.4,0.3-0.7,0.6-1,1c-0.2,0.2-0.5,0.3-0.7,0.2l-1-0.4L2,19.2l1,0.4
		c0.3,0.1,0.4,0.4,0.4,0.7c-0.1,0.5-0.1,0.9,0,1.4c0,0.3-0.1,0.6-0.4,0.7l-1,0.4l0.4,0.9l1-0.4c0.3-0.1,0.6,0,0.7,0.2
		c0.3,0.4,0.6,0.7,1,1c0.2,0.2,0.3,0.5,0.2,0.7l-0.4,1l0.9,0.4l0.4-1c0.1-0.3,0.4-0.4,0.7-0.4c0.5,0.1,0.9,0.1,1.4,0
		C8.3,25.1,8.3,25.1,8.4,25.1z"/>
	<path d="M2,14.4c-0.1,0-0.1,0-0.2,0c-0.2-0.1-0.3-0.2-0.4-0.3l-0.9-1.9c-0.1-0.3,0-0.7,0.3-0.8l1.1-0.5c0-0.3-0.1-0.5,0-0.8
		L0.6,9.6C0.3,9.4,0.1,9.1,0.2,8.8l0.7-2c0.1-0.3,0.5-0.5,0.8-0.4l1.1,0.4C3,6.5,3.2,6.3,3.4,6.1L2.9,5.1c-0.1-0.1-0.1-0.3,0-0.5
		C2.9,4.4,3,4.3,3.2,4.2l1.9-0.9c0.3-0.1,0.7,0,0.8,0.3l0.5,1.1c0.3,0,0.5,0,0.8,0l0.4-1.1c0.1-0.2,0.2-0.3,0.3-0.4
		c0.1-0.1,0.3-0.1,0.5,0l2,0.7c0.3,0.1,0.5,0.5,0.4,0.8l-0.5,1.6L9.1,5.8l0.3-1L8.6,4.5l-0.3,1C8.2,5.7,7.9,5.9,7.6,5.9
		c-0.5,0-0.9,0-1.4,0.1C6,6,5.7,5.9,5.5,5.6L5.1,4.7L4.3,5.1L4.7,6c0.1,0.3,0.1,0.6-0.2,0.8c-0.4,0.3-0.7,0.6-0.9,1
		C3.5,8,3.2,8.2,2.9,8.1l-1-0.3L1.6,8.6l1,0.3C2.9,9,3.1,9.3,3,9.6c0,0.5,0,0.9,0.1,1.4c0.1,0.3-0.1,0.6-0.3,0.7l-0.9,0.5l0.4,0.8
		l0.9-0.5l0.5,1.1l-1.5,0.7C2.1,14.4,2,14.4,2,14.4z"/>
	<path d="M7.6,23.7c-0.4,0-0.7-0.1-1.1-0.2C5.8,23.2,5.3,22.7,5,22c-0.3-0.7-0.3-1.4,0-2.1c0,0,0,0,0,0c0.6-1.4,2.2-2.1,3.6-1.5
		c0.7,0.3,1.2,0.8,1.5,1.5c0.3,0.7,0.3,1.4,0,2.1C9.7,23.1,8.6,23.7,7.6,23.7z M6.2,20.4c-0.2,0.4-0.2,0.8,0,1.2
		c0.2,0.4,0.4,0.7,0.8,0.8c0.8,0.3,1.7,0,2-0.8c0.3-0.8,0-1.7-0.8-2C7.4,19.2,6.5,19.6,6.2,20.4L6.2,20.4z"/>
</g>
</svg>
