<?xml version="1.0" encoding="utf-8"?>
<!-- Generator: Adobe Illustrator 19.1.0, SVG Export Plug-In . SVG Version: 6.00 Build 0)  -->
<svg version="1.1" baseProfile="basic" id="Layer_1"
	 xmlns="http://www.w3.org/2000/svg" xmlns:xlink="http://www.w3.org/1999/xlink" x="0px" y="0px" viewBox="0 0 74 40"
	 xml:space="preserve">
<g>
	<g>
		<path d="M73.5,27.9c-0.1-0.1-0.3-0.2-0.5-0.2h-5.3V7.8c0-0.4-0.3-0.7-0.7-0.7h-3.9V5.7h1.1c0.4,0,0.7-0.3,0.7-0.7V1.4
			c0-0.4-0.3-0.7-0.7-0.7h-7.8c-0.4,0-0.7,0.3-0.7,0.7v5.6h-2.6c-0.4,0-0.7,0.3-0.7,0.7v12.7h-7.6V14c0-0.4-0.3-0.7-0.7-0.7H26.1
			c-0.4,0-0.7,0.3-0.7,0.7v7.2v6.5l-1.2,0c0,0-1.1-0.1-3.6-2c-0.3-0.2-0.6-0.5-0.8-0.7c-1.3-1.1-2.1-1.6-5.3-1.6H0.9
			c-0.3,0-0.5,0.1-0.6,0.4c-0.1,0.2-0.1,0.5,0,0.7c0.2,0.3,5,8.4,9,12c3.9,3.5,5.6,3.6,9.9,3.6c0.1,0,0.2,0,0.3,0h46.6
			c0.2,0,0.3-0.1,0.4-0.2c0.3-0.2,6.8-5.7,7.2-11.4C73.7,28.2,73.7,28,73.5,27.9z M63.1,27.6v-1.8c0-0.4-0.3-0.7-0.7-0.7h-8.6v-7.6
			h12.5v10.2H63.1z M57.1,2.1h6.4v2.1h-1.1c-0.4,0-0.7,0.3-0.7,0.7v2.1h-4.6V2.1z M66.3,8.5v7.6H53.8V8.5H66.3z M52.4,25.8v1.8
			l-7.6,0v-5.8h7.6V25.8z M35.8,27.6v-5.8h7.6v5.8L35.8,27.6z M43.3,20.5h-7.6v-5.8h7.6V20.5z M34.3,14.7v5.8h-7.6v-5.8H34.3z
			 M26.8,21.9h7.6v5.8l-7.6,0V21.9z M65.8,38.6H19.4c-4.5,0-5.7,0-9.3-3.2c-3-2.7-6.6-8.2-8-10.5h12.3c2.9,0,3.3,0.4,4.4,1.3
			c0.2,0.2,0.5,0.4,0.8,0.7c2.9,2.3,4.3,2.3,4.5,2.3h28.9c0.4,0,0.7-0.3,0.7-0.7v-1.8h7.9v1.8c0,0.4,0.3,0.7,0.7,0.7h9.9
			C71.5,33.5,66.8,37.7,65.8,38.6z"/>
		<path d="M20.1,30.5c0,0-1.4-0.5-2.7-1.6c-1.2-1-2.1-2-2.1-2c-0.3-0.3-0.7-0.3-1-0.1c-0.3,0.3-0.3,0.7-0.1,1c0,0,1,1.1,2.3,2.2
			c1.5,1.2,3,1.8,3,1.8c0.1,0,0.2,0,0.3,0c0.3,0,0.5-0.2,0.7-0.4C20.6,31,20.4,30.6,20.1,30.5z"/>
		<path d="M61.7,14.9h2.4c0.4,0,0.7-0.3,0.7-0.7v-3.7c0-0.4-0.3-0.7-0.7-0.7h-2.4c-0.4,0-0.7,0.3-0.7,0.7v3.7
			C60.9,14.6,61.3,14.9,61.7,14.9z M62.4,11.2h1v2.3h-1V11.2z"/>
		<path d="M56,14.9h2.4c0.4,0,0.7-0.3,0.7-0.7v-3.7c0-0.4-0.3-0.7-0.7-0.7H56c-0.4,0-0.7,0.3-0.7,0.7v3.7
			C55.3,14.6,55.6,14.9,56,14.9z M56.7,11.2h1v2.3h-1V11.2z"/>
	</g>
	<g>
		<path d="M29.1,31.8c-0.3,0-0.5,0.2-0.5,0.5v7.2c0,0.3,0.2,0.5,0.5,0.5c0.1,0,0.3-0.1,0.4-0.1c0.1-0.1,0.1-0.2,0.1-0.4v-7.2
			C29.6,32.1,29.3,31.8,29.1,31.8z"/>
		<path d="M32.1,31.8c-0.3,0-0.5,0.2-0.5,0.5l0,7.2c0,0.3,0.2,0.5,0.5,0.5c0.1,0,0.3-0.1,0.4-0.1c0.1-0.1,0.1-0.2,0.1-0.4l0-7.2
			C32.6,32.1,32.4,31.8,32.1,31.8z"/>
	</g>
	<g>
		<path d="M37.9,31.8c-0.3,0-0.5,0.2-0.5,0.5v7.2c0,0.3,0.2,0.5,0.5,0.5c0.1,0,0.3-0.1,0.4-0.1c0.1-0.1,0.1-0.2,0.1-0.4v-7.2
			C38.4,32.1,38.2,31.8,37.9,31.8z"/>
		<path d="M41,31.8c-0.3,0-0.5,0.2-0.5,0.5l0,7.2c0,0.3,0.2,0.5,0.5,0.5c0.1,0,0.3-0.1,0.4-0.1c0.1-0.1,0.1-0.2,0.1-0.4l0-7.2
			C41.5,32.1,41.2,31.8,41,31.8z"/>
	</g>
	<g>
		<path d="M29.1,31.8c-0.3,0-0.5,0.2-0.5,0.5v7.2c0,0.3,0.2,0.5,0.5,0.5c0.1,0,0.3-0.1,0.4-0.1c0.1-0.1,0.1-0.2,0.1-0.4v-7.2
			C29.6,32.1,29.3,31.8,29.1,31.8z"/>
		<path d="M32.1,31.8c-0.3,0-0.5,0.2-0.5,0.5l0,7.2c0,0.3,0.2,0.5,0.5,0.5c0.1,0,0.3-0.1,0.4-0.1c0.1-0.1,0.1-0.2,0.1-0.4l0-7.2
			C32.6,32.1,32.4,31.8,32.1,31.8z"/>
	</g>
	<g>
		<path d="M37.9,31.8c-0.3,0-0.5,0.2-0.5,0.5v7.2c0,0.3,0.2,0.5,0.5,0.5c0.1,0,0.3-0.1,0.4-0.1c0.1-0.1,0.1-0.2,0.1-0.4v-7.2
			C38.4,32.1,38.2,31.8,37.9,31.8z"/>
		<path d="M41,31.8c-0.3,0-0.5,0.2-0.5,0.5l0,7.2c0,0.3,0.2,0.5,0.5,0.5c0.1,0,0.3-0.1,0.4-0.1c0.1-0.1,0.1-0.2,0.1-0.4l0-7.2
			C41.5,32.1,41.2,31.8,41,31.8z"/>
	</g>
	<g>
		<path d="M46.8,31.8c-0.3,0-0.5,0.2-0.5,0.5v7.2c0,0.3,0.2,0.5,0.5,0.5c0.1,0,0.3-0.1,0.4-0.1c0.1-0.1,0.1-0.2,0.1-0.4v-7.2
			C47.3,32.1,47.1,31.8,46.8,31.8z"/>
		<path d="M49.9,31.8c-0.3,0-0.5,0.2-0.5,0.5l0,7.2c0,0.3,0.2,0.5,0.5,0.5c0.1,0,0.3-0.1,0.4-0.1c0.1-0.1,0.1-0.2,0.1-0.4l0-7.2
			C50.4,32.1,50.2,31.8,49.9,31.8z"/>
	</g>
</g>
</svg>
