<?xml version="1.0" encoding="utf-8"?>
<!-- Generator: Adobe Illustrator 19.1.0, SVG Export Plug-In . SVG Version: 6.00 Build 0)  -->
<svg version="1.1" baseProfile="basic" id="Layer_2"
	 xmlns="http://www.w3.org/2000/svg" xmlns:xlink="http://www.w3.org/1999/xlink" x="0px" y="0px" viewBox="0 0 45 22"
	 xml:space="preserve">
<style type="text/css">
	.st0{fill-rule:evenodd;clip-rule:evenodd;}
</style>
<g>
	<path class="st0" d="M3.1,14.6c-0.9,0-1.6-0.2-2.1-0.7c-0.5-0.5-0.6-1.2-0.5-1.9c0.1-1.5,0.9-3.3,1.9-5.2C2.6,6.4,3,6.3,3.2,6.6
		c1.2,1.7,2.2,3.5,2.4,5.1c0.1,0.8,0,1.5-0.4,2C4.7,14.3,4,14.6,3.1,14.6z M3.1,12.8c0.5,0,0.8-0.2,0.9-0.3c0.1-0.2,0.2-0.5,0.2-1
		c-0.1-0.8-0.6-1.8-1.2-2.8l0,0c-0.6,1.1-1,2.2-1,2.9c0,0.4,0.1,0.7,0.2,0.9C2.3,12.7,2.6,12.8,3.1,12.8z M11.2,21.7
		c-0.4-0.2-0.5-0.7-0.4-1.1l4.2-9L3.4,3.7C2.9,3.3,2.9,2.5,3.6,2.2l3-1.2C6.8,1,7.1,1,7.3,1.1L18,6.6l14.2-0.1l11.2-4.3
		C43.9,2,44.5,2.4,44.5,3l-0.7,8.1c0,0.3-0.2,0.6-0.6,0.7l-6.8,2.3l3,6.3c0.3,0.6-0.1,1.2-0.8,1.2l-27.1,0.1
		C11.4,21.8,11.3,21.8,11.2,21.7z M12.9,20.1L37.4,20L31.7,8.2L18.5,8.3L12.9,20.1z M15.9,18.7c-0.3-0.2-0.5-0.6-0.3-1l3.6-8.3
		C19.4,9,19.9,8.8,20.3,9c0.4,0.2,0.6,0.7,0.4,1.1l-3.6,8.3C17,18.8,16.5,19,16,18.8C16,18.8,15.9,18.8,15.9,18.7z M15.8,10.1l1-2.2
		l-10-5.1L5.7,3.2L15.8,10.1z M18.5,5.2c-0.2-0.1-0.4-0.4-0.4-0.7c0-0.5,0.4-0.9,0.8-0.8l4,0l-0.1-0.2c-0.2-0.3-0.3-0.7-0.3-1.1
		c0-1.2,1-2.2,2.2-2.3c1.2,0,2.2,1,2.2,2.2C27,2.7,27,3,26.9,3.3l-0.2,0.4l4.1,0c0.5,0,0.8,0.4,0.8,0.8c0,0.5-0.4,0.8-0.8,0.9
		L19,5.4C18.8,5.4,18.6,5.3,18.5,5.2z M35.7,12.7l6.1-2.1c0.2-0.1,0.3-0.2,0.3-0.4l0.4-5.1c0-0.4-0.3-0.7-0.7-0.5l-8.5,3.3
		L35.7,12.7z M24.5,2.9C24.6,3,24.7,3,24.8,3c0.3,0,0.6-0.2,0.6-0.6c0-0.3-0.2-0.6-0.6-0.6c-0.3,0-0.6,0.3-0.6,0.6
		C24.2,2.6,24.3,2.8,24.5,2.9z"/>
</g>
</svg>
