<?xml version="1.0" encoding="utf-8"?>
<!-- Generator: Adobe Illustrator 19.1.0, SVG Export Plug-In . SVG Version: 6.00 Build 0)  -->
<svg version="1.1" baseProfile="basic" id="Layer_1"
	 xmlns="http://www.w3.org/2000/svg" xmlns:xlink="http://www.w3.org/1999/xlink" x="0px" y="0px" viewBox="0 0 33 30"
	 xml:space="preserve">
<g>
	<g>
		<path d="M19.5,29.7h-6.1l-1.4-1.4h-12V7.9c0-0.4,0.3-0.8,0.8-0.8s0.8,0.3,0.8,0.8v18.9h11.1l1.4,1.4h4.8l1.4-1.4h11.1V7.9
			c0-0.4,0.3-0.8,0.8-0.8s0.8,0.3,0.8,0.8v20.4h-12L19.5,29.7z"/>
	</g>
	<g>
		<path d="M17.3,27h-2.5l-0.2-0.3c-0.3-0.4-1-1.1-2.1-1.1H2.8V5.1h3.5c0.4,0,0.8,0.3,0.8,0.8S6.7,6.6,6.3,6.6h-2v17.5h8.1
			c1.5,0,2.5,0.8,3.1,1.4h0.3V9.9c0-0.8-0.2-3.3-3.3-3.3h-2c-0.4,0-0.8-0.3-0.8-0.8s0.3-0.8,0.8-0.8h2c2.9,0,4.8,1.9,4.8,4.8V27z"/>
	</g>
	<g>
		<path d="M18.3,27h-2.6v-17c0-2.3,1.3-4.1,3.3-4.6c0.4-0.1,0.8,0.1,0.9,0.5c0.1,0.4-0.1,0.8-0.5,0.9c-2,0.6-2.2,2.4-2.2,3.2v15.5
			h0.2c0.6-0.9,1.7-1.4,3.1-1.4h8.1V6.6h-1.3c-0.4,0-0.8-0.3-0.8-0.8s0.3-0.8,0.8-0.8h2.8v20.5h-9.6c-1.4,0-1.8,0.5-2,1L18.3,27z"/>
	</g>
	<g>
		<path d="M11.1,14l-2.8-1.9L5.6,14V3.7h5.6V14z M7.1,5.2v6l1.3-0.9l1.3,0.9v-6H7.1z"/>
	</g>
	<g>
		<path d="M23.3,20.8c-1.5,0-2.8-1.3-2.8-2.8s1.3-2.8,2.8-2.8c1.5,0,2.8,1.3,2.8,2.8S24.8,20.8,23.3,20.8z M23.3,16.8
			c-0.7,0-1.3,0.6-1.3,1.3s0.6,1.3,1.3,1.3c0.7,0,1.3-0.6,1.3-1.3S24,16.8,23.3,16.8z"/>
	</g>
	<g>
		<path d="M23.3,14.1c-1.1,0-1.8-1-2.1-1.9c-0.2-0.7-0.7-6.8-0.7-9c0-1.6,1.2-2.9,2.8-2.9s2.8,1.3,2.8,2.9c0,2.1-0.5,8.2-0.7,9
			C25.1,13,24.4,14.1,23.3,14.1z M23.3,1.8c-0.7,0-1.3,0.6-1.3,1.4c0,2.2,0.5,8,0.7,8.6c0.1,0.4,0.4,0.8,0.6,0.8s0.5-0.4,0.6-0.8
			c0.1-0.5,0.7-6.4,0.7-8.6C24.6,2.4,24,1.8,23.3,1.8z"/>
	</g>
</g>
</svg>
