<?xml version="1.0" encoding="utf-8"?>
<!-- Generator: Adobe Illustrator 19.1.0, SVG Export Plug-In . SVG Version: 6.00 Build 0)  -->
<svg version="1.1" baseProfile="basic" id="Layer_1"
	 xmlns="http://www.w3.org/2000/svg" xmlns:xlink="http://www.w3.org/1999/xlink" x="0px" y="0px" viewBox="0 0 40 33"
	 xml:space="preserve">
<g>
	<g> <g> <path d="M15.2,29.3H1.1c-0.4,0-0.8-0.3-0.8-0.8V1c0-0.4,0.3-0.8,0.8-0.8h23.3c0.4,0,0.8,0.3,0.8,0.8v8c0,0.4-0.3,0.8-0.8,0.8 S23.7,9.4,23.7,9V1.8H1.8v26h13.4c0.4,0,0.8,0.3,0.8,0.8S15.7,29.3,15.2,29.3z" /> </g> </g>
        <g> <line x1="5.2" y1="7.4" x2="17.2" y2="7.4" /> <path d="M17.2,8.2h-12c-0.4,0-0.8-0.3-0.8-0.8s0.3-0.8,0.8-0.8h12C17.6,6.7,18,7,18,7.4S17.6,8.2,17.2,8.2z" /> </g>
        <g> <line x1="5.2" y1="12.1" x2="17.2" y2="12.1" /> <path d="M17.2,12.8h-12c-0.4,0-0.8-0.3-0.8-0.8s0.3-0.8,0.8-0.8h12c0.4,0,0.8,0.3,0.8,0.8S17.6,12.8,17.2,12.8z" /> </g>
        <g> <line x1="5.2" y1="16.7" x2="17.2" y2="16.7" /> <path d="M17.2,17.5h-12c-0.4,0-0.8-0.3-0.8-0.8S4.8,16,5.2,16h12c0.4,0,0.8,0.3,0.8,0.8S17.6,17.5,17.2,17.5z" /> </g>
        <g> <g> <g> <path d="M27.1,21.5c-1.9-0.1-3.7-1.7-4.5-3.8c-0.6,0-1.2-0.5-1.3-1.1L21,14.6c-0.1-0.4,0-0.7,0.2-1c0.1-0.1,0.2-0.3,0.4-0.4 c0-0.2,0-0.3,0-0.5V12c0-2.1,1.7-3.9,3.8-3.9C26,7.3,27.7,7.5,29.1,8c0.3,0.1,0.6,0.3,0.9,0.4c1.4,0.6,2.3,2,2.3,3.6v0.7 c0,0.2,0,0.3,0,0.5c0.1,0.1,0.3,0.2,0.4,0.4c0.2,0.3,0.3,0.7,0.2,1l-0.3,1.9c-0.1,0.4-0.3,0.7-0.5,0.9c-0.2,0.1-0.4,0.2-0.6,0.2 C30.8,19.8,28.9,21.4,27.1,21.5z M23.1,16.2c0.3,0,0.6,0.2,0.7,0.5c0.5,1.9,2,3.3,3.3,3.4c1.3-0.1,2.7-1.5,3.3-3.3 c0.1-0.3,0.4-0.6,0.8-0.5l0.1,0l0.3-1.8l-0.1,0c-0.2,0-0.4-0.2-0.5-0.3s-0.1-0.4-0.1-0.6c0.1-0.2,0.1-0.5,0.1-0.7V12 c0-1-0.6-1.9-1.5-2.3c-0.3-0.2-0.5-0.3-0.8-0.4c-1-0.4-1.7-0.4-2-0.3c0,0.1-0.1,0.2-0.2,0.3c-0.1,0.1-0.3,0.2-0.5,0.2h-0.4 c-1.4,0-2.5,1.1-2.5,2.5v0.7c0,0.3,0,0.5,0.1,0.7c0.1,0.2,0,0.4-0.1,0.6c-0.1,0.2-0.3,0.3-0.5,0.3l-0.1,0l0.3,1.8l0.2,0 C23,16.2,23,16.2,23.1,16.2z" /> </g> </g> <g> <g> <path d="M35.2,31.6h-3.4c-0.4,0-0.7-0.3-0.7-0.7s0.3-0.7,0.7-0.7h3.4c0.4,0,0.7,0.3,0.7,0.7S35.6,31.6,35.2,31.6z" /> </g> </g> <g> <g> <path d="M28.9,32.7c-0.3,0-0.6-0.2-0.7-0.5l-1.1-4.6l-1.2,4.6c-0.1,0.3-0.4,0.5-0.7,0.5c-0.3,0-0.6-0.2-0.7-0.6l-1.9-8.7 c-1.6,0.7-4.1,1.2-5,1.4c-0.6,0.1-1.7,0.6-1.7,1.4v0.5l0.6,5.1c0,0.4-0.2,0.8-0.6,0.8c-0.4,0-0.8-0.2-0.8-0.6l-0.6-5.2l0-0.6 c0-1.6,1.4-2.5,2.8-2.8c2.1-0.4,4.5-1.1,5.3-1.6c0.1-0.1,0.2-0.1,0.3-0.1c0.4-0.1,0.8,0.2,0.9,0.6l1.4,6.6l0.4-1.7l-1-4.1 c-0.1-0.2,0-0.4,0.1-0.6c0.1-0.2,0.3-0.3,0.6-0.3h3.4c0.2,0,0.4,0.1,0.6,0.3c0.1,0.2,0.2,0.4,0.1,0.6l-1,4.1l0.4,1.6l1.4-6.6 c0.1-0.4,0.4-0.6,0.8-0.6c0.1,0,0.3,0.1,0.4,0.1c0.8,0.5,3.2,1.2,5.3,1.6c1.4,0.3,2.8,1.3,2.8,2.8v0.5l-0.6,5.3 c0,0.4-0.4,0.7-0.8,0.6c-0.4,0-0.7-0.4-0.6-0.8l0.6-5.2l0-0.5c0-0.9-1.1-1.3-1.7-1.4c-0.9-0.2-3.4-0.7-5-1.4l-1.9,8.7 C29.6,32.5,29.3,32.7,28.9,32.7C28.9,32.7,28.9,32.7,28.9,32.7z M26.3,23.7l0.8,3.1l0.8-3.1H26.3z" /> </g> </g> </g>
</g>
</svg>
