<?xml version="1.0" encoding="utf-8"?>
<!-- Generator: Adobe Illustrator 19.1.0, SVG Export Plug-In . SVG Version: 6.00 Build 0)  -->
<svg version="1.1" baseProfile="basic" id="Layer_2"
	 xmlns="http://www.w3.org/2000/svg" xmlns:xlink="http://www.w3.org/1999/xlink" x="0px" y="0px" viewBox="0 0 31 29"
	 xml:space="preserve">
<g>
	<path d="M14.8,18.7h-14c-0.4,0-0.8,0.3-0.8,0.8s0.3,0.8,0.8,0.8h14c4.3,0,5.8,2.3,5.8,4.5c0,1.5-1,2.5-2.3,2.5
		c-0.9,0-1.8-0.8-1.8-1.6c0-0.5,0.4-0.9,0.9-0.9c0.4,0,0.8-0.3,0.8-0.8s-0.3-0.8-0.8-0.8c-1.3,0-2.4,1.1-2.4,2.4
		c0,1.6,1.6,3.1,3.3,3.1c2.2,0,3.8-1.7,3.8-4C22.1,21.9,20.2,18.7,14.8,18.7z"/>
	<path d="M26.9,5.7c-1.7,0-3.1,1.4-3.1,3.1c0,1.3,1.1,2.4,2.4,2.4c0.4,0,0.8-0.3,0.8-0.8s-0.3-0.8-0.8-0.8c-0.5,0-0.9-0.4-0.9-0.9
		c0-0.9,0.7-1.6,1.6-1.6c1.4,0,2.5,1.1,2.5,2.5c0,1.9-1.3,4.1-5,4.1H9.7c-0.4,0-0.8,0.3-0.8,0.8s0.3,0.8,0.8,0.8h14.7
		c4.5,0,6.5-2.9,6.5-5.6C30.9,7.5,29.1,5.7,26.9,5.7z"/>
	<path d="M4.2,9.9h10.6c2.2,0,4-0.6,5.2-1.9c1-1,1.5-2.4,1.5-3.9c-0.1-2.2-2-4-4.2-3.9c-1.7,0.1-3,1.5-3,3.2c0,0.6,0.3,1.2,0.8,1.7
		c0.5,0.4,1.1,0.7,1.7,0.6c0.4,0,0.7-0.4,0.7-0.8s-0.4-0.7-0.8-0.7c-0.3,0-0.5-0.1-0.7-0.2c-0.2-0.2-0.3-0.4-0.3-0.6
		c0-0.9,0.7-1.6,1.5-1.6c1.4-0.1,2.6,1.1,2.6,2.5c0,1.1-0.3,2.1-1,2.8c-0.9,0.9-2.3,1.4-4.1,1.4H4.2c-0.4,0-0.8,0.3-0.8,0.8
		S3.8,9.9,4.2,9.9z"/>
</g>
</svg>
