<?xml version="1.0" encoding="utf-8"?>
<!-- Generator: Adobe Illustrator 19.1.0, SVG Export Plug-In . SVG Version: 6.00 Build 0)  -->
<svg version="1.1" baseProfile="basic" id="Layer_1"
	 xmlns="http://www.w3.org/2000/svg" xmlns:xlink="http://www.w3.org/1999/xlink" x="0px" y="0px" viewBox="0 0 35 26"
	 xml:space="preserve">
<g>
	<g> <path d="M14,20.1c-0.1,0-0.2,0-0.3-0.1c-0.3-0.1-0.4-0.4-0.4-0.7V6.6c0-0.3,0.2-0.5,0.4-0.7c0.2-0.1,0.5-0.1,0.8,0l8.5,5.7 c0.2,0.1,0.3,0.3,0.3,0.6s-0.1,0.5-0.3,0.6L14.4,20C14.3,20.1,14.1,20.1,14,20.1z M14.7,8v9.8l6.5-5.4L14.7,8z" /> </g>
        <g> <path d="M32.8,25.8H2.2c-1,0-1.8-0.8-1.8-1.8V1.9c0-1,0.8-1.8,1.8-1.8h30.6c1,0,1.8,0.8,1.8,1.8v22.1C34.6,25,33.8,25.8,32.8,25.8 z M2.2,1.7C2,1.7,1.9,1.8,1.9,1.9v22.1c0,0.1,0.1,0.3,0.3,0.3h30.6c0.1,0,0.3-0.1,0.3-0.3V1.9c0-0.1-0.1-0.3-0.3-0.3H2.2z" /> </g>
        <g> <path d="M6.9,7.4H5.4C5,7.4,4.7,7,4.7,6.6V5.2c0-0.4,0.3-0.8,0.8-0.8h1.4c0.4,0,0.8,0.3,0.8,0.8v1.4C7.6,7,7.3,7.4,6.9,7.4z" /> </g>
        <g> <path d="M6.9,14.5H5.4c-0.4,0-0.8-0.3-0.8-0.8v-1.4c0-0.4,0.3-0.8,0.8-0.8h1.4c0.4,0,0.8,0.3,0.8,0.8v1.4 C7.6,14.1,7.3,14.5,6.9,14.5z" /> </g>
        <g> <path d="M6.9,21.6H5.4c-0.4,0-0.8-0.3-0.8-0.8v-1.4c0-0.4,0.3-0.8,0.8-0.8h1.4c0.4,0,0.8,0.3,0.8,0.8v1.4 C7.6,21.2,7.3,21.6,6.9,21.6z" /> </g>
        <g> <path d="M29.6,7.4h-1.4c-0.4,0-0.8-0.3-0.8-0.8V5.2c0-0.4,0.3-0.8,0.8-0.8h1.4c0.4,0,0.8,0.3,0.8,0.8v1.4C30.3,7,30,7.4,29.6,7.4z " /> </g>
        <g> <path d="M29.6,14.5h-1.4c-0.4,0-0.8-0.3-0.8-0.8v-1.4c0-0.4,0.3-0.8,0.8-0.8h1.4c0.4,0,0.8,0.3,0.8,0.8v1.4 C30.3,14.1,30,14.5,29.6,14.5z" /> </g>
        <g> <path d="M29.6,21.6h-1.4c-0.4,0-0.8-0.3-0.8-0.8v-1.4c0-0.4,0.3-0.8,0.8-0.8h1.4c0.4,0,0.8,0.3,0.8,0.8v1.4 C30.3,21.2,30,21.6,29.6,21.6z" /> </g>
</g>
</svg>
