<?xml version="1.0" encoding="utf-8"?>
<!-- Generator: Adobe Illustrator 19.1.0, SVG Export Plug-In . SVG Version: 6.00 Build 0)  -->
<svg version="1.1" baseProfile="basic" id="Layer_1"
	 xmlns="http://www.w3.org/2000/svg" xmlns:xlink="http://www.w3.org/1999/xlink" x="0px" y="0px" viewBox="0 0 105 36"
	 xml:space="preserve">
<g>
	<path d="M0.1,16.5v12.4c0,0.2,0,0.3,0.1,0.4L2,31.6c0.1,0.2,0.4,0.3,0.6,0.3h2.3c0.8,2.4,3,4.1,5.7,4.1c3.3,0,6-2.7,6-6
		c0-1.2-0.3-2.3-0.9-3.2h0.9c0.3,0,0.5-0.2,0.7-0.4l2.7-5.2C20,21.1,20,21,20,20.9l0-11.2C20,8.2,18.8,7,17.3,7H4.4
		C4.1,7,3.9,7.2,3.7,7.5l-3.6,8.8C0.2,16.2,0.1,16.5,0.1,16.5z M11.4,15.8H2l3-7.3h6.5V15.8z M18.5,15.8h-5.7V8.5h4.5
		c0.7,0,1.2,0.6,1.2,1.2V15.8z M16.1,25.3h-1.8c-0.4-0.4-0.9-0.7-1.5-0.9v-7.2h5.7v3.4L16.1,25.3z M6,30c0-2.5,2-4.5,4.5-4.5
		c2.5,0,4.5,2,4.5,4.5c0,2.5-2,4.5-4.5,4.5C8,34.5,6,32.5,6,30z M1.6,26.8h3.8c-0.6,0.9-0.9,2-0.9,3.2c0,0.1,0,0.3,0,0.4H2.9
		l-1.3-1.8V26.8z M1.6,17.2h9.8v6.8c-0.3,0-0.6-0.1-0.8-0.1c-1.4,0-2.8,0.5-3.8,1.4H1.6V17.2z"/>
	<path d="M7.6,30c0,1.6,1.3,3,3,3c1.6,0,3-1.3,3-3c0-1.6-1.3-3-3-3C8.9,27,7.6,28.4,7.6,30z M9.1,30c0-0.8,0.7-1.5,1.5-1.5
		c0.8,0,1.5,0.7,1.5,1.5c0,0.8-0.7,1.5-1.5,1.5C9.7,31.5,9.1,30.8,9.1,30z"/>
	<path d="M31.7,30c0,3.3,2.7,6,6,6c3.3,0,6-2.7,6-6c0-3.3-2.7-6-6-6C34.4,24,31.7,26.7,31.7,30z M33.1,30c0-2.5,2-4.5,4.5-4.5
		c2.5,0,4.5,2,4.5,4.5c0,2.5-2,4.5-4.5,4.5C35.2,34.5,33.1,32.5,33.1,30z"/>
	<path d="M34.7,30c0,1.6,1.3,3,3,3c1.6,0,3-1.3,3-3c0-1.6-1.3-3-3-3C36,27,34.7,28.4,34.7,30z M36.2,30c0-0.8,0.7-1.5,1.5-1.5
		c0.8,0,1.5,0.7,1.5,1.5c0,0.8-0.7,1.5-1.5,1.5C36.8,31.5,36.2,30.8,36.2,30z"/>
	<path d="M85.5,30c0,3.3,2.7,6,6,6c3.3,0,6-2.7,6-6c0-3.3-2.7-6-6-6C88.2,24,85.5,26.7,85.5,30z M87,30c0-2.5,2-4.5,4.5-4.5
		c2.5,0,4.5,2,4.5,4.5c0,2.5-2,4.5-4.5,4.5C89.1,34.5,87,32.5,87,30z"/>
	<path d="M88.6,30c0,1.6,1.3,3,3,3c1.6,0,3-1.3,3-3c0-1.6-1.3-3-3-3C89.9,27,88.6,28.4,88.6,30z M90.1,30c0-0.8,0.7-1.5,1.5-1.5
		c0.8,0,1.5,0.7,1.5,1.5c0,0.8-0.7,1.5-1.5,1.5C90.7,31.5,90.1,30.8,90.1,30z"/>
	<path d="M71.6,30c0,3.3,2.7,6,6,6c3.3,0,6-2.7,6-6c0-3.3-2.7-6-6-6C74.3,24,71.6,26.7,71.6,30z M73.1,30c0-2.5,2-4.5,4.5-4.5
		c2.5,0,4.5,2,4.5,4.5c0,2.5-2,4.5-4.5,4.5C75.1,34.5,73.1,32.5,73.1,30z"/>
	<path d="M74.6,30c0,1.6,1.3,3,3,3c1.6,0,3-1.3,3-3c0-1.6-1.3-3-3-3C76,27,74.6,28.4,74.6,30z M76.1,30c0-0.8,0.7-1.5,1.5-1.5
		c0.8,0,1.5,0.7,1.5,1.5c0,0.8-0.7,1.5-1.5,1.5C76.8,31.5,76.1,30.8,76.1,30z"/>
	<path d="M57.7,30c0,3.3,2.7,6,6,6c3.3,0,6-2.7,6-6c0-3.3-2.7-6-6-6C60.4,24,57.7,26.7,57.7,30z M59.2,30c0-2.5,2-4.5,4.5-4.5
		c2.5,0,4.5,2,4.5,4.5c0,2.5-2,4.5-4.5,4.5C61.2,34.5,59.2,32.5,59.2,30z"/>
	<path d="M60.7,30c0,1.6,1.3,3,3,3c1.6,0,3-1.3,3-3c0-1.6-1.3-3-3-3C62.1,27,60.7,28.4,60.7,30z M62.2,30c0-0.8,0.7-1.5,1.5-1.5
		c0.8,0,1.5,0.7,1.5,1.5c0,0.8-0.7,1.5-1.5,1.5C62.9,31.5,62.2,30.8,62.2,30z"/>
	<path d="M9.4,20.1h-2c-0.4,0-0.7-0.3-0.7-0.7c0-0.4,0.3-0.7,0.7-0.7h2c0.4,0,0.7,0.3,0.7,0.7C10.1,19.7,9.8,20.1,9.4,20.1z"/>
	<path d="M18.4,28.7v2.5c0,1.5,1.2,2.7,2.7,2.7h6c1.5,0,2.7-1.2,2.7-2.7v-2.5c0-1.5-1.2-2.7-2.7-2.7h-6C19.6,26,18.4,27.3,18.4,28.7
		z M19.9,28.7c0-0.7,0.6-1.2,1.2-1.2h6c0.7,0,1.2,0.6,1.2,1.2v2.5c0,0.7-0.6,1.2-1.2,1.2h-6c-0.7,0-1.2-0.6-1.2-1.2V28.7z"/>
	<path d="M104.9,21.4V1.7c0-0.4-0.3-0.7-0.7-0.7H22.6c-0.4,0-0.7,0.3-0.7,0.7v19.7c0,0.4,0.3,0.7,0.7,0.7h81.5
		C104.5,22.1,104.9,21.8,104.9,21.4z M103.4,20.6H84.5v-2.7h18.9V20.6z M83,20.6H64.1v-2.7H83V20.6z M62.6,20.6H43.7v-2.7h18.9V20.6
		z M23.4,17.9h18.9v2.7H23.4V17.9z M103.4,2.4v14.1h-80V2.4H103.4z"/>
	<path d="M100.2,24c0.4,0,0.7,0.3,0.7,0.7v5.2h1.2c0.4,0,0.7,0.3,0.7,0.7c0,0.4-0.3,0.7-0.7,0.7h-1.9c-0.4,0-0.7-0.3-0.7-0.7v-6
		C99.5,24.3,99.8,24,100.2,24z"/>
	<path d="M48,27.3v1.3h-1.6c-0.4,0-0.7,0.3-0.7,0.7c0,0.4,0.3,0.7,0.7,0.7H55c0.4,0,0.7-0.3,0.7-0.7c0-0.4-0.3-0.7-0.7-0.7h-1.6
		v-1.3H55c0.4,0,0.7-0.3,0.7-0.7c0-0.4-0.3-0.7-0.7-0.7h-1.6v-1.1c0-0.4-0.3-0.7-0.7-0.7c-0.4,0-0.7,0.3-0.7,0.7v1.1h-2.4v-1.1
		c0-0.4-0.3-0.7-0.7-0.7c-0.4,0-0.7,0.3-0.7,0.7v1.1h-1.6c-0.4,0-0.7,0.3-0.7,0.7c0,0.4,0.3,0.7,0.7,0.7H48z M49.5,27.3h2.4v1.3
		h-2.4V27.3z"/>
</g>
</svg>
