<?xml version="1.0" encoding="utf-8"?>
<!-- Generator: Adobe Illustrator 19.1.0, SVG Export Plug-In . SVG Version: 6.00 Build 0)  -->
<svg version="1.1" baseProfile="basic" id="Layer_2"
	 xmlns="http://www.w3.org/2000/svg" xmlns:xlink="http://www.w3.org/1999/xlink" x="0px" y="0px" viewBox="0 0 22 31"
	 xml:space="preserve">
<g>
	<path d="M14.7,18.4c-0.1-0.3-0.3-0.6-0.5-0.9l-2.4-4.7c-0.1-0.2-0.3-0.4-0.5-0.4c-0.2,0-0.5,0-0.6,0.2l-0.1,0.1
		c-0.1,0.1-0.1,0.1-0.2,0.2l-2.5,4.4c-0.1,0.1-0.1,0.1-0.2,0.2c-0.2,0.3-0.3,0.5-0.4,0.8c-0.1,0.3-0.2,0.7-0.2,1
		c-0.2,2.2,1.4,4,3.6,4.2c0.1,0,0.2,0,0.3,0c0.9,0,1.8-0.3,2.5-0.9c0.8-0.7,1.3-1.6,1.4-2.7C14.9,19.5,14.9,19,14.7,18.4
		C14.7,18.5,14.7,18.4,14.7,18.4z M12.5,21.5c-0.5,0.4-1.1,0.6-1.8,0.6c-1.3-0.1-2.3-1.3-2.2-2.6c0-0.2,0.1-0.4,0.1-0.6
		c0.1-0.2,0.2-0.4,0.3-0.5c0,0,0.1-0.1,0.1-0.2c0,0,0-0.1,0.1-0.1l2-3.4l1.8,3.5c0,0,0,0.1,0.1,0.1c0.1,0.2,0.2,0.4,0.3,0.6
		c0,0,0,0,0,0c0.1,0.3,0.1,0.6,0.1,0.9C13.3,20.5,13,21.1,12.5,21.5z"/>
	<path d="M20.3,26.6V9.3c0.8-0.3,1.3-1.1,1.3-2c0-1.2-1-2.1-2.1-2.1h-0.8V3.3c0-0.4-0.3-0.8-0.8-0.8h-0.1l-0.4-1.7
		c-0.1-0.3-0.4-0.6-0.7-0.6h-1.5c-0.3,0-0.6,0.2-0.7,0.6l-0.4,1.7H14c-0.4,0-0.8,0.3-0.8,0.8v1.9H2.5c-1.2,0-2.1,1-2.1,2.1
		c0,0.9,0.5,1.6,1.3,2v17.3c-0.8,0.3-1.3,1.1-1.3,2c0,1.2,1,2.1,2.1,2.1h17c1.2,0,2.1-1,2.1-2.1C21.6,27.7,21.1,26.9,20.3,26.6z
		 M3.2,9.5h15.6v17H3.2V9.5z M15.8,1.8h0.4l0.2,0.8h-0.7L15.8,1.8z M14.8,4.1h2.4v1.1h-2.4V4.1z M2.5,6.7H14h3.9h1.5
		c0.4,0,0.6,0.3,0.6,0.6c0,0.4-0.3,0.6-0.6,0.6h-17C2.2,8,1.9,7.7,1.9,7.3C1.9,7,2.2,6.7,2.5,6.7z M19.5,29.2h-17
		c-0.4,0-0.6-0.3-0.6-0.6c0-0.4,0.3-0.6,0.6-0.6h17c0.4,0,0.6,0.3,0.6,0.6C20.1,28.9,19.8,29.2,19.5,29.2z"/>
</g>
</svg>
