<?xml version="1.0" encoding="utf-8"?>
<!-- Generator: Adobe Illustrator 19.1.0, SVG Export Plug-In . SVG Version: 6.00 Build 0)  -->
<svg version="1.1" baseProfile="basic" id="Layer_1"
	 xmlns="http://www.w3.org/2000/svg" xmlns:xlink="http://www.w3.org/1999/xlink" x="0px" y="0px" viewBox="0 0 50 30"
	 xml:space="preserve">
<g>
	<path d="M1.3,19.9c0.8,1.8,2.6,3,4.6,3h0c0.7,0,1.4-0.1,2-0.4l2.7-1.2c0.4-0.2,0.5-0.6,0.4-1c-0.2-0.4-0.6-0.5-1-0.4l-0.7,0.3
		l-2-4.6c0.4-0.3,0.7-0.7,0.9-1.2c0-0.1,0.1-0.2,0.1-0.3l5.6-5.6l1.7,1.7l0.2,2.5c0,0.2,0.1,0.3,0.2,0.5l5.8,5.8h-1.5
		c-3,0-5.5,2.4-5.5,5.5s2.4,5.5,5.5,5.5h18.8c3,0,5.5-2.4,5.5-5.5c0-1.6-0.7-3-1.7-4l3.1,0c0.2,0,0.4-0.1,0.5-0.2l2.3-2.3
		c0.1-0.1,0.2-0.3,0.2-0.5v-6c0-0.2-0.1-0.4-0.2-0.5l-2.3-2.3c-0.1-0.1-0.3-0.2-0.5-0.2h-9.5V4.1c0-1.8-1.4-3.2-3.2-3.2h-8.3
		c-0.4,0-0.7,0.3-0.7,0.7c0,0.4,0.3,0.7,0.7,0.7h0.3l-1.9,7.3l-6.8-6.8c0,0,0,0,0,0C16,2.3,15.3,2,14.5,2c-0.8,0-1.5,0.3-2.1,0.9
		c0,0,0,0,0,0l0,0l0,0l0,0l-7.7,7.7c-0.1,0-0.3,0.1-0.4,0.1c-1.3,0.6-2,2-1.7,3.4C1,15.4,0.4,17.8,1.3,19.9z M5.5,14.8
		c-0.6,0-1.1-0.3-1.3-0.9c-0.3-0.7,0-1.6,0.7-1.9c0.2-0.1,0.4-0.1,0.6-0.1c0.6,0,1.1,0.3,1.3,0.9c0.2,0.4,0.2,0.8,0,1.1
		c-0.1,0.4-0.4,0.7-0.8,0.8C5.9,14.8,5.7,14.8,5.5,14.8z M26.9,2.4h4.3v6h-1.6c-0.2,0-0.4,0.1-0.6,0.3l-1.6,1.8h-2.7L26.9,2.4z
		 M35.1,8.4h-2.4v-6h0.7c1,0,1.7,0.8,1.7,1.7V8.4z M45.8,19.1l-21.2,0v-2h8c0.4,0,0.7-0.3,0.7-0.7c0-0.4-0.3-0.7-0.7-0.7h-8V12h3.3
		c0.2,0,0.4-0.1,0.6-0.3l1.6-1.8h15.9l1.9,1.9v5.4L45.8,19.1z M20.4,20.6h18.8c2.2,0,4,1.8,4,4s-1.8,4-4,4H20.4c-2.2,0-4-1.8-4-4
		S18.2,20.6,20.4,20.6z M13.4,6c-0.3-0.3-0.4-0.6-0.4-1c0-0.4,0.2-0.8,0.4-1c0.3-0.3,0.6-0.4,1-0.4c0.4,0,0.8,0.1,1,0.4c0,0,0,0,0,0
		l7.5,7.5v6.7l-5.7-5.7l-0.2-2.5c0-0.2-0.1-0.3-0.2-0.5L13.4,6z M12.9,7.5l-4.7,4.7c0,0,0,0,0,0c-0.3-0.7-0.9-1.2-1.5-1.5l5-5
		C11.8,6.2,12,6.6,12.4,7L12.9,7.5z M3.3,15.4c0.5,0.6,1.3,0.9,2.1,0.9c0.2,0,0.3,0,0.5,0l2,4.6l-0.7,0.3c-0.5,0.2-0.9,0.3-1.4,0.3
		c-1.4,0-2.7-0.8-3.3-2.1C2,17.9,2.4,16.4,3.3,15.4z"/>
	<path d="M44.2,11.8c0.4,0,0.7,0.3,0.7,0.7v1.8c0,0.4-0.3,0.7-0.7,0.7c-0.4,0-0.7-0.3-0.7-0.7v-1.8C43.4,12.2,43.8,11.8,44.2,11.8z"
		/>
	<path d="M41.2,11.8c0.4,0,0.7,0.3,0.7,0.7v1.8c0,0.4-0.3,0.7-0.7,0.7c-0.4,0-0.7-0.3-0.7-0.7v-1.8C40.5,12.2,40.8,11.8,41.2,11.8z"
		/>
	<path d="M38.2,11.8c0.4,0,0.7,0.3,0.7,0.7v1.8c0,0.4-0.3,0.7-0.7,0.7c-0.4,0-0.7-0.3-0.7-0.7v-1.8C37.5,12.2,37.8,11.8,38.2,11.8z"
		/>
	<path d="M39,26.7H20.6c-1.2,0-2.2-1-2.2-2.2s1-2.2,2.2-2.2H39c1.2,0,2.2,1,2.2,2.2S40.2,26.7,39,26.7z M20.6,23.9
		c-0.4,0-0.7,0.3-0.7,0.7s0.3,0.7,0.7,0.7H39c0.4,0,0.7-0.3,0.7-0.7s-0.3-0.7-0.7-0.7H20.6z"/>
</g>
</svg>
