<?xml version="1.0" encoding="utf-8"?>
<!-- Generator: Adobe Illustrator 19.1.0, SVG Export Plug-In . SVG Version: 6.00 Build 0)  -->
<svg version="1.1" baseProfile="basic" id="Layer_1"
	 xmlns="http://www.w3.org/2000/svg" xmlns:xlink="http://www.w3.org/1999/xlink" x="0px" y="0px" viewBox="0 0 38 36"
	 xml:space="preserve">
<g>
	<g> <g> <path d="M3.8,21c-2,0-3.7-1.7-3.7-3.7s1.7-3.7,3.7-3.7s3.7,1.7,3.7,3.7S5.8,21,3.8,21z M3.8,15.1c-1.2,0-2.2,1-2.2,2.2 s1,2.2,2.2,2.2s2.2-1,2.2-2.2S5,15.1,3.8,15.1z" /> </g> <g> <path d="M34.2,21c-2,0-3.7-1.7-3.7-3.7s1.7-3.7,3.7-3.7s3.7,1.7,3.7,3.7S36.2,21,34.2,21z M34.2,15.1c-1.2,0-2.2,1-2.2,2.2 s1,2.2,2.2,2.2s2.2-1,2.2-2.2S35.4,15.1,34.2,15.1z" /> </g> <g> <path d="M26.6,7.7c-2,0-3.7-1.7-3.7-3.7s1.7-3.7,3.7-3.7S30.3,2,30.3,4S28.6,7.7,26.6,7.7z M26.6,1.8c-1.2,0-2.2,1-2.2,2.2 s1,2.2,2.2,2.2s2.2-1,2.2-2.2S27.8,1.8,26.6,1.8z" /> </g> <g> <path d="M11.4,7.7C9.4,7.7,7.7,6,7.7,4s1.7-3.7,3.7-3.7S15.1,2,15.1,4S13.5,7.7,11.4,7.7z M11.4,1.8c-1.2,0-2.2,1-2.2,2.2 s1,2.2,2.2,2.2s2.2-1,2.2-2.2S12.6,1.8,11.4,1.8z" /> </g> <g> <path d="M19,23.5c-3.1,0-5.6-2.5-5.6-5.6s2.5-5.6,5.6-5.6s5.6,2.5,5.6,5.6S22.1,23.5,19,23.5z M19,13.7c-2.3,0-4.1,1.9-4.1,4.1 S16.7,22,19,22s4.1-1.9,4.1-4.1S21.3,13.7,19,13.7z" /> </g> <g> <g> <path d="M28.5,35.7c-0.4,0-0.8-0.3-0.8-0.8v-4.7c0,0-0.1-1.1-1.6-2c-2.4-1.4-5.1-2.2-7.1-2.2s-4.7,0.8-7.1,2.2 c-1.5,0.9-1.6,2-1.6,2l0,4.6c0,0.4-0.3,0.8-0.8,0.8s-0.8-0.3-0.8-0.8v-4.7c0-0.1,0.1-2,2.3-3.3c2.6-1.5,5.6-2.4,7.8-2.4 s5.2,0.9,7.8,2.4c2.2,1.3,2.3,3.2,2.3,3.3v4.7C29.2,35.4,28.9,35.7,28.5,35.7z" /> </g> </g> </g>
        <g> <path d="M3.8,15.1c-0.2,0-0.3,0-0.4-0.1c-0.3-0.2-0.4-0.7-0.2-1l5.9-8c0.2-0.3,0.7-0.4,1-0.2c0.3,0.2,0.4,0.7,0.2,1l-5.9,8 C4.3,15,4,15.1,3.8,15.1z" /> </g>
        <g> <path d="M23.6,4.8h-9.2c-0.4,0-0.8-0.3-0.8-0.8s0.3-0.8,0.8-0.8h9.2c0.4,0,0.8,0.3,0.8,0.8S24,4.8,23.6,4.8z" /> </g>
        <g> <path d="M14.8,11.1c-0.3,0-0.5-0.1-0.6-0.4L12,7.1c-0.2-0.4-0.1-0.8,0.3-1c0.4-0.2,0.8-0.1,1,0.3l2.2,3.7c0.2,0.4,0.1,0.8-0.3,1 C15.1,11.1,15,11.1,14.8,11.1z" /> </g>
        <g> <path d="M11.4,18.1H6.7c-0.4,0-0.8-0.3-0.8-0.8s0.3-0.8,0.8-0.8h4.7c0.4,0,0.8,0.3,0.8,0.8S11.9,18.1,11.4,18.1z" /> </g>
        <g> <path d="M34.2,15.1c-0.2,0-0.5-0.1-0.6-0.3l-5.9-8c-0.2-0.3-0.2-0.8,0.2-1c0.3-0.2,0.8-0.2,1,0.2l5.9,8c0.2,0.3,0.2,0.8-0.2,1 C34.5,15.1,34.4,15.1,34.2,15.1z" /> </g>
        <g> <path d="M23.2,11.1c-0.1,0-0.3,0-0.4-0.1c-0.4-0.2-0.5-0.7-0.3-1l2.2-3.7c0.2-0.4,0.7-0.5,1-0.3c0.4,0.2,0.5,0.7,0.3,1l-2.2,3.7 C23.7,11,23.4,11.1,23.2,11.1z" /> </g>
        <g> <path d="M31.3,18.1h-4.7c-0.4,0-0.8-0.3-0.8-0.8s0.3-0.8,0.8-0.8h4.7c0.4,0,0.8,0.3,0.8,0.8S31.7,18.1,31.3,18.1z" /> </g>
</g>
</svg>
