<?xml version="1.0" encoding="utf-8"?>
<!-- Generator: Adobe Illustrator 19.1.0, SVG Export Plug-In . SVG Version: 6.00 Build 0)  -->
<svg version="1.1" baseProfile="basic" id="Layer_1"
	 xmlns="http://www.w3.org/2000/svg" xmlns:xlink="http://www.w3.org/1999/xlink" x="0px" y="0px" viewBox="0 0 44 36"
	 xml:space="preserve">
<g>
	<g> <g> <path d="M11.4,35.4H0V12.3h11.4c0.4,0,0.8,0.3,0.8,0.8s-0.3,0.8-0.8,0.8H1.5v20.1h9.9c0.4,0,0.8,0.3,0.8,0.8S11.8,35.4,11.4,35.4 z" /> </g> <g> <g> <path d="M7.1,20.1H0.8c-0.4,0-0.8-0.3-0.8-0.8s0.3-0.8,0.8-0.8h6.3c0.4,0,0.8,0.3,0.8,0.8S7.5,20.1,7.1,20.1z" /> </g> <g> <path d="M7.1,24.6H0.8c-0.4,0-0.8-0.3-0.8-0.8s0.3-0.8,0.8-0.8h6.3c0.4,0,0.8,0.3,0.8,0.8S7.5,24.6,7.1,24.6z" /> </g> <g> <path d="M7.1,29.1H0.8c-0.4,0-0.8-0.3-0.8-0.8s0.3-0.8,0.8-0.8h6.3c0.4,0,0.8,0.3,0.8,0.8S7.5,29.1,7.1,29.1z" /> </g> </g> </g>
        <g> <path d="M0.8,10.4C0.3,10.4,0,10.1,0,9.7s0.3-0.8,0.7-0.8l10.5,0h0c0.4,0,0.7,0.3,0.8,0.7s-0.3,0.8-0.7,0.8L0.8,10.4L0.8,10.4z" /> </g>
        <g> <g> <path d="M44,35.4H32.6c-0.4,0-0.8-0.3-0.8-0.8s0.3-0.8,0.8-0.8h9.9V13.8h-9.9c-0.4,0-0.8-0.3-0.8-0.8s0.3-0.8,0.8-0.8H44V35.4z" /> </g> <g> <g> <path d="M43.3,20.1h-6.3c-0.4,0-0.8-0.3-0.8-0.8s0.3-0.8,0.8-0.8h6.3c0.4,0,0.8,0.3,0.8,0.8S43.7,20.1,43.3,20.1z" /> </g> <g> <path d="M43.3,24.6h-6.3c-0.4,0-0.8-0.3-0.8-0.8s0.3-0.8,0.8-0.8h6.3c0.4,0,0.8,0.3,0.8,0.8S43.7,24.6,43.3,24.6z" /> </g> <g> <path d="M43.3,29.1h-6.3c-0.4,0-0.8-0.3-0.8-0.8s0.3-0.8,0.8-0.8h6.3c0.4,0,0.8,0.3,0.8,0.8S43.7,29.1,43.3,29.1z" /> </g> </g> </g>
        <g> <path d="M43.3,10.4L43.3,10.4l-10.5,0c-0.4,0-0.8-0.3-0.7-0.8s0.3-0.7,0.8-0.7h0l10.5,0c0.4,0,0.8,0.3,0.7,0.8 S43.7,10.4,43.3,10.4z" /> </g>
        <g> <path d="M30.3,35.4H13.7V3.7h16.7V35.4z M15.2,33.9h13.7V5.2H15.2V33.9z" /> </g>
        <g> <path d="M29.6,2.1H14.4c-0.4,0-0.8-0.3-0.8-0.8s0.3-0.8,0.8-0.8h15.2c0.4,0,0.8,0.3,0.8,0.8S30,2.1,29.6,2.1z" /> </g>
        <g> <g> <rect x="18.8" y="8.5" width="1.8" height="1.8" /> </g> <g> <rect x="23.8" y="8.5" width="1.8" height="1.8" /> </g> </g>
        <g> <g> <rect x="18.8" y="13.2" width="1.8" height="1.8" /> </g> <g> <rect x="23.8" y="13.2" width="1.8" height="1.8" /> </g> </g>
        <g> <g> <rect x="18.8" y="17.9" width="1.8" height="1.8" /> </g> <g> <rect x="23.8" y="17.9" width="1.8" height="1.8" /> </g> </g>
        <g> <g> <rect x="18.8" y="22.6" width="1.8" height="1.8" /> </g> <g> <rect x="23.8" y="22.6" width="1.8" height="1.8" /> </g> </g>
        <g> <path d="M24.7,35.4c-0.4,0-0.8-0.3-0.8-0.8v-6.4h-3.8v6.4c0,0.4-0.3,0.8-0.8,0.8s-0.8-0.3-0.8-0.8v-7.9h6.8v7.9 C25.5,35.1,25.1,35.4,24.7,35.4z" /> </g>
</g>
</svg>
