<?xml version="1.0" encoding="utf-8"?>
<!-- Generator: Adobe Illustrator 19.1.0, SVG Export Plug-In . SVG Version: 6.00 Build 0)  -->
<svg version="1.1" baseProfile="basic" id="Layer_2"
	 xmlns="http://www.w3.org/2000/svg" xmlns:xlink="http://www.w3.org/1999/xlink" x="0px" y="0px" viewBox="0 0 27 31"
	 xml:space="preserve">
<style type="text/css">
	.st0{fill-rule:evenodd;clip-rule:evenodd;}
</style>
<path class="st0" d="M1,30.6c-0.4,0-0.7-0.3-0.7-0.7c0.2-5.5,1.5-9.3,5-10.4c1.9-0.6,2.8-1.1,3.4-1.6c0.4-0.4,0.6-0.8,0.8-1.3
	l0.1-0.4l-0.4-0.4c-1.4-1.5-2.3-3.9-2.4-7.3l0,0c-0.4,0-0.7-0.3-0.7-0.7c0,0,0-0.1,0-0.1l0-0.1v0c0,0,0,0,0-0.1
	c0.3-4.7,3.7-7.1,7.1-7.1c3.4,0,6.8,2.4,7.2,7.1c0,0,0,0.1,0,0.1l0,0l0,0c0,0,0,0.1,0,0.1c0,0.2-0.1,0.4-0.2,0.5l-0.1,0.1l0,0.1
	c0,3.3-1.2,5.8-2.9,7.4L17.2,16l0.1,0.1c0.3,0.8,0.5,1.3,1,1.8c0.6,0.5,1.5,1.1,3.4,1.6c3.5,1.1,4.8,4.9,5,10.4
	c0,0.4-0.3,0.7-0.7,0.7H1z M4.8,29.3v-8.1l-0.4,0.2C2.8,22.6,1.9,25,1.7,29l0,0.3H4.8z M12.4,29.3v-1.8c0-0.4,0.3-0.7,0.7-0.7h5.8
	c0.4,0,0.7,0.3,0.7,0.7v1.8h1.2v-8.6l-0.1,0c-0.7-0.2-1.2-0.5-1.7-0.7l-0.1,0v5c0,0.4-0.3,0.7-0.7,0.7H8.4c-0.4,0-0.7-0.3-0.7-0.7
	V20l-0.2,0.1c-0.4,0.2-0.8,0.3-1.2,0.5l-0.2,0.1v8.6H12.4z M18.2,29.3v-1.1h-4.5v1.1H18.2z M25.3,29.3l0-0.3
	c-0.3-4.2-1.3-6.7-3.1-7.8l-0.1,0v8.1H25.3z M17.5,24.1v-5.2l-0.1,0c-0.6-0.6-0.9-1.1-1.2-1.7l-0.1-0.4L15.6,17
	c-0.6,0.3-1.2,0.5-1.9,0.5c-0.2,0-0.4,0-0.7,0c-0.8,0-1.6-0.2-2.3-0.6l0,0l0,0.1c-0.2,0.6-0.6,1.2-1.1,1.7C9.5,19,9.4,19,9.3,19.1
	l-0.2,0.1v4.8H17.5z M13.1,16.2c0.2,0,0.3,0,0.5,0c2.4-0.3,5-2.7,5.3-6.9l0-0.3l-0.4,0.4c-1.4,1.4-3.2,2-5,2c-1.8,0-3.5-0.7-4.8-2
	L8.3,9l0,0.5C8.7,14.3,10.9,16.2,13.1,16.2z M13.5,10.1c1.4,0,2.9-0.5,4-1.6l0,0H9.6l0.2,0.2C10.9,9.6,12.2,10.1,13.5,10.1z
	 M19.1,7.1L19.1,7.1c-0.5-3.7-3.2-5.4-5.8-5.4c-2.6,0-5.3,1.7-5.7,5.3l0,0.1H19.1z"/>
</svg>
