<?xml version="1.0" encoding="utf-8"?>
<!-- Generator: Adobe Illustrator 19.1.0, SVG Export Plug-In . SVG Version: 6.00 Build 0)  -->
<svg version="1.1" baseProfile="basic" id="Layer_1"
	 xmlns="http://www.w3.org/2000/svg" xmlns:xlink="http://www.w3.org/1999/xlink" x="0px" y="0px" viewBox="0 0 42 42"
	 xml:space="preserve">
<g>
	<g> <path d="M19,41.6C8.5,41.6,0,33.1,0,22.7S8.5,3.7,19,3.7c4,0,7.9,1.3,11.2,3.7c0.3,0.2,0.4,0.7,0.2,1c-0.2,0.3-0.7,0.4-1,0.2 c-3-2.2-6.6-3.4-10.3-3.4c-9.6,0-17.4,7.8-17.4,17.4S9.4,40.1,19,40.1s17.4-7.8,17.4-17.4c0-3.3-1-6.5-2.8-9.4 c-0.2-0.3-0.1-0.8,0.2-1c0.3-0.2,0.8-0.1,1,0.2c2,3.1,3,6.6,3,10.2C37.9,33.1,29.4,41.6,19,41.6z" /> </g>
        <g> <path d="M19,34.5c-2.7,0-5.4-1-7.5-2.7c-0.3-0.3-0.4-0.7-0.1-1.1c0.3-0.3,0.7-0.4,1.1-0.1c1.8,1.5,4.2,2.4,6.6,2.4 c5.7,0,10.3-4.6,10.3-10.3c0-1.5-0.3-3-1-4.4c-0.2-0.4,0-0.8,0.4-1c0.4-0.2,0.8,0,1,0.4c0.8,1.6,1.1,3.3,1.1,5 C30.8,29.2,25.5,34.5,19,34.5z" /> </g>
        <g> <path d="M9.3,28.9c-0.3,0-0.5-0.1-0.7-0.4c-0.4-0.6-0.6-1.2-0.9-1.9c-0.1-0.4,0.1-0.8,0.5-1c0.4-0.1,0.8,0.1,1,0.5 c0.2,0.5,0.4,1.1,0.8,1.6c0.2,0.4,0.1,0.8-0.3,1C9.6,28.9,9.5,28.9,9.3,28.9z" /> </g>
        <g> <path d="M7.9,23.3C7.9,23.3,7.9,23.3,7.9,23.3c-0.4,0-0.8-0.3-0.8-0.8c0.1-6.4,5.4-11.7,11.8-11.7c2.3,0,4.6,0.7,6.5,2 c0.3,0.2,0.4,0.7,0.2,1c-0.2,0.3-0.7,0.4-1,0.2C23,12.9,21,12.3,19,12.3c-5.6,0-10.2,4.6-10.3,10.2C8.6,22.9,8.3,23.3,7.9,23.3z" /> </g>
        <g> <path d="M19,28.2c-3.1,0-5.6-2.5-5.6-5.6s2.5-5.6,5.6-5.6c0.7,0,1.5,0.1,2.2,0.4c0.4,0.2,0.6,0.6,0.4,1c-0.2,0.4-0.6,0.6-1,0.4 c-0.5-0.2-1-0.3-1.6-0.3c-2.2,0-4.1,1.8-4.1,4.1s1.8,4.1,4.1,4.1s4.1-1.8,4.1-4.1c0-0.1,0-0.3,0-0.4l0.7-0.2l0.7-0.1 c0,0.3,0.1,0.4,0.1,0.6C24.5,25.7,22,28.2,19,28.2z" /> </g>
        <g> <path d="M19.9,23.3c-0.2,0-0.4-0.1-0.5-0.2c-0.3-0.3-0.3-0.8,0-1.1L38.8,2.6c0.3-0.3,0.8-0.3,1.1,0s0.3,0.8,0,1.1L20.4,23.1 C20.3,23.3,20.1,23.3,19.9,23.3z" /> </g>
        <g> <path d="M35.5,7.7c-0.4,0-0.8-0.3-0.8-0.8V1.2c0-0.4,0.3-0.8,0.8-0.8s0.8,0.3,0.8,0.8V7C36.2,7.4,35.9,7.7,35.5,7.7z" /> </g>
        <g> <line x1="35.5" y1="7" x2="41.2" y2="8.6" /> <path d="M41.2,9.3c-0.1,0-0.1,0-0.2,0l-5.8-1.6c-0.4-0.1-0.6-0.5-0.5-0.9c0.1-0.4,0.5-0.6,0.9-0.5l5.8,1.6C41.8,8,42,8.4,41.9,8.8 C41.8,9.1,41.5,9.3,41.2,9.3z" /> </g>
</g>
</svg>
