<?xml version="1.0" encoding="utf-8"?>
<!-- Generator: Adobe Illustrator 19.1.0, SVG Export Plug-In . SVG Version: 6.00 Build 0)  -->
<svg version="1.1" baseProfile="basic" id="Layer_1"
	 xmlns="http://www.w3.org/2000/svg" xmlns:xlink="http://www.w3.org/1999/xlink" x="0px" y="0px" viewBox="0 0 34 30"
	 xml:space="preserve">
<g>
	<path d="M0.3,24.2c0,3.2,2.6,5.8,5.8,5.8c3.2,0,5.8-2.6,5.8-5.8c0-0.3,0-0.6-0.1-0.9h4.6c0.4,0,0.7-0.3,0.7-0.7
		c0-4.9,4-8.9,8.9-8.9c1.4,0,2.8,0.3,4,0.9c0,0,0,0,0,0c0.8,0.4,1.5,0.9,2.1,1.5c0.3,0.3,0.8,0.3,1,0c0.3-0.3,0.3-0.8,0-1
		c-0.6-0.6-1.3-1.1-2.1-1.5v-2.7c0-0.2-0.1-0.5-0.3-0.6L29.3,9V4.4c0-1.8-1.4-3.2-3.2-3.2h-8.2c-0.4,0-0.7,0.3-0.7,0.7
		c0,0.4,0.3,0.7,0.7,0.7h0.3l-2.1,8h-3.5v-3c0-0.4,0.3-0.7,0.7-0.7c0.4,0,0.7-0.3,0.7-0.7c0-0.4-0.3-0.7-0.7-0.7
		c-1.2,0-2.2,1-2.2,2.2v3H8.1c-1.8,0-3.2,1.4-3.2,3.2v1.4l-1.5,1.2c-0.2,0.1-0.3,0.3-0.3,0.6v2.1C1.5,20.1,0.3,22,0.3,24.2z
		 M19.7,2.7h4.2v6h-1.6c-0.2,0-0.4,0.1-0.6,0.3l-1.5,1.8h-2.7L19.7,2.7z M27.8,4.4v4.2h-2.4v-6h0.7C27,2.7,27.8,3.4,27.8,4.4z
		 M11.5,21.8c-0.9-2-3-3.5-5.3-3.5c-0.5,0-1,0.1-1.4,0.2v-1.1l1.5-1.2c0.2-0.1,0.3-0.3,0.3-0.6v-1.8c0-0.9,0.8-1.7,1.7-1.7h12.4
		c0.2,0,0.4-0.1,0.6-0.3l1.5-1.8h5.6l1.4,1v1.7c-1.1-0.4-2.3-0.6-3.5-0.6c-4.5,0-8.3,2.8-9.7,6.7H14c-0.4,0-0.7,0.3-0.7,0.7
		s0.3,0.7,0.7,0.7h2c-0.1,0.5-0.2,1-0.2,1.5H11.5z M1.8,24.2c0-2.4,2-4.4,4.4-4.4c2.4,0,4.4,2,4.4,4.4c0,2.4-2,4.4-4.4,4.4
		C3.7,28.5,1.8,26.6,1.8,24.2z"/>
	<path d="M3.2,24.2c0,1.6,1.3,2.9,2.9,2.9s2.9-1.3,2.9-2.9c0-1.6-1.3-2.9-2.9-2.9S3.2,22.6,3.2,24.2z M4.7,24.2
		c0-0.8,0.6-1.4,1.4-1.4c0.8,0,1.4,0.6,1.4,1.4c0,0.8-0.6,1.4-1.4,1.4C5.4,25.6,4.7,24.9,4.7,24.2z"/>
	<path d="M18.7,22.5c0,4.1,3.4,7.5,7.5,7.5c4.1,0,7.5-3.4,7.5-7.5S30.3,15,26.2,15C22.1,15,18.7,18.4,18.7,22.5z M20.2,22.5
		c0-3.3,2.7-6,6-6c3.3,0,6,2.7,6,6c0,3.3-2.7,6-6,6C22.9,28.5,20.2,25.8,20.2,22.5z"/>
	<path d="M22.5,22.5c0,2.1,1.7,3.8,3.8,3.8c2.1,0,3.8-1.7,3.8-3.8s-1.7-3.8-3.8-3.8C24.2,18.8,22.5,20.5,22.5,22.5z M23.9,22.5
		c0-1.3,1-2.3,2.3-2.3c1.3,0,2.3,1,2.3,2.3c0,1.3-1,2.3-2.3,2.3C25,24.8,23.9,23.8,23.9,22.5z"/>
	<path d="M14.7,13.9c0.4,0,0.7,0.3,0.7,0.7v1.8c0,0.4-0.3,0.7-0.7,0.7c-0.4,0-0.7-0.3-0.7-0.7v-1.8C14,14.2,14.3,13.9,14.7,13.9z"/>
	<path d="M11.8,13.9c0.4,0,0.7,0.3,0.7,0.7v1.8c0,0.4-0.3,0.7-0.7,0.7s-0.7-0.3-0.7-0.7v-1.8C11.1,14.2,11.4,13.9,11.8,13.9z"/>
	<path d="M8.9,17.1c-0.4,0-0.7-0.3-0.7-0.7v-1.8c0-0.4,0.3-0.7,0.7-0.7c0.4,0,0.7,0.3,0.7,0.7v1.8C9.6,16.8,9.3,17.1,8.9,17.1z"/>
</g>
</svg>
