<?xml version="1.0" encoding="utf-8"?>
<!-- Generator: Adobe Illustrator 19.1.0, SVG Export Plug-In . SVG Version: 6.00 Build 0)  -->
<svg version="1.1" baseProfile="basic" id="Layer_1"
	 xmlns="http://www.w3.org/2000/svg" xmlns:xlink="http://www.w3.org/1999/xlink" x="0px" y="0px" viewBox="0 0 41 35"
	 xml:space="preserve">
<g>
	<g> <path d="M3.4,23.6H1.1c-0.2,0-0.5-0.1-0.6-0.3s-0.2-0.4-0.1-0.7L6,1.4C6.1,1,6.6,0.7,7,0.8C7.4,1,7.6,1.4,7.5,1.8L6.9,3.8l2.1,0.7 c1.1-0.7,5.2-2.9,9.8-3.3c3.6-0.3,5.7,0.7,7.7,1.8c2.1,1.2,3.7,3.9,4.9,6.2c1.3,2.5,0.7,4.8-1.6,6.4c-1,0.7-2.3,0.9-3.6,0.6 c-1.3-0.3-2.5-1.1-3-2c-0.5-0.9-1.2-2.1-1.7-2.9c-0.6,0.2-1.5,0.4-2.5,0.3c-1-0.2-1.7-0.6-2.2-1l-13,13 C3.8,23.6,3.6,23.6,3.4,23.6z M2,22.1h1.1L16.4,8.9c0.2-0.2,0.4-0.2,0.6-0.2c0.2,0,0.4,0.1,0.5,0.3c0,0,0.7,0.8,1.9,1 c1.1,0.2,2.2-0.4,2.2-0.4c0.4-0.2,0.8-0.1,1,0.3c0.1,0.1,1.3,2.2,2,3.5c0.2,0.4,1,1,2,1.3c0.5,0.1,1.5,0.2,2.4-0.3 c1.7-1.2,2.1-2.6,1.1-4.4c-1.1-2.1-2.6-4.6-4.3-5.6C24,3.2,22.3,2.4,19,2.6c-5,0.4-9.4,3.2-9.4,3.3C9.4,6,9.1,6.1,8.9,6L6.6,5.3 L2,22.1z" /> </g>
        <g> <path d="M34.2,4.2h-8c-0.4,0-0.8-0.3-0.8-0.7s0.3-0.8,0.8-0.8h8c0.4,0,0.8,0.3,0.8,0.8S34.6,4.2,34.2,4.2z" /> </g>
        <g> <path d="M23.7,34.9c-0.6,0-1.4-0.2-2.1-0.7c-1-0.6-1.5-1.6-1.6-2.7c-0.1-1.1,0.3-2.2,1-2.9c0.6-0.6,2.1-2.1,2.1-2.1l1.1,1.1 c0,0-1.5,1.6-2.1,2.1c-0.3,0.3-0.6,0.9-0.5,1.6c0,0.4,0.2,1.1,1,1.5c1.8,1.2,3.1-0.5,3.3-0.7c0,0,0-0.1,0.1-0.1l13.4-13.6 L34.3,1.1c-0.1-0.4,0.1-0.8,0.5-0.9c0.4-0.1,0.8,0.1,0.9,0.5l4.9,17.9c0.1,0.3,0,0.5-0.2,0.7L26.8,33.2 C26.3,33.9,25.1,34.9,23.7,34.9z" /> </g>
        <g> <path d="M16,34.1c-0.5,0-1.1-0.1-1.7-0.5c-1-0.6-1.7-1.6-1.8-2.7c-0.1-1.1,0.3-2.3,1.1-3.1c0.6-0.6,4.6-4.6,4.6-4.6 c0.3-0.3,0.8-0.3,1.1,0c0.3,0.3,0.3,0.8,0,1.1c-0.2,0.2-4,4.1-4.6,4.7c-0.5,0.5-0.8,1.2-0.7,1.9c0.1,0.6,0.5,1.2,1.1,1.6 c1.5,0.9,2.8-0.6,2.9-0.7l5.1-5.1c0.3-0.3,0.8-0.3,1.1,0c0.3,0.3,0.3,0.8,0,1.1l-5,5.1C18.5,33.3,17.4,34.1,16,34.1z" /> </g>
        <g> <path d="M11.3,30.8c-0.5,0-1.1-0.1-1.7-0.5c-1-0.6-1.7-1.6-1.8-2.7c-0.1-1.1,0.3-2.3,1.1-3.1c0.6-0.6,5.3-5.3,5.3-5.4 c0.3-0.3,0.8-0.3,1.1,0s0.3,0.8,0,1.1c-0.2,0.2-4.7,4.8-5.3,5.4c-0.5,0.5-0.8,1.2-0.7,1.9c0.1,0.6,0.5,1.2,1.1,1.6 c1.5,0.9,2.8-0.6,2.9-0.7l5.1-5.1c0.3-0.3,0.8-0.3,1.1,0c0.3,0.3,0.3,0.8,0,1.1l-5,5.1C13.8,29.9,12.6,30.8,11.3,30.8z" /> </g>
        <g> <path d="M7.2,26.7c-0.5,0-1.1-0.1-1.7-0.5c-1-0.6-1.7-1.6-1.8-2.7c-0.1-1.1,0.3-2.3,1.1-3.1c0.6-0.6,5.3-5.3,5.3-5.4 c0.3-0.3,0.8-0.3,1.1,0c0.3,0.3,0.3,0.8,0,1.1c-0.2,0.2-4.7,4.8-5.3,5.4c-0.5,0.5-0.8,1.2-0.7,1.9c0.1,0.6,0.5,1.2,1.1,1.6 c1.5,0.9,2.8-0.6,2.9-0.7l5.1-5.1c0.3-0.3,0.8-0.3,1.1,0c0.3,0.3,0.3,0.8,0,1.1l-5,5.1C9.7,25.9,8.6,26.7,7.2,26.7z" /> </g>
</g>
</svg>
