<?xml version="1.0" encoding="utf-8"?>
<!-- Generator: Adobe Illustrator 19.1.0, SVG Export Plug-In . SVG Version: 6.00 Build 0)  -->
<svg version="1.1" baseProfile="basic" id="Layer_2"
	 xmlns="http://www.w3.org/2000/svg" xmlns:xlink="http://www.w3.org/1999/xlink" x="0px" y="0px" viewBox="0 0 30 30"
	 xml:space="preserve">
<g>
	<g>
		<path d="M15,30L15,30c-0.3,0-0.5-0.2-0.7-0.4l-3.5-6.9H4c-2.1,0-3.7-1.7-3.7-3.7V3.8C0.2,1.7,1.9,0,4,0H26c2.1,0,3.7,1.7,3.7,3.7
			v15.2c0,2.1-1.7,3.7-3.7,3.7h-6.9l-3.5,6.9C15.5,29.8,15.3,30,15,30z M4,1.5c-1.2,0-2.2,1-2.2,2.2v15.2c0,1.2,1,2.2,2.2,2.2h7.3
			c0.3,0,0.5,0.2,0.7,0.4l3.1,6l3.1-6c0.1-0.3,0.4-0.4,0.7-0.4H26c1.2,0,2.2-1,2.2-2.2V3.8c0-1.2-1-2.2-2.2-2.2H4z"/>
	</g>
	<g>
		<path d="M19.6,18.7h-9.1c-0.4,0-0.8-0.3-0.8-0.8V8.5c0-0.4,0.3-0.8,0.8-0.8s0.8,0.3,0.8,0.8v8.7h7.6v-4.9c0-0.4,0.3-0.8,0.8-0.8
			s0.8,0.3,0.8,0.8v5.6C20.3,18.4,20,18.7,19.6,18.7z"/>
	</g>
	<g>
		<path d="M16.7,15.7h-3.4c-0.4,0-0.8-0.3-0.8-0.8v-3.4c0-0.4,0.3-0.8,0.8-0.8h3.4c0.4,0,0.8,0.3,0.8,0.8v3.4
			C17.4,15.3,17.1,15.7,16.7,15.7z M14.1,14.2h1.9v-1.9h-1.9V14.2z"/>
	</g>
	<g>
		<path d="M21.8,11.6c-0.2,0-0.3-0.1-0.5-0.2c-0.1-0.1-0.2-0.2-0.2-0.3L15,5.6l-6.2,5.5c0,0.1-0.1,0.2-0.2,0.3
			c-0.3,0.3-0.8,0.3-1.1,0c-0.2-0.2-0.2-0.5-0.2-0.7c0-0.2,0.1-0.3,0.2-0.5L14.4,4c0.2-0.2,0.5-0.2,0.7-0.2c0.2,0,0.3,0.1,0.4,0.2
			l6.8,6.1c0.1,0.1,0.2,0.3,0.2,0.5c0,0.1,0,0.2-0.1,0.4c0,0.1-0.1,0.2-0.2,0.3C22.3,11.5,22,11.6,21.8,11.6z"/>
	</g>
</g>
</svg>
