<?xml version="1.0" encoding="utf-8"?>
<!-- Generator: Adobe Illustrator 19.1.0, SVG Export Plug-In . SVG Version: 6.00 Build 0)  -->
<svg version="1.1" baseProfile="basic" id="Layer_2"
	 xmlns="http://www.w3.org/2000/svg" xmlns:xlink="http://www.w3.org/1999/xlink" x="0px" y="0px" viewBox="0 0 30 31"
	 xml:space="preserve">
<g>
	<g>
		<path d="M11,19.7c-0.2,0-0.4-0.1-0.5-0.2c-0.2-0.2-0.3-0.5-0.2-0.8l1.2-3.9c0-0.1,0.1-0.2,0.2-0.3L25.6,0.6c0.3-0.3,0.8-0.3,1.1,0
			l2.7,2.7c0.1,0.1,0.2,0.3,0.2,0.5s-0.1,0.4-0.2,0.5L15.4,18.3c-0.1,0.1-0.2,0.1-0.3,0.2l-3.9,1.2C11.1,19.7,11,19.7,11,19.7z
			 M12.9,15.5l-0.8,2.4l2.4-0.8L27.7,3.9l-1.6-1.6L12.9,15.5z"/>
	</g>
	<g>
		<path d="M26.6,6.8c-0.2,0-0.4-0.1-0.5-0.2l-2.7-2.7c-0.3-0.3-0.3-0.8,0-1.1s0.8-0.3,1.1,0l2.7,2.7c0.3,0.3,0.3,0.8,0,1.1
			C27,6.7,26.8,6.8,26.6,6.8z"/>
	</g>
	<g>
		<path d="M23.1,30.6H1.2c-0.4,0-0.8-0.3-0.8-0.8v-25c0-0.4,0.3-0.8,0.8-0.8h21.2c0.4,0,0.8,0.3,0.8,0.8s-0.3,0.8-0.8,0.8H2v23.5
			h20.4V10.2c0-0.4,0.3-0.8,0.8-0.8s0.8,0.3,0.8,0.8v19.6C23.9,30.2,23.5,30.6,23.1,30.6z"/>
	</g>
	<g>
		<path d="M15.9,11.4H5c-0.4,0-0.8-0.3-0.8-0.8S4.6,9.9,5,9.9h10.9c0.4,0,0.8,0.3,0.8,0.8S16.3,11.4,15.9,11.4z"/>
	</g>
	<g>
		<path d="M12.2,15.6H5c-0.4,0-0.8-0.3-0.8-0.8s0.3-0.8,0.8-0.8h7.2c0.4,0,0.8,0.3,0.8,0.8S12.6,15.6,12.2,15.6z"/>
	</g>
	<g>
		<path d="M10.7,19.9H5c-0.4,0-0.8-0.3-0.8-0.8s0.3-0.8,0.8-0.8h5.7c0.4,0,0.8,0.3,0.8,0.8S11.1,19.9,10.7,19.9z"/>
	</g>
</g>
</svg>
