<?xml version="1.0" encoding="utf-8"?>
<!-- Generator: Adobe Illustrator 19.1.0, SVG Export Plug-In . SVG Version: 6.00 Build 0)  -->
<svg version="1.1" baseProfile="basic" id="Layer_1"
	 xmlns="http://www.w3.org/2000/svg" xmlns:xlink="http://www.w3.org/1999/xlink" x="0px" y="0px" viewBox="0 0 40 32"
	 xml:space="preserve">
<g>
	<g> <path d="M33.8,28.8c-0.1,0-0.1,0-0.2,0L6,22.3c-0.3-0.1-0.6-0.4-0.6-0.7v-13c0-0.3,0.2-0.7,0.6-0.7l27.7-6.5 c0.2-0.1,0.5,0,0.6,0.1c0.2,0.1,0.3,0.4,0.3,0.6v26c0,0.2-0.1,0.4-0.3,0.6C34.2,28.7,34,28.8,33.8,28.8z M6.9,20.9l26.2,6.2V3 L6.9,9.1V20.9z" /> </g>
        <g> <path d="M6.2,22.3H2.3c-1,0-1.8-0.8-1.8-1.8v-11c0-1,0.8-1.8,1.8-1.8h3.9c0.4,0,0.8,0.3,0.8,0.8v13C6.9,21.9,6.6,22.3,6.2,22.3z M2.3,9.3C2.2,9.3,2,9.4,2,9.5v11c0,0.1,0.1,0.3,0.3,0.3h3.1V9.3H2.3z" /> </g>
        <g> <path d="M37.1,29.8c-0.3,0-0.5,0-0.8-0.1l-2.7-0.9c-0.3-0.1-0.5-0.4-0.5-0.7V2c0-0.3,0.2-0.6,0.5-0.7l2.7-0.9 c0.7-0.2,1.5-0.1,2.1,0.3c0.6,0.5,1,1.2,1,1.9v24.8c0,0.8-0.4,1.5-1,1.9C38.1,29.6,37.6,29.8,37.1,29.8z M34.6,27.5l2.2,0.7 c0.3,0.1,0.6,0,0.8-0.1c0.2-0.2,0.4-0.4,0.4-0.7V2.6c0-0.3-0.1-0.5-0.4-0.7c-0.2-0.2-0.5-0.2-0.8-0.1l-2.2,0.7V27.5z" /> </g>
        <g> <path d="M23.2,31.7c-0.2,0-0.4,0-0.7-0.1L13.3,29c-0.8-0.2-1.4-0.8-1.6-1.5l-1.4-4.1c-0.1-0.4,0.1-0.8,0.5-0.9 c0.4-0.1,0.8,0.1,0.9,0.5l1.4,4.1c0.1,0.3,0.3,0.5,0.6,0.6l9.3,2.6c0.4,0.1,0.8-0.1,1-0.4l1-3.6c0.1-0.4,0.5-0.6,0.9-0.5 c0.4,0.1,0.6,0.5,0.5,0.9l-1,3.7c0,0,0,0.1-0.1,0.1C24.9,31.2,24.1,31.7,23.2,31.7z" /> </g>
</g>
</svg>
