<?xml version="1.0" encoding="utf-8"?>
<!-- Generator: Adobe Illustrator 19.1.0, SVG Export Plug-In . SVG Version: 6.00 Build 0)  -->
<svg version="1.1" baseProfile="basic" id="Layer_2"
	 xmlns="http://www.w3.org/2000/svg" xmlns:xlink="http://www.w3.org/1999/xlink" x="0px" y="0px" viewBox="0 0 46 37"
	 xml:space="preserve">
<g>
	<g>
		<path d="M35.3,24.8H10.7C5,24.8,0.3,20.1,0.3,14.4S5,4,10.7,4h24.6C41,4,45.7,8.7,45.7,14.4S41,24.8,35.3,24.8z M10.7,5.5
			c-4.9,0-8.9,4-8.9,8.9s4,8.9,8.9,8.9h24.6c4.9,0,8.9-4,8.9-8.9s-4-8.9-8.9-8.9H10.7z"/>
	</g>
	<g>
		<path d="M44.2,27.8H1.6c-0.4,0-0.8-0.3-0.8-0.8v-2.9c0-0.4,0.3-0.8,0.8-0.8s0.8,0.3,0.8,0.8v2.1h41.1v-3.1c0-0.4,0.3-0.8,0.8-0.8
			s0.8,0.3,0.8,0.8v3.9C45,27.5,44.6,27.8,44.2,27.8z"/>
	</g>
	<g>
		<path d="M10.2,8.9H9.8C9.4,8.9,9,8.6,9,8.2s0.3-0.8,0.8-0.8h0.4c0.4,0,0.8,0.3,0.8,0.8S10.6,8.9,10.2,8.9z"/>
	</g>
	<g>
		<path d="M10.2,11.7H9.8C9.4,11.7,9,11.4,9,11s0.3-0.8,0.8-0.8h0.4c0.4,0,0.8,0.3,0.8,0.8S10.6,11.7,10.2,11.7z"/>
	</g>
	<g>
		<path d="M10.2,14.6H9.8c-0.4,0-0.8-0.3-0.8-0.8s0.3-0.8,0.8-0.8h0.4c0.4,0,0.8,0.3,0.8,0.8S10.6,14.6,10.2,14.6z"/>
	</g>
	<g>
		<path d="M10.2,17.4H9.8c-0.4,0-0.8-0.3-0.8-0.8s0.3-0.8,0.8-0.8h0.4c0.4,0,0.8,0.3,0.8,0.8S10.6,17.4,10.2,17.4z"/>
	</g>
	<g>
		<path d="M10.2,20.2H9.8c-0.4,0-0.8-0.3-0.8-0.8s0.3-0.8,0.8-0.8h0.4c0.4,0,0.8,0.3,0.8,0.8S10.6,20.2,10.2,20.2z"/>
	</g>
	<g>
		<path d="M37,8.9h-0.4c-0.4,0-0.8-0.3-0.8-0.8s0.3-0.8,0.8-0.8H37c0.4,0,0.8,0.3,0.8,0.8S37.4,8.9,37,8.9z"/>
	</g>
	<g>
		<path d="M37,11.7h-0.4c-0.4,0-0.8-0.3-0.8-0.8s0.3-0.8,0.8-0.8H37c0.4,0,0.8,0.3,0.8,0.8S37.4,11.7,37,11.7z"/>
	</g>
	<g>
		<path d="M37,14.6h-0.4c-0.4,0-0.8-0.3-0.8-0.8s0.3-0.8,0.8-0.8H37c0.4,0,0.8,0.3,0.8,0.8S37.4,14.6,37,14.6z"/>
	</g>
	<g>
		<path d="M37,17.4h-0.4c-0.4,0-0.8-0.3-0.8-0.8s0.3-0.8,0.8-0.8H37c0.4,0,0.8,0.3,0.8,0.8S37.4,17.4,37,17.4z"/>
	</g>
	<g>
		<path d="M37,20.2h-0.4c-0.4,0-0.8-0.3-0.8-0.8s0.3-0.8,0.8-0.8H37c0.4,0,0.8,0.3,0.8,0.8S37.4,20.2,37,20.2z"/>
	</g>
	<g>
		<path d="M32.1,27.8h-5.6c-0.4,0-0.8-0.3-0.8-0.8V2c0-0.4,0.3-0.8,0.8-0.8h5.6c0.4,0,0.8,0.3,0.8,0.8v25
			C32.8,27.5,32.5,27.8,32.1,27.8z M27.2,26.3h4.1V2.8h-4.1V26.3z"/>
	</g>
	<g>
		<path d="M32.1,9.7h-5.6c-0.4,0-0.8-0.3-0.8-0.8s0.3-0.8,0.8-0.8h5.6c0.4,0,0.8,0.3,0.8,0.8S32.5,9.7,32.1,9.7z"/>
	</g>
	<g>
		<path d="M32.1,14.9h-5.6c-0.4,0-0.8-0.3-0.8-0.8s0.3-0.8,0.8-0.8h5.6c0.4,0,0.8,0.3,0.8,0.8S32.5,14.9,32.1,14.9z"/>
	</g>
	<g>
		<path d="M32.1,20.2h-5.6c-0.4,0-0.8-0.3-0.8-0.8s0.3-0.8,0.8-0.8h5.6c0.4,0,0.8,0.3,0.8,0.8S32.5,20.2,32.1,20.2z"/>
	</g>
	<g>
		<path d="M22.9,2.1H12.2c-0.4,0-0.8-0.3-0.8-0.8s0.3-0.8,0.8-0.8h10.6c0.4,0,0.8,0.3,0.8,0.8S23.3,2.1,22.9,2.1z"/>
	</g>
	<g>
		<path d="M14.2,5.5c-0.4,0-0.8-0.3-0.8-0.8V1.3c0-0.4,0.3-0.8,0.8-0.8S15,0.9,15,1.3v3.5C15,5.2,14.6,5.5,14.2,5.5z"/>
	</g>
	<g>
		<path d="M20.8,5.5c-0.4,0-0.8-0.3-0.8-0.8V1.3c0-0.4,0.3-0.8,0.8-0.8s0.8,0.3,0.8,0.8v3.5C21.6,5.2,21.2,5.5,20.8,5.5z"/>
	</g>
	<g>
		<path d="M7.4,37c-2.4,0-4.3-1.9-4.3-4.3s1.9-4.3,4.3-4.3s4.3,1.9,4.3,4.3S9.8,37,7.4,37z M7.4,29.9c-1.5,0-2.8,1.3-2.8,2.8
			s1.3,2.8,2.8,2.8s2.8-1.3,2.8-2.8S9,29.9,7.4,29.9z"/>
	</g>
	<g>
		<path d="M38.4,37c-2.4,0-4.3-1.9-4.3-4.3s1.9-4.3,4.3-4.3s4.3,1.9,4.3,4.3S40.7,37,38.4,37z M38.4,29.9c-1.5,0-2.8,1.3-2.8,2.8
			s1.3,2.8,2.8,2.8s2.8-1.3,2.8-2.8S39.9,29.9,38.4,29.9z"/>
	</g>
	<g>
		<path d="M38.4,33.4H7.7c-0.4,0-0.8-0.3-0.8-0.8s0.3-0.8,0.8-0.8h30.7c0.4,0,0.8,0.3,0.8,0.8S38.8,33.4,38.4,33.4z"/>
	</g>
	<g>
		<path d="M32.6,30.6h-19c-0.4,0-0.8-0.3-0.8-0.8s0.3-0.8,0.8-0.8h19c0.4,0,0.8,0.3,0.8,0.8S33,30.6,32.6,30.6z"/>
	</g>
</g>
</svg>
