<?xml version="1.0" encoding="utf-8"?>
<!-- Generator: Adobe Illustrator 19.1.0, SVG Export Plug-In . SVG Version: 6.00 Build 0)  -->
<svg version="1.1" baseProfile="basic" id="Layer_1"
	 xmlns="http://www.w3.org/2000/svg" xmlns:xlink="http://www.w3.org/1999/xlink" x="0px" y="0px" viewBox="0 0 40 28"
	 xml:space="preserve">
<g>
	<g> <path d="M26.6,27.6h-5c-1.3,0-2.3-1-2.3-2.3V2.7c0-1.3,1-2.3,2.3-2.3h16c1.3,0,2.3,1,2.3,2.3v20c0,1.1-0.8,2.1-1.8,2.3l-10.8,2.5 C27.1,27.6,26.8,27.6,26.6,27.6z M21.6,1.9c-0.5,0-0.8,0.4-0.8,0.8v22.6c0,0.5,0.4,0.8,0.8,0.8l5.2,0c0,0,0,0,0,0l0.2-0.2 c1.3-1.3,5-5,5.9-5.9c0.7-0.7,1.6-1.1,2.5-1.1c0.8,0.1,1.4,0.5,1.9,1.1c0.3,0.5,0.8,1.1,1.2,1.6V2.7c0-0.5-0.4-0.8-0.8-0.8H21.6z M35.1,20.3c-0.4,0-0.8,0.2-1.2,0.6c-0.7,0.7-2.8,2.8-4.4,4.5l8.2-1.9c0.1,0,0.1,0,0.2-0.1c-0.5-0.7-1.3-1.8-1.9-2.6 C35.8,20.5,35.5,20.4,35.1,20.3C35.1,20.3,35.1,20.3,35.1,20.3z" /> </g>
        <g> <path d="M18.5,27.6H2.4c-1.2,0-2.3-1-2.3-2.3V2.6c0-1.2,1-2.3,2.3-2.3h16.1c1.2,0,2.3,1,2.3,2.3v22.7 C20.7,26.6,19.7,27.6,18.5,27.6z M2.4,1.9C2,1.9,1.6,2.2,1.6,2.6v22.7c0,0.4,0.3,0.8,0.8,0.8h16.1c0.4,0,0.8-0.3,0.8-0.8V2.6 c0-0.4-0.3-0.8-0.8-0.8H2.4z" /> </g>
        <g> <path d="M36.3,8.2H22.9c-0.4,0-0.8-0.3-0.8-0.8s0.3-0.8,0.8-0.8h13.4c0.4,0,0.8,0.3,0.8,0.8S36.7,8.2,36.3,8.2z" /> </g>
        <g> <path d="M36.3,11.8H22.9c-0.4,0-0.8-0.3-0.8-0.8s0.3-0.8,0.8-0.8h13.4c0.4,0,0.8,0.3,0.8,0.8S36.7,11.8,36.3,11.8z" /> </g>
        <g> <path d="M36.3,15.3H22.9c-0.4,0-0.8-0.3-0.8-0.8s0.3-0.8,0.8-0.8h13.4c0.4,0,0.8,0.3,0.8,0.8S36.7,15.3,36.3,15.3z" /> </g>
        <g> <path d="M17,17.1H3.6c-0.4,0-0.8-0.3-0.8-0.8s0.3-0.8,0.8-0.8H17c0.4,0,0.8,0.3,0.8,0.8S17.4,17.1,17,17.1z" /> </g>
        <g> <path d="M17,20.6H3.6c-0.4,0-0.8-0.3-0.8-0.8s0.3-0.8,0.8-0.8H17c0.4,0,0.8,0.3,0.8,0.8S17.4,20.6,17,20.6z" /> </g>
        <g> <path d="M32.7,18.8h-9.8c-0.4,0-0.8-0.3-0.8-0.8s0.3-0.8,0.8-0.8h9.8c0.4,0,0.8,0.3,0.8,0.8S33.1,18.8,32.7,18.8z" /> </g>
        <g> <path d="M16.1,13.5H4.1c-0.4,0-0.8-0.3-0.8-0.8V5.5c0-0.4,0.3-0.8,0.8-0.8h11.9c0.4,0,0.8,0.3,0.8,0.8v7.3 C16.8,13.2,16.5,13.5,16.1,13.5z M4.9,12h10.4V6.3H4.9V12z" /> </g>
</g>
</svg>
