<?xml version="1.0" encoding="utf-8"?>
<!-- Generator: Adobe Illustrator 19.1.0, SVG Export Plug-In . SVG Version: 6.00 Build 0)  -->
<svg version="1.1" baseProfile="basic" id="Layer_1"
	 xmlns="http://www.w3.org/2000/svg" xmlns:xlink="http://www.w3.org/1999/xlink" x="0px" y="0px" viewBox="0 0 34 36"
	 xml:space="preserve">
<g>
	<g> <path d="M28.7,35.6H8.2c-0.4,0-0.8-0.3-0.8-0.8s0.3-0.8,0.8-0.8h20.5c2,0,3.6-1.6,3.6-3.6V2.6c0-0.4-0.3-0.7-0.7-0.7H9.7 C9.3,1.9,9,2.3,9,2.6v27.8c0,0.4-0.3,0.8-0.8,0.8s-0.8-0.3-0.8-0.8V2.6c0-1.2,1-2.2,2.2-2.2h21.9c1.2,0,2.2,1,2.2,2.2v27.8 C33.8,33.3,31.5,35.6,28.7,35.6z" /> </g>
        <g> <path d="M4.6,35.6c-2.4,0-4.4-2-4.4-4.4V17.3c0-1.2,1-2.2,2.2-2.2h5.8c0.4,0,0.8,0.3,0.8,0.8v15.4C9,33.6,7,35.6,4.6,35.6z M2.4,16.6c-0.4,0-0.7,0.3-0.7,0.7v13.9c0,1.6,1.3,2.9,2.9,2.9c1.6,0,2.9-1.3,2.9-2.9V16.6H2.4z" /> </g>
        <g> <path d="M12.6,35.6H5.3c-0.4,0-0.8-0.3-0.8-0.8s0.3-0.8,0.8-0.8h7.3c0.4,0,0.8,0.3,0.8,0.8S13,35.6,12.6,35.6z" /> </g>
        <g> <path d="M27.2,7.8H14.1c-0.4,0-0.8-0.3-0.8-0.8s0.3-0.8,0.8-0.8h13.2C27.6,6.3,28,6.6,28,7S27.6,7.8,27.2,7.8z" /> </g>
        <g> <path d="M27.2,13.6H14.1c-0.4,0-0.8-0.3-0.8-0.8s0.3-0.8,0.8-0.8h13.2c0.4,0,0.8,0.3,0.8,0.8S27.6,13.6,27.2,13.6z" /> </g>
        <g> <path d="M27.2,19.5H14.1c-0.4,0-0.8-0.3-0.8-0.8s0.3-0.8,0.8-0.8h13.2c0.4,0,0.8,0.3,0.8,0.8S27.6,19.5,27.2,19.5z" /> </g>
</g>
</svg>
