<?xml version="1.0" encoding="utf-8"?>
<!-- Generator: Adobe Illustrator 19.1.0, SVG Export Plug-In . SVG Version: 6.00 Build 0)  -->
<svg version="1.1" baseProfile="basic" id="Layer_1"
	 xmlns="http://www.w3.org/2000/svg" xmlns:xlink="http://www.w3.org/1999/xlink" x="0px" y="0px" viewBox="0 0 130 65"
	 xml:space="preserve">
<style type="text/css">
	.st0{fill:#FFFFFF;}
</style>
<g>
	<g>
		<path class="st0" d="M94.1,11.2c2.3-0.7,5.1-0.6,5.8,0.9c0.8,1.6-0.7,4.4-3.9,5.3c-4.4,1.3-8.8,0.8-8.8,0.8
			c0.3-1.1,0.6-1.7,0.8-2.1C89.3,13.6,92.3,11.8,94.1,11.2 M101,22.1c5.8-2.9,6.4-8,6.4-9.8c0.2-4.1-3.7-9.1-13.3-7.6
			C86,6,79.9,12.3,78.6,20.7c-0.6,3.8-1.4,12,8,14.1c6.8,1.5,14.5-1.2,14.5-1.2l1.7-6.3c-7.3,1.7-10.3,1.8-13,1
			c-3.1-0.9-2.9-4-2.9-4C90.7,24.2,97.1,24.1,101,22.1"/>
		<path class="st0" d="M37.9,20.6c-2.3,7.1-6.6,7.4-8,7.4c-1.4,0-5.9-0.3-3.8-8.1c2.3-8.2,7.1-8.2,8.6-8.2
			C36.6,11.7,40.5,12.9,37.9,20.6 M36.6,4.9L12.3,5l-1.8,6.7l11.3,0c-1.6,1.4-3,4.8-3,4.8l-16.4,0l-1.8,6.7l16.4,0
			c0,2.4,0.5,4.8,0.5,4.8H6.2l-1.8,6.7l25.1,0c3.8,0,14.1-2.1,17.4-15.6C49.4,8.8,42.4,4.9,36.6,4.9"/>
		<path class="st0" d="M68.6,20.7c-2.3,7.1-6.5,7.4-8,7.4c-1.4,0-5.9-0.3-3.8-8.1c2.3-8.2,7.1-8.2,8.6-8.2
			C67.3,11.7,71.2,12.9,68.6,20.7 M68,4.5C53.1,3.4,49.7,15.4,49.5,16.2c-0.1,0.2-6.7,24.5-6.7,24.5h8.4l2.1-7.7
			c10.2,6.3,21.2-1.9,23.6-12.8C79.7,7.6,71.1,4.7,68,4.5"/>
		<path class="st0" d="M127.6,27.3l-1.7,6.3c0,0-3.9,1.6-8.1,1.7c-3.7,0.1-6.8-1.7-7.9-2.7c-2.1-2-2.8-4.2-2.9-6.3
			c-0.1-1.8,0-3,0.2-3.9c0.3-1.8,5.8-21.8,5.8-21.8l8.1,0l-1.2,4.5h9.7l-1.7,6.7l-9.8,0c0,0-0.7,2.5-1.5,5.5
			c-0.9,3.3-1.2,5.3-1.2,6.9c0,0.5,0,2.2,1.6,3.5c0.8,0.6,2.8,2,8.3,0.4C126.1,27.7,127.6,27.3,127.6,27.3"/>
	</g>
	<g>
		<path class="st0" d="M18.3,53.6c0,0.4-0.1,0.8-0.2,1.3l-1.5,5.7h-2.8l1.5-5.6c0.1-0.4,0.2-0.7,0.2-1c0-0.8-0.4-1.3-1.3-1.3
			c-0.6,0-1,0.2-1.3,0.7c-0.3,0.4-0.5,1.1-0.8,2l-1.4,5.3H7.8L9.4,55c0.1-0.4,0.2-0.7,0.2-1c0-0.8-0.4-1.3-1.3-1.3
			c-0.6,0-1,0.2-1.3,0.7c-0.3,0.4-0.5,1.1-0.8,2l-1.4,5.3H1.9L3.4,55c0.4-1.6,1-2.8,1.6-3.4c0.8-0.8,1.9-1.2,3.4-1.2
			c1.3,0,2.2,0.5,2.9,1.4c0.8-0.9,1.9-1.4,3.2-1.4c1.1,0,2,0.3,2.7,0.9C17.9,51.8,18.3,52.6,18.3,53.6z"/>
		<path class="st0" d="M29.3,54c0,0.4-0.1,0.8-0.2,1.3l-1.4,5.3H25l0.3-1.3c-0.9,1-2,1.4-3.2,1.4c-0.9,0-1.7-0.3-2.3-1
			c-0.6-0.7-0.9-1.6-0.9-2.6c0-1.7,0.6-3.3,1.7-4.6c1.2-1.4,2.7-2.2,4.4-2.2c1.3,0,2.3,0.3,3,1C28.9,52.1,29.3,53,29.3,54z
			 M26.4,54.3c0-1.1-0.5-1.6-1.5-1.6c-0.9,0-1.6,0.5-2.2,1.4c-0.5,0.8-0.8,1.7-0.8,2.7c0,0.5,0.1,0.9,0.3,1.2c0.2,0.3,0.6,0.5,1,0.5
			c0.8,0,1.6-0.5,2.3-1.5C26.1,56.1,26.4,55.2,26.4,54.3z"/>
		<path class="st0" d="M42,48.4L40,56.1c-0.8,3.1-2.8,4.7-5.8,4.7c-1.3,0-2.3-0.4-3-1.1C30.4,59,30,58.1,30,56.8
			c0-1.6,0.5-3.1,1.6-4.4c1.1-1.4,2.5-2.1,4.1-2.1c1,0,1.9,0.3,2.6,1l0.8-2.9H42z M37.5,54.5c0-1.2-0.5-1.8-1.6-1.8
			c-0.9,0-1.6,0.5-2.2,1.4c-0.5,0.8-0.8,1.7-0.8,2.6c0,1.2,0.5,1.8,1.6,1.8c0.9,0,1.6-0.5,2.1-1.4C37.2,56.3,37.5,55.4,37.5,54.5z"
			/>
		<path class="st0" d="M51.1,53.2c0,0.7-0.2,1.3-0.6,1.8s-0.9,1-1.6,1.3c-1,0.5-2.7,0.7-4.9,0.7c0,1,0.7,1.5,2.1,1.5
			c1.1,0,2.3-0.2,3.4-0.6L49,60.2c-1.1,0.4-2.3,0.6-3.4,0.6c-1.3,0-2.4-0.3-3.1-0.9c-0.8-0.6-1.2-1.6-1.2-2.9c0-1.8,0.6-3.4,1.8-4.7
			c1.3-1.4,2.8-2,4.7-2c0.9,0,1.7,0.2,2.3,0.7C50.8,51.5,51.1,52.2,51.1,53.2z M48.6,53.4c0-0.6-0.4-0.9-1.1-0.9
			c-0.7,0-1.4,0.3-2,0.8c-0.6,0.5-1,1.1-1.2,1.7c0.3,0,0.5,0,0.6,0C47.4,55,48.6,54.5,48.6,53.4z"/>
		<path class="st0" d="M61.1,53.6c0,0.4-0.1,0.8-0.2,1.3l-1.5,5.7h-2.8l1.5-5.6c0.1-0.4,0.2-0.7,0.2-1c0-0.8-0.4-1.3-1.2-1.3
			c-0.6,0-1,0.2-1.4,0.7c-0.3,0.4-0.6,1.1-0.8,2l-1.4,5.3h-2.8l1.5-5.6c0.4-1.6,1-2.7,1.7-3.4c0.8-0.8,2-1.2,3.5-1.2
			c1.1,0,2,0.3,2.8,0.9C60.8,51.8,61.1,52.6,61.1,53.6z"/>
		<path class="st0" d="M66.5,50.5l-2.7,10.2H61l2.7-10.2H66.5z M66.5,50.5l-2.7,10.2H61l2.7-10.2H66.5z M67.3,47.7l-0.6,2.1h-2.8
			l0.6-2.1H67.3z"/>
		<path class="st0" d="M80.9,50.5l-2.5,9.2c-0.5,1.7-1.2,2.9-2.1,3.7c-0.9,0.8-2.2,1.2-3.8,1.2c-0.9,0-1.8-0.1-2.7-0.3l0.6-2.4
			c0.7,0.2,1.5,0.3,2.3,0.3c0.7,0,1.3-0.1,1.7-0.4c0.4-0.3,0.7-0.7,0.9-1.3c-0.7,0.3-1.4,0.4-2.2,0.4c-0.9,0-1.5-0.3-2-0.8
			c-0.5-0.5-0.8-1.3-0.8-2.3c0-0.6,0.1-1.2,0.2-1.8l1.5-5.4h2.8L73.7,55c-0.3,1-0.4,1.7-0.4,2.1c0,0.9,0.4,1.3,1.2,1.3
			c0.6,0,1.1-0.3,1.4-0.8c0.3-0.5,0.6-1.3,1-2.6l1.2-4.5H80.9z"/>
		<path class="st0" d="M89.8,54c0,0.4-0.1,0.8-0.2,1.3l-1.4,5.3h-2.7l0.3-1.3c-0.9,1-2,1.4-3.2,1.4c-0.9,0-1.7-0.3-2.3-1
			c-0.6-0.7-0.9-1.6-0.9-2.6c0-1.7,0.6-3.3,1.7-4.6c1.2-1.4,2.7-2.2,4.4-2.2c1.3,0,2.3,0.3,3,1C89.4,52.1,89.8,53,89.8,54z
			 M86.9,54.3c0-1.1-0.5-1.6-1.5-1.6c-0.9,0-1.6,0.5-2.2,1.4c-0.5,0.8-0.8,1.7-0.8,2.7c0,0.5,0.1,0.9,0.3,1.2c0.2,0.3,0.6,0.5,1,0.5
			c0.8,0,1.6-0.5,2.3-1.5C86.6,56.1,86.9,55.2,86.9,54.3z"/>
		<path class="st0" d="M100.9,54.1c0,0.6-0.1,1.2-0.3,2l-1,3.6c-0.4,1.7-1.1,2.9-2.1,3.7c-0.9,0.8-2.2,1.2-3.8,1.2
			c-0.9,0-1.8-0.1-2.7-0.3l0.6-2.4c0.7,0.2,1.5,0.3,2.3,0.3c1.4,0,2.2-0.6,2.6-1.7c-0.6,0.3-1.4,0.4-2.3,0.4c-1.1,0-1.9-0.3-2.6-1
			c-0.7-0.7-1.1-1.6-1.1-2.8c0-1.7,0.6-3.3,1.7-4.6c1.2-1.4,2.6-2.1,4.4-2.1c1.3,0,2.3,0.3,3,1C100.6,52,100.9,52.9,100.9,54.1z
			 M98.1,54.4c0-1.1-0.5-1.7-1.5-1.7c-0.9,0-1.6,0.4-2.2,1.3c-0.5,0.8-0.8,1.7-0.8,2.7c0,1.2,0.5,1.7,1.5,1.7c0.9,0,1.6-0.4,2.2-1.3
			C97.8,56.3,98.1,55.4,98.1,54.4z M94.5,47.4h1.8c0.2,0.5,0.5,0.7,1,0.7c0.5,0,0.9-0.2,1.4-0.7h2c-1.1,1.5-2.3,2.3-3.8,2.3
			C95.4,49.7,94.6,49,94.5,47.4z"/>
		<path class="st0" d="M106.8,48.4l-3.3,12.2h-2.8l3.3-12.2H106.8z"/>
		<path class="st0" d="M116.3,54c0,0.4-0.1,0.8-0.2,1.3l-1.4,5.3H112l0.3-1.3c-0.9,1-2,1.4-3.2,1.4c-0.9,0-1.7-0.3-2.3-1
			c-0.6-0.7-0.9-1.6-0.9-2.6c0-1.7,0.6-3.3,1.7-4.6c1.2-1.4,2.7-2.2,4.4-2.2c1.3,0,2.3,0.3,3,1C115.9,52.1,116.3,53,116.3,54z
			 M113.4,54.3c0-1.1-0.5-1.6-1.5-1.6c-0.9,0-1.6,0.5-2.2,1.4c-0.5,0.8-0.8,1.7-0.8,2.7c0,0.5,0.1,0.9,0.3,1.2
			c0.2,0.3,0.6,0.5,1,0.5c0.8,0,1.6-0.5,2.3-1.5C113.1,56.1,113.4,55.2,113.4,54.3z"/>
		<path class="st0" d="M124.2,50.4c-0.2,0.7-0.4,1.4-0.6,2.1c-1.1,0-1.9,0.2-2.3,0.7c-0.3,0.3-0.6,1.1-1,2.2l-1.4,5.3h-2.8l1.8-6.8
			c0.3-1.2,0.8-2,1.5-2.6c0.8-0.6,1.8-0.9,3.2-0.9C123.2,50.3,123.7,50.3,124.2,50.4z"/>
		<path class="st0" d="M128.1,50.5l-2.7,10.2h-2.8l2.7-10.2H128.1z"/>
	</g>
</g>
</svg>
