<?xml version="1.0" encoding="utf-8"?>
<!-- Generator: Adobe Illustrator 19.1.0, SVG Export Plug-In . SVG Version: 6.00 Build 0)  -->
<svg version="1.1" baseProfile="basic" id="Layer_1"
	 xmlns="http://www.w3.org/2000/svg" xmlns:xlink="http://www.w3.org/1999/xlink" x="0px" y="0px" viewBox="0 0 28 30"
	 xml:space="preserve">
<g>
	<g>
		<path d="M22,12.7c-0.4,0-0.8-0.3-0.8-0.8V8.4c0-3.1-3.3-6.8-7.5-6.8S6.1,5.3,6.1,8.4v1.7c0,0.4-0.3,0.8-0.8,0.8s-0.8-0.3-0.8-0.8
			V8.4c0-3.9,3.9-8.3,9-8.3s9,4.4,9,8.3v3.5C22.7,12.3,22.4,12.7,22,12.7z"/>
	</g>
	<g>
		<path d="M17.1,19.4c-0.2,0-0.5-0.1-0.6-0.3c-0.2-0.3-0.1-0.8,0.2-1c1.9-1.3,2.1-3.4,2.1-4.2v-1.3c0-0.4,0.3-0.8,0.8-0.8
			s0.8,0.3,0.8,0.8v1.3c0,2.3-1,4.3-2.8,5.5C17.4,19.4,17.2,19.4,17.1,19.4z"/>
	</g>
	<g>
		<path d="M20.8,13.3C17,13.3,9.6,8.6,9.6,4.6c0-0.4,0.3-0.8,0.8-0.8s0.8,0.3,0.8,0.8c0,2.8,6.4,7.2,9.7,7.2c0.4,0,0.8,0.3,0.8,0.8
			S21.2,13.3,20.8,13.3z"/>
	</g>
	<g>
		<path d="M11.3,20c-0.1,0-0.2,0-0.3-0.1c-2.8-1.2-4.5-3.6-4.6-6.1v-1.8c0-2.4,1.8-4.3,3.5-5c0.4-0.2,0.8,0,1,0.4s0,0.8-0.4,1
			C9.3,8.9,8,10.3,8,11.9v1.8c0,1.9,1.5,3.8,3.7,4.8c0.4,0.2,0.5,0.6,0.4,1C11.9,19.8,11.6,20,11.3,20z"/>
	</g>
	<g>
		<path d="M14.6,23.1H14c-1.1,0-2-0.9-2-2s0.9-2,2-2h0.6c1.1,0,2,0.9,2,2S15.7,23.1,14.6,23.1z M14,20.7c-0.3,0-0.5,0.2-0.5,0.5
			s0.2,0.5,0.5,0.5h0.6c0.3,0,0.5-0.2,0.5-0.5s-0.2-0.5-0.5-0.5H14z"/>
	</g>
	<g>
		<path d="M15.9,21.9h-0.6c-0.4,0-0.8-0.3-0.8-0.8s0.3-0.8,0.8-0.8h0.6c3.1,0,5.4-2.1,5.4-4.8c0-0.4,0.3-0.8,0.8-0.8
			s0.8,0.3,0.8,0.8C22.7,19.1,19.7,21.9,15.9,21.9z"/>
	</g>
	<g>
		<path d="M23.2,16.4h-2v-7h2c1.1,0,2,0.9,2,2v3.1C25.2,15.5,24.3,16.4,23.2,16.4z M22.7,14.9h0.5c0.3,0,0.5-0.2,0.5-0.5v-3.1
			c0-0.3-0.2-0.5-0.5-0.5h-0.5V14.9z"/>
	</g>
	<g>
		<path d="M6.1,16.4h-2c-1.1,0-2-0.9-2-2v-3.1c0-1.1,0.9-2,2-2h2V16.4z M4.2,10.8c-0.3,0-0.5,0.2-0.5,0.5v3.1c0,0.3,0.2,0.5,0.5,0.5
			h0.5v-4H4.2z"/>
	</g>
	<g>
		<path d="M9.7,23.7c-0.4,0-0.8-0.3-0.8-0.8v-4.9c0-0.4,0.3-0.8,0.8-0.8s0.8,0.3,0.8,0.8V23C10.4,23.4,10.1,23.7,9.7,23.7z"/>
	</g>
	<g>
		<path d="M12.2,29.6l-5.4-5.4l2.9-2.9l5.4,5.4L12.2,29.6z M8.9,24.2l3.2,3.2l0.8-0.8l-3.2-3.2L8.9,24.2z"/>
	</g>
	<g>
		<path d="M15.8,29.6l-2.9-2.9l5.4-5.4l2.9,2.9L15.8,29.6z M15.1,26.7l0.8,0.8l3.2-3.2l-0.8-0.8L15.1,26.7z"/>
	</g>
	<g>
		<path d="M1.1,29.9c-0.1,0-0.2,0-0.2,0c-0.4-0.1-0.6-0.6-0.5-0.9l0.6-1.7c0.5-1.5,1.7-2.6,3.2-2.9l3.5-0.8c0.4-0.1,0.8,0.2,0.9,0.6
			S8.4,24.9,8,25l-3.5,0.8c-1,0.2-1.8,1-2.1,1.9l-0.6,1.7C1.7,29.7,1.4,29.9,1.1,29.9z"/>
	</g>
	<g>
		<path d="M26.9,29.9c-0.3,0-0.6-0.2-0.7-0.5l-0.6-1.7c-0.3-1-1.1-1.7-2.2-1.9L20,25c-0.4-0.1-0.7-0.5-0.6-0.9
			c0.1-0.4,0.5-0.7,0.9-0.6l3.5,0.8c1.5,0.3,2.8,1.5,3.2,2.9l0.6,1.7c0.1,0.4-0.1,0.8-0.5,0.9C27.1,29.9,27,29.9,26.9,29.9z"/>
	</g>
</g>
</svg>
