<?xml version="1.0" encoding="utf-8"?>
<!-- Generator: Adobe Illustrator 19.1.0, SVG Export Plug-In . SVG Version: 6.00 Build 0)  -->
<svg version="1.1" baseProfile="basic" id="Layer_2"
	 xmlns="http://www.w3.org/2000/svg" xmlns:xlink="http://www.w3.org/1999/xlink" x="0px" y="0px" viewBox="0 0 24 34"
	 xml:space="preserve">
<g>
	<g>
		<path d="M23,14.7H1c-0.4,0-0.7-0.3-0.7-0.7v-2.5c0-0.4,0.3-0.7,0.7-0.7s0.7,0.3,0.7,0.7v1.8h20.5v-1.8c0-0.4,0.3-0.7,0.7-0.7
			c0.4,0,0.7,0.3,0.7,0.7v2.5C23.8,14.3,23.4,14.7,23,14.7z"/>
	</g>
	<g>
		<path d="M12,9.5c-0.2,0-0.4-0.1-0.5-0.2l-5-5C6.2,4,6.2,3.5,6.5,3.2c0.3-0.3,0.8-0.3,1.1,0L12,7.7l4.4-4.4c0.3-0.3,0.8-0.3,1.1,0
			s0.3,0.8,0,1.1l-4.9,4.9C12.4,9.4,12.2,9.5,12,9.5z"/>
	</g>
	<g>
		<path d="M12,9.5c-0.4,0-0.7-0.3-0.7-0.7v-8C11.3,0.3,11.6,0,12,0c0.4,0,0.7,0.3,0.7,0.7v8C12.8,9.1,12.4,9.5,12,9.5z"/>
	</g>
	<g>
		<path d="M23,23.3c-0.4,0-0.7-0.3-0.7-0.7v-1.8H1.7v1.8c0,0.4-0.3,0.7-0.7,0.7S0.2,23,0.2,22.6v-2.5c0-0.4,0.3-0.7,0.7-0.7h22
			c0.4,0,0.7,0.3,0.7,0.7v2.5C23.8,23,23.4,23.3,23,23.3z"/>
	</g>
	<g>
		<path d="M17,31c-0.2,0-0.4-0.1-0.5-0.2L12,26.3l-4.4,4.4c-0.3,0.3-0.8,0.3-1.1,0c-0.3-0.3-0.3-0.8,0-1.1l4.9-4.9
			c0.3-0.3,0.8-0.3,1.1,0l5,5c0.3,0.3,0.3,0.8,0,1.1C17.4,31,17.2,31,17,31z"/>
	</g>
	<g>
		<path d="M12,34c-0.4,0-0.7-0.3-0.7-0.7v-8c0-0.4,0.3-0.7,0.7-0.7c0.4,0,0.7,0.3,0.7,0.7v8C12.7,33.7,12.4,34,12,34z"/>
	</g>
</g>
</svg>
