<?xml version="1.0" encoding="utf-8"?>
<!-- Generator: Adobe Illustrator 19.1.0, SVG Export Plug-In . SVG Version: 6.00 Build 0)  -->
<svg version="1.1" baseProfile="basic" id="Layer_2"
	 xmlns="http://www.w3.org/2000/svg" xmlns:xlink="http://www.w3.org/1999/xlink" x="0px" y="0px" viewBox="0 0 24 30"
	 xml:space="preserve">
<g>
	<g>
		<path d="M23,29.7H1c-0.4,0-0.8-0.3-0.8-0.8v-2.5c0-0.4,0.3-0.8,0.8-0.8s0.8,0.3,0.8,0.8v1.8h20.6v-1.8c0-0.4,0.3-0.8,0.8-0.8
			s0.8,0.3,0.8,0.8v2.5C23.8,29.4,23.5,29.7,23,29.7z"/>
	</g>
	<g>
		<path d="M16.9,11.2c-0.2,0-0.4-0.1-0.5-0.2l-4.5-4.5l-4.4,4.4c-0.3,0.3-0.8,0.3-1.1,0s-0.3-0.8,0-1.1l4.9-4.9
			c0.3-0.3,0.8-0.3,1.1,0l5,5c0.3,0.3,0.3,0.8,0,1.1C17.3,11.1,17.1,11.2,16.9,11.2z"/>
	</g>
	<g>
		<path d="M11.9,14.2c-0.4,0-0.8-0.3-0.8-0.8v-8c0-0.4,0.3-0.8,0.8-0.8s0.8,0.3,0.8,0.8v8C12.7,13.8,12.3,14.2,11.9,14.2z"/>
	</g>
	<g>
		<path d="M23,4.3c-0.4,0-0.8-0.3-0.8-0.8V1.8H1.7v1.8C1.7,4,1.4,4.3,1,4.3S0.2,4,0.2,3.6V1.1c0-0.4,0.3-0.8,0.8-0.8H23
			c0.4,0,0.8,0.3,0.8,0.8v2.5C23.8,4,23.5,4.3,23,4.3z"/>
	</g>
	<g>
		<path d="M12.1,25.3c-0.2,0-0.4-0.1-0.5-0.2l-5-5c-0.3-0.3-0.3-0.8,0-1.1s0.8-0.3,1.1,0l4.5,4.5l4.4-4.4c0.3-0.3,0.8-0.3,1.1,0
			s0.3,0.8,0,1.1l-4.9,4.9C12.5,25.2,12.3,25.3,12.1,25.3z"/>
	</g>
	<g>
		<path d="M12.1,25.3c-0.4,0-0.8-0.3-0.8-0.8v-8c0-0.4,0.3-0.8,0.8-0.8s0.8,0.3,0.8,0.8v8C12.8,25,12.5,25.3,12.1,25.3z"/>
	</g>
</g>
</svg>
