<?xml version="1.0" encoding="utf-8"?>
<!-- Generator: Adobe Illustrator 19.1.0, SVG Export Plug-In . SVG Version: 6.00 Build 0)  -->
<svg version="1.1" baseProfile="basic" id="Isolation_Mode"
	 xmlns="http://www.w3.org/2000/svg" xmlns:xlink="http://www.w3.org/1999/xlink" x="0px" y="0px" viewBox="0 0 32 28"
	 xml:space="preserve">
<g>
	<path d="M24.4,21.2c-0.5,0-1.1,0.2-1.4,0.6c-0.4,0.4-0.6,0.9-0.6,1.4c0,0.5,0.2,1.1,0.6,1.4c0.4,0.4,0.9,0.6,1.4,0.6c0,0,0,0,0,0
		c0.5,0,1.1-0.2,1.4-0.6c0.4-0.4,0.6-0.9,0.6-1.4c0-0.5-0.2-1.1-0.6-1.4C25.4,21.5,24.9,21.2,24.4,21.2
		C24.4,21.2,24.4,21.2,24.4,21.2z M25.1,23.3C25.1,23.3,25.1,23.3,25.1,23.3c0,0.2-0.1,0.4-0.2,0.5C24.8,24,24.6,24,24.4,24
		c0,0,0,0,0,0c-0.2,0-0.4-0.1-0.5-0.2c-0.1-0.1-0.2-0.3-0.2-0.5c0-0.2,0.1-0.4,0.2-0.5c0.1-0.1,0.4-0.2,0.5-0.2
		c0.2,0,0.4,0.1,0.5,0.2C25,22.9,25.1,23.1,25.1,23.3z"/>
	<path d="M31,0H17.8c-0.4,0-0.6,0.3-0.6,0.6V13c0,0.4,0.3,0.6,0.6,0.6H19c0.1,0,0.2,0,0.3-0.1c1-0.4,2.1-0.7,3.2-0.8
		c-0.1,2.8-0.5,6.4-1.3,7.1c0,0,0,0-0.1,0.1c-0.9,0.9-1.4,2.1-1.4,3.4c0,1.2,0.5,2.4,1.4,3.3c0.9,0.9,2,1.3,3.3,1.3c0,0,0,0,0,0
		c2.6,0,4.7-2.1,4.6-4.7c0-1.3-0.5-2.5-1.4-3.3c0,0,0,0-0.1-0.1c-0.7-0.7-1.2-4.3-1.3-7c1.2,0.1,2.3,0.4,3.2,0.8
		c0.1,0,0.2,0.1,0.3,0.1H31c0.4,0,0.6-0.3,0.6-0.6V0.7C31.7,0.3,31.4,0,31,0z M18.4,4.7h11.9v1.5H18.4V4.7z M30.4,1.3v2.1H18.4V1.3
		H30.4z M26.7,20.8c0.7,0.6,1.1,1.5,1.1,2.5c0,1.9-1.5,3.4-3.3,3.4c0,0,0,0,0,0c-0.9,0-1.7-0.3-2.4-1c-0.6-0.6-1-1.5-1-2.4
		c0-0.9,0.4-1.8,1.1-2.5c0,0,0.1-0.1,0.1-0.1c1.2-1.3,1.5-6.1,1.6-8H25C25,14.7,25.4,19.4,26.7,20.8C26.6,20.8,26.6,20.8,26.7,20.8z
		 M29.9,12.4c-3.2-1.3-7.8-1.3-11,0h-0.5V7.5h11.9v4.9H29.9z"/>
	<path d="M7.6,21.2c-0.5,0-1.1,0.2-1.4,0.6c-0.4,0.4-0.6,0.9-0.6,1.4c0,0.5,0.2,1.1,0.6,1.4c0.4,0.4,0.9,0.6,1.4,0.6c0,0,0,0,0,0
		c1.1,0,2-0.9,2-2.1c0-0.5-0.2-1.1-0.6-1.4C8.7,21.5,8.2,21.2,7.6,21.2C7.6,21.2,7.6,21.2,7.6,21.2z M8.4,23.3
		C8.4,23.3,8.4,23.3,8.4,23.3c0,0.2-0.1,0.4-0.2,0.5C8,24,7.8,24,7.6,24c0,0,0,0,0,0c-0.2,0-0.4-0.1-0.5-0.2
		c-0.1-0.1-0.2-0.3-0.2-0.5c0-0.2,0.1-0.4,0.2-0.5c0.1-0.1,0.3-0.2,0.5-0.2c0.2,0,0.4,0.1,0.5,0.2C8.3,22.9,8.4,23.1,8.4,23.3z"/>
	<path d="M14.2,3.8H1c-0.4,0-0.6,0.3-0.6,0.6v12.3c0,0.4,0.3,0.6,0.6,0.6h1.2c0.1,0,0.2,0,0.3-0.1c0.9-0.4,2-0.7,3.1-0.8
		c-0.1,1.1-0.5,2.6-1.2,3.3c0,0,0,0-0.1,0.1c-0.9,0.9-1.4,2.1-1.4,3.4c0,1.2,0.5,2.4,1.4,3.3c0.9,0.9,2,1.3,3.3,1.3c0,0,0,0,0,0
		c2.6,0,4.7-2.1,4.6-4.7c0-1.3-0.5-2.5-1.4-3.3c0,0,0,0-0.1-0.1c-0.7-0.7-1.1-2.3-1.2-3.3c1.1,0.2,2.2,0.4,3.2,0.8
		c0.1,0,0.2,0.1,0.3,0.1h1.2c0.4,0,0.6-0.3,0.6-0.6V4.4C14.9,4.1,14.6,3.8,14.2,3.8z M1.6,8.5h11.9V10H1.6V8.5z M13.6,5.1v2.1H1.6
		V5.1H13.6z M9.9,20.8c0.7,0.6,1.1,1.5,1.1,2.5c0,1.9-1.5,3.4-3.3,3.4c0,0,0,0,0,0c-0.9,0-1.7-0.3-2.4-1c-0.6-0.6-1-1.5-1-2.4
		c0-0.9,0.4-1.8,1.1-2.5c0,0,0,0,0.1-0.1c1.1-1.1,1.5-3.2,1.6-4.3h1.3C8.4,17.6,8.7,19.7,9.9,20.8C9.8,20.8,9.9,20.8,9.9,20.8z
		 M13.1,16.1c-3.2-1.3-7.8-1.3-11,0H1.6v-4.9h11.9v4.9H13.1z"/>
</g>
</svg>
