<?xml version="1.0" encoding="utf-8"?>
<!-- Generator: Adobe Illustrator 19.1.0, SVG Export Plug-In . SVG Version: 6.00 Build 0)  -->
<svg version="1.1" baseProfile="basic" id="Layer_1"
	 xmlns="http://www.w3.org/2000/svg" xmlns:xlink="http://www.w3.org/1999/xlink" x="0px" y="0px" viewBox="0 0 32 30"
	 xml:space="preserve">
<g>
	<path d="M15.9,29.9c-2.2,0-4-1.8-4-4c0-1.5,0.8-2.8,2.1-3.5v-5.6h-8v5.7c1.3,0.7,2,2,2,3.5c0,2.2-1.8,4-4,4c-2.2,0-4-1.8-4-4 c0-1.5,0.8-2.8,2.1-3.5V7.6c-1.3-0.7-2.1-2-2.1-3.5c0-2.2,1.8-4,4-4c2.2,0,4,1.8,4,4c0,1.5-0.8,2.8-2,3.5V13h8V7.6 c-1.3-0.7-2.1-2-2.1-3.5c0-2.2,1.8-4,4-4c2.2,0,4,1.8,4,4c0,1.4-0.8,2.7-2,3.4V13h8V7.6c-1.3-0.7-2.1-2-2.1-3.5c0-2.2,1.8-4,4-4 s4,1.8,4,4c0,1.5-0.8,2.8-2.1,3.5v9.3H17.9v5.7c1.2,0.7,2,2,2,3.4C19.9,28.1,18.1,29.9,15.9,29.9z M4.7,15.3h11v8.1l-0.5,0.2 c-1,0.3-1.6,1.3-1.6,2.3c0,1.4,1.1,2.5,2.5,2.5s2.5-1.1,2.5-2.5c0-1-0.6-1.9-1.5-2.3l-0.5-0.2v-8.1h11.8V6.6l0.5-0.2 c1-0.4,1.6-1.3,1.6-2.3c0-1.4-1.1-2.5-2.5-2.5s-2.5,1.1-2.5,2.5c0,1,0.6,1.9,1.6,2.3l0.5,0.2v8h-11v-8l0.5-0.2 c0.9-0.4,1.5-1.3,1.5-2.3c0-1.4-1.1-2.5-2.5-2.5s-2.5,1.1-2.5,2.5c0,1,0.7,2,1.6,2.3l0.5,0.2v8h-11v-8l0.5-0.2 C6.1,6,6.7,5.1,6.7,4.1c0-1.4-1.1-2.5-2.5-2.5S1.8,2.7,1.8,4.1c0,1,0.7,2,1.6,2.3l0.5,0.2v16.9l-0.5,0.2c-1,0.4-1.6,1.3-1.6,2.3 c0,1.4,1.1,2.5,2.5,2.5s2.5-1.1,2.5-2.5c0-1-0.6-1.9-1.6-2.3l-0.5-0.2V15.3z" />
</g>
</svg>
