<?xml version="1.0" encoding="utf-8"?>
<!-- Generator: Adobe Illustrator 19.1.0, SVG Export Plug-In . SVG Version: 6.00 Build 0)  -->
<svg version="1.1" baseProfile="basic" id="Isolation_Mode"
	 xmlns="http://www.w3.org/2000/svg" xmlns:xlink="http://www.w3.org/1999/xlink" x="0px" y="0px" viewBox="0 0 21 24"
	 xml:space="preserve">
<path d="M20.5,16.9l-2.6-1.4l2.5-1.4c0.3-0.2,0.4-0.6,0.2-0.9c-0.2-0.3-0.6-0.4-0.9-0.2l-3.1,1.8L16,14.4l1.2-2.1
	c0.1-0.2,0.1-0.4,0-0.6L16,9.6l0.6-0.4l3.2,1.7c0.1,0.1,0.2,0.1,0.3,0.1c0.2,0,0.5-0.1,0.6-0.3c0.2-0.3,0.1-0.7-0.3-0.9l-2.5-1.4
	L20.4,7c0.3-0.2,0.4-0.6,0.2-0.9c-0.2-0.3-0.6-0.4-0.9-0.2l-2.5,1.5l0-2.8c0-0.4-0.3-0.7-0.6-0.7c-0.4,0-0.7,0.3-0.7,0.6l-0.1,3.6
	l-0.6,0.4l-1.2-2.1c-0.1-0.2-0.3-0.3-0.6-0.3h-2.4V5.4l3.1-1.9c0.3-0.2,0.4-0.6,0.2-0.9c-0.2-0.3-0.6-0.4-0.9-0.2l-2.4,1.5V0.9
	c0-0.4-0.3-0.6-0.7-0.6S9.8,0.5,9.8,0.9v2.9L7.4,2.4C7.1,2.2,6.7,2.3,6.5,2.6C6.3,2.9,6.4,3.3,6.7,3.5l3.1,1.9v0.7H7.5
	C7.2,6.1,7,6.2,6.9,6.4L5.7,8.5L5,8.1L4.9,4.5c0-0.4-0.3-0.6-0.7-0.6c-0.4,0-0.6,0.3-0.6,0.7l0.1,2.8L1.2,5.9
	C0.8,5.8,0.5,5.9,0.3,6.2C0.1,6.5,0.2,6.9,0.5,7.1l2.6,1.4L0.6,9.9c-0.3,0.2-0.4,0.6-0.2,0.9C0.5,11,0.7,11.1,1,11.1
	c0.1,0,0.2,0,0.3-0.1l3.1-1.8L5,9.6l-1.2,2.1c-0.1,0.2-0.1,0.4,0,0.7L5,14.4l-0.6,0.4L1.3,13c-0.3-0.2-0.7-0.1-0.9,0.3
	c-0.2,0.3-0.1,0.7,0.3,0.9l2.5,1.4L0.6,17c-0.3,0.2-0.4,0.6-0.2,0.9c0.1,0.2,0.3,0.3,0.6,0.3c0.1,0,0.2,0,0.3-0.1l2.5-1.5l0,2.8
	c0,0.4,0.3,0.7,0.6,0.7c0,0,0,0,0,0c0.4,0,0.6-0.3,0.7-0.6l0.1-3.6l0.6-0.4l1.2,2.1c0.1,0.2,0.3,0.3,0.6,0.3h2.4v0.7l-3.1,1.9
	c-0.3,0.2-0.4,0.6-0.2,0.9c0.1,0.2,0.3,0.3,0.6,0.3c0.1,0,0.2,0,0.3-0.1l2.4-1.5v2.9c0,0.4,0.3,0.6,0.7,0.6s0.7-0.3,0.7-0.6v-2.9
	l2.4,1.5c0.1,0.1,0.2,0.1,0.3,0.1c0.2,0,0.4-0.1,0.6-0.3c0.2-0.3,0.1-0.7-0.2-0.9l-3.1-1.9v-0.7h2.4c0.2,0,0.4-0.1,0.6-0.3l1.2-2.1
	l0.6,0.4l0.1,3.6c0,0.4,0.3,0.6,0.6,0.6c0,0,0,0,0,0c0.4,0,0.6-0.3,0.6-0.7l-0.1-2.8l2.6,1.4c0.1,0.1,0.2,0.1,0.3,0.1
	c0.2,0,0.4-0.1,0.6-0.3C20.9,17.5,20.8,17.1,20.5,16.9z M15.8,12l-1,1.7l-0.8-0.4v-2.6l0.8-0.4L15.8,12z M13.2,7.4l1,1.7l-0.8,0.4
	l-2.3-1.3V7.4H13.2z M10.5,14.6l-2.3-1.3v-2.6l2.3-1.3l2.3,1.3v2.6L10.5,14.6z M7.8,7.4h2v0.9L7.6,9.6L6.8,9.1L7.8,7.4z M5.2,12
	l1-1.7l0.8,0.4v2.6l-0.8,0.4L5.2,12z M7.8,16.6l-1-1.7l0.8-0.4l2.2,1.3v0.9H7.8z M13.2,16.6h-2.1v-0.9l2.3-1.3l0.8,0.4L13.2,16.6z"
	/>
</svg>
