<?xml version="1.0" encoding="utf-8"?>
<!-- Generator: Adobe Illustrator 19.1.0, SVG Export Plug-In . SVG Version: 6.00 Build 0)  -->
<svg version="1.1" baseProfile="basic" id="Isolation_Mode"
	 xmlns="http://www.w3.org/2000/svg" xmlns:xlink="http://www.w3.org/1999/xlink" x="0px" y="0px" viewBox="0 0 28 28"
	 xml:space="preserve">
<g>
	<path d="M26.7,1.3c-1.6-1.6-4.1-1.6-5.7,0c-0.7,0.7-1.1,1.6-1.2,2.6c-1,0.1-1.9,0.5-2.6,1.2l-2.1,2.1l5.6,5.6l2.1-2.1
		c0.7-0.7,1.1-1.6,1.2-2.6c1,0,1.9-0.5,2.6-1.2c0.8-0.8,1.2-1.8,1.2-2.8C27.9,3,27.5,2,26.7,1.3z M25.8,6c-0.6,0.6-1.4,0.9-2.3,0.8
		l-0.8-0.1l0.1,0.8c0.1,0.8-0.2,1.7-0.8,2.2l-1.1,1.1l-3.8-3.8L18.2,6c0.6-0.6,1.4-0.9,2.2-0.8l0.8,0.1l-0.1-0.8
		c-0.1-0.9,0.2-1.7,0.8-2.3c1.1-1.1,2.8-1.1,3.8,0c0.5,0.5,0.8,1.2,0.8,1.9S26.3,5.5,25.8,6z"/>
	<path d="M23,3.2c-0.5,0.5-0.5,1.3,0,1.8c0.2,0.2,0.6,0.4,0.9,0.4c0.3,0,0.7-0.1,0.9-0.4c0.2-0.2,0.4-0.6,0.4-0.9
		c0-0.3-0.1-0.7-0.4-0.9C24.3,2.7,23.5,2.7,23,3.2z M24.1,4.4c-0.1,0.1-0.4,0.1-0.5,0c-0.1-0.1-0.1-0.4,0-0.5
		c0.1-0.1,0.2-0.1,0.3-0.1c0.1,0,0.2,0,0.3,0.1c0.1,0.1,0.1,0.2,0.1,0.3C24.3,4.2,24.2,4.3,24.1,4.4z"/>
	<path d="M3.2,23c-0.5,0.5-0.5,1.3,0,1.8c0.2,0.2,0.6,0.4,0.9,0.4c0.3,0,0.6-0.1,0.9-0.4c0.5-0.5,0.5-1.3,0-1.8
		C4.5,22.5,3.7,22.5,3.2,23z M4.4,24.1c-0.1,0.1-0.4,0.1-0.5,0c-0.1-0.1-0.1-0.4,0-0.5c0.1-0.1,0.2-0.1,0.2-0.1c0.1,0,0.2,0,0.2,0.1
		C4.5,23.8,4.5,24,4.4,24.1z"/>
	<path d="M5.4,18.3c-0.5,0.4-0.7,1-0.8,1.6c-1.2-0.1-2.4,0.3-3.3,1.1c-1.6,1.6-1.6,4.1,0,5.7C2,27.5,3,27.9,4.1,27.9
		c1.1,0,2.1-0.4,2.8-1.2c0.9-0.9,1.3-2.1,1.1-3.3c0.6-0.1,1.2-0.4,1.7-0.9l2.5-2.5l-4.3-4.3L5.4,18.3z M8.8,21.7
		c-0.4,0.4-0.9,0.6-1.5,0.5l-1-0.1l0.3,1c0.3,1,0.1,2-0.6,2.8c-1,1-2.8,1-3.8,0c-1.1-1.1-1.1-2.8,0-3.8c0.5-0.5,1.2-0.8,1.9-0.8
		c0.3,0,0.6,0,0.9,0.1l1,0.3l-0.1-1c-0.1-0.5,0.1-1.1,0.5-1.4l1.6-1.6l2.5,2.5L8.8,21.7z"/>
	<path d="M17.4,16.7l-6.5-6.5c-0.8-0.8-0.8-2.1,0-3c0.8-0.8,2.1-0.8,3,0l6.5,6.5c0.8,0.8,0.8,2.1,0,3C19.6,17.5,18.3,17.5,17.4,16.7
		z M13,8.2c-0.3-0.3-0.8-0.3-1.1,0c-0.3,0.3-0.3,0.8,0,1.1l6.5,6.5c0.3,0.3,0.8,0.3,1.1,0c0.3-0.3,0.3-0.8,0-1.1L13,8.2z"/>
	<path d="M13.8,20.4l-6.5-6.5c-0.8-0.8-0.8-2.1,0-3c0.8-0.8,2.1-0.8,3,0l6.5,6.5c0.8,0.8,0.8,2.1,0,3C15.9,21.2,14.6,21.2,13.8,20.4
		z M9.3,11.8c-0.3-0.3-0.8-0.3-1.1,0c-0.3,0.3-0.3,0.8,0,1.1l6.5,6.5c0.3,0.3,0.8,0.3,1.1,0s0.3-0.8,0-1.1L9.3,11.8z"/>
</g>
</svg>
