<?xml version="1.0" encoding="utf-8"?>
<!-- Generator: Adobe Illustrator 19.1.0, SVG Export Plug-In . SVG Version: 6.00 Build 0)  -->
<svg version="1.1" baseProfile="basic" id="Layer_1"
	 xmlns="http://www.w3.org/2000/svg" xmlns:xlink="http://www.w3.org/1999/xlink" x="0px" y="0px" viewBox="0 0 60 60"
	 xml:space="preserve">
<g>
	<g>
		<path d="M44.5,59.2H3.3c-1.3,0-2.4-1.1-2.4-2.4V3.1c0-1.3,1.1-2.4,2.4-2.4h33c0.4,0,0.8,0.3,0.8,0.8v9h9.2c0.4,0,0.8,0.3,0.8,0.8
			v9.5c0,0.4-0.3,0.8-0.8,0.8s-0.8-0.3-0.8-0.8V12h-9.2c-0.4,0-0.8-0.3-0.8-0.8v-9H3.3c-0.5,0-0.9,0.4-0.9,0.9v53.7
			c0,0.5,0.4,0.9,0.9,0.9h41.2c0.5,0,0.9-0.4,0.9-0.9V54c0-0.4,0.3-0.8,0.8-0.8s0.8,0.3,0.8,0.8v2.8C46.9,58.2,45.8,59.2,44.5,59.2z
			"/>
	</g>
	<g>
		<path d="M54.1,49.4H25.5c-2.8,0-5-2.2-5-5V30.6c0-2.8,2.2-5,5-5h28.6c2.8,0,5,2.2,5,5v13.8C59.1,47.2,56.9,49.4,54.1,49.4z
			 M25.5,27.1c-1.9,0-3.5,1.6-3.5,3.5v13.8c0,1.9,1.6,3.5,3.5,3.5h28.6c1.9,0,3.5-1.6,3.5-3.5V30.6c0-1.9-1.6-3.5-3.5-3.5H25.5z"/>
	</g>
	<g>
		<path d="M46.1,12.1c-0.2,0-0.4-0.1-0.5-0.2L35.7,2c-0.3-0.3-0.3-0.8,0-1.1s0.8-0.3,1.1,0l9.8,9.8c0.3,0.3,0.3,0.8,0,1.1
			C46.5,12,46.3,12.1,46.1,12.1z"/>
	</g>
	<g>
		<path d="M31.5,38.7h-2.8c-0.6,0-1-0.4-1-1v-3.9c0-0.6,0.4-1,1-1h2.8c1.6,0,3,1.3,3,3S33.2,38.7,31.5,38.7z M29.8,36.7h1.8
			c0.5,0,1-0.4,1-1s-0.4-1-1-1h-1.8V36.7z"/>
	</g>
	<g>
		<path d="M28.8,42.4c-0.6,0-1-0.4-1-1v-3.6c0-0.6,0.4-1,1-1s1,0.4,1,1v3.6C29.8,41.9,29.3,42.4,28.8,42.4z"/>
	</g>
	<g>
		<path d="M39.1,42.4h-1.8c-0.6,0-1-0.4-1-1v-7.5c0-0.6,0.4-1,1-1h1.8c2.6,0,4.8,2.1,4.8,4.8C43.8,40.2,41.7,42.4,39.1,42.4z
			 M38.2,40.4h0.8c1.5,0,2.8-1.2,2.8-2.8c0-1.5-1.2-2.8-2.8-2.8h-0.8V40.4z"/>
	</g>
	<g>
		<path d="M46.7,42.4c-0.6,0-1-0.4-1-1v-7.5c0-0.6,0.4-1,1-1h5.2c0.6,0,1,0.4,1,1s-0.4,1-1,1h-4.2v6.5
			C47.7,41.9,47.2,42.4,46.7,42.4z"/>
	</g>
	<g>
		<path d="M50.9,38.6h-4.2c-0.6,0-1-0.4-1-1s0.4-1,1-1h4.2c0.6,0,1,0.4,1,1S51.4,38.6,50.9,38.6z"/>
	</g>
</g>
</svg>
