<?xml version="1.0" encoding="utf-8"?>
<!-- Generator: Adobe Illustrator 19.1.0, SVG Export Plug-In . SVG Version: 6.00 Build 0)  -->
<svg version="1.1" baseProfile="basic" id="Layer_1"
	 xmlns="http://www.w3.org/2000/svg" xmlns:xlink="http://www.w3.org/1999/xlink" x="0px" y="0px" viewBox="0 0 70 26"
	 xml:space="preserve">
<g>
	<path d="M69,18.6v-3.4c0-1.2-0.5-1.9-1.1-2.2V8.8c0-0.3-0.3-0.6-0.6-0.6c-1.2-0.1-1.7-0.3-2.8-0.6c-0.2-0.1-0.5-0.2-0.7-0.3
		C63.3,7,62,6.4,60.6,5.7c-2-1-4.4-2.3-6.2-2.9c-5.6-2-16.6-2.5-22.8-1.6c-7.1,1.1-14.1,5.7-15,6.4c-0.5,0.1-2.8,0.7-5.7,1.4
		C9.3,9.3,7.7,9.7,6.6,10l-0.9,0.2c-2.3,0.6-3.3,2.6-3.5,3.9C1.3,14.4,1,15.6,1,16.4v3.3c0,0.9,0.3,1.6,0.8,2.1
		c0.5,0.5,1.2,0.5,1.5,0.5c0.1,0,0.2,0,0.2,0h6c0.9,2.2,3,3.7,5.5,3.7s4.6-1.5,5.5-3.7H49c0.9,2.2,3,3.7,5.5,3.7
		c2.5,0,4.6-1.5,5.5-3.7l6.9-1.2C68.7,20.8,69.1,19.5,69,18.6z M66.7,12.9l-1.5,0c0-0.1,0-0.2,0.1-0.5c0.3-0.9,0.5-1.1,0.9-1.4
		c0.1-0.1,0.3-0.1,0.5-0.2V12.9z M6,11.5l0.9-0.2c1.1-0.3,2.7-0.7,4.3-1C14.5,9.4,17,8.8,17,8.7c0.1,0,0.1-0.1,0.2-0.1
		c0.1-0.1,7.3-5.1,14.6-6.2C37.7,1.6,48.6,2,53.9,3.9c1.8,0.6,4.2,1.9,6.1,2.9c1.5,0.8,2.7,1.4,3.4,1.6c0.3,0.1,0.5,0.2,0.7,0.3
		c0.9,0.3,1.5,0.6,2.5,0.7v0.1c-0.4,0-0.8,0.2-1.2,0.4c-0.7,0.5-1.1,1-1.4,2.1c-0.2,0.8-0.2,1.3,0.1,1.7c0.2,0.3,0.6,0.5,1,0.5h2.2
		c0,0,0,0,0.1,0c0.2,0.1,0.4,0.4,0.4,1v3.3c-2.5,0-5,0-7.4-0.1c-0.7-2.5-3-4.4-5.7-4.4c-2.7,0-5,1.8-5.7,4.3c-9,0-18.4,0-28,0.1
		c-0.7-2.5-3-4.4-5.8-4.4c-2.8,0-5.1,1.9-5.8,4.5c0,0,0,0-0.1,0H6c0-0.1,0-0.2,0-0.3c0-1.1-0.9-1.6-1.8-1.6h-2l0-0.1
		c0-0.3,0.2-1.2,0.5-1.2h3.5c0.2,0,0.3-0.1,0.5-0.2l1.9-2c0.2-0.2,0.2-0.4,0.2-0.6c-0.1-0.2-0.2-0.4-0.5-0.5c0,0-1.2-0.3-2.8-0.3
		c0,0,0,0,0,0c-0.1,0-0.1,0-0.1,0C5.5,11.6,5.7,11.5,6,11.5z M2.3,18.5l0-0.7h2c0.2,0,0.5,0,0.5,0.3c0,0.1-0.3,0.3-0.6,0.3H2.3z
		 M3.6,13.6c0.3-0.2,1-0.6,1.8-0.6c0,0,0,0,0,0c0.5,0,1,0,1.3,0.1L5.9,14H3.5C3.6,13.8,3.6,13.7,3.6,13.6z M3.5,21
		C3.5,21,3.5,21,3.5,21c-0.1,0-0.6,0.1-0.9-0.2c-0.2-0.2-0.3-0.5-0.4-1h6.8c0,0.1,0,0.1,0,0.2c0,0.3,0,0.7,0.1,1H3.5z M15,24.7
		c-2.6,0-4.7-2.1-4.7-4.7c0-2.6,2.1-4.7,4.7-4.7c2.6,0,4.7,2.1,4.7,4.7c0,0.4-0.1,0.9-0.2,1.3c-0.1,0.1-0.1,0.2-0.1,0.4c0,0,0,0,0,0
		C18.7,23.4,17,24.7,15,24.7z M20.9,21c0.1-0.3,0.1-0.7,0.1-1c0-0.1,0-0.2,0-0.3c9.5-0.1,18.8-0.1,27.6-0.1c0,0.1,0,0.2,0,0.3
		c0,0.3,0,0.7,0.1,1H20.9z M54.6,24.7c-2.6,0-4.7-2.1-4.7-4.7c0-2.6,2.1-4.7,4.7-4.7c2.6,0,4.7,2.1,4.7,4.7c0,0.5-0.1,0.9-0.2,1.3
		c0,0,0,0.1,0,0.1C58.4,23.4,56.6,24.7,54.6,24.7z M60.5,20.9c0-0.3,0.1-0.6,0.1-0.9c0-0.1,0-0.2,0-0.3c2.1,0,4.3,0,6.4,0.1
		c0,0-0.1,0-0.1,0L60.5,20.9z"/>
	<path d="M35.5,9.8c-0.4,0-0.6,0.3-0.6,0.6v6c0,0.4,0.3,0.6,0.6,0.6c0.4,0,0.6-0.3,0.6-0.6v-6C36.1,10.1,35.8,9.8,35.5,9.8z"/>
	<path d="M50.6,9.1c-0.4,0-0.6,0.3-0.6,0.6v2.9c-0.8,0.3-2.2,1.3-3.3,3.6c-0.1,0.3,0,0.7,0.3,0.9c0.1,0,0.2,0.1,0.3,0.1
		c0.2,0,0.5-0.1,0.6-0.4c1.1-2.5,2.8-3,2.9-3c0.3-0.1,0.5-0.3,0.5-0.6V9.7C51.2,9.4,51,9.1,50.6,9.1z"/>
	<path d="M17,12.4c0.1,0.1,0.2,0.1,0.3,0.1c0.2,0,0.5-0.1,0.6-0.3c0.7-1.4,1.5-2.2,1.8-2.5c1.8-0.1,14.5-1,19.4-1.2
		C44.3,8.2,57.9,8,58,8c0.4,0,0.6-0.3,0.6-0.7c0-0.4-0.3-0.6-0.6-0.6c0,0,0,0,0,0c-0.1,0-3,0-6.7,0.1V4c0-0.4-0.3-0.6-0.6-0.6
		S50.1,3.6,50.1,4v2.8C46.1,6.9,41.5,7,39,7.1c-0.8,0-1.8,0.1-2.9,0.1V2.9c0-0.4-0.3-0.6-0.6-0.6c-0.4,0-0.6,0.3-0.6,0.6v4.4
		c-6.3,0.4-15.4,1-15.5,1c0,0,0,0-0.1,0c0,0-0.1,0-0.1,0c0,0-0.1,0-0.1,0.1c0,0,0,0-0.1,0c0,0-1.2,1-2.3,3
		C16.5,11.8,16.7,12.2,17,12.4z"/>
	<path d="M15,17C13.3,17,12,18.3,12,20c0,1.7,1.4,3.1,3.1,3.1c1.7,0,3.1-1.4,3.1-3.1C18.1,18.3,16.7,17,15,17z M15,21.8
		c-1,0-1.8-0.8-1.8-1.8c0-1,0.8-1.8,1.8-1.8c1,0,1.8,0.8,1.8,1.8C16.8,21,16,21.8,15,21.8z"/>
	<path d="M54.6,17c-1.7,0-3.1,1.4-3.1,3.1c0,1.7,1.4,3.1,3.1,3.1c1.7,0,3.1-1.4,3.1-3.1C57.6,18.3,56.3,17,54.6,17z M54.6,21.8
		c-1,0-1.8-0.8-1.8-1.8c0-1,0.8-1.8,1.8-1.8c1,0,1.8,0.8,1.8,1.8C56.3,21,55.5,21.8,54.6,21.8z"/>
</g>
</svg>
