<?xml version="1.0" encoding="utf-8"?>
<!-- Generator: Adobe Illustrator 19.1.0, SVG Export Plug-In . SVG Version: 6.00 Build 0)  -->
<svg version="1.1" baseProfile="basic" id="Layer_2"
	 xmlns="http://www.w3.org/2000/svg" xmlns:xlink="http://www.w3.org/1999/xlink" x="0px" y="0px" viewBox="0 0 40 30"
	 xml:space="preserve">
<g>
	<g>
		<path d="M22.1,29.5h-4.3c-1,0-1.9-0.4-2.5-1c-0.4-0.4-0.9-0.6-1.5-0.6H1.7c-0.9,0-1.6-0.7-1.6-1.6V4.6C0.2,3.7,0.9,3,1.7,3h0.8
			C3,3,3.3,3.4,3.3,3.8S3,4.5,2.6,4.5H1.7c0,0-0.1,0-0.1,0.1v21.6c0,0,0,0.1,0.1,0.1h12.1c1,0,1.9,0.4,2.5,1
			c0.4,0.4,0.9,0.6,1.5,0.6h4.3c0.6,0,1.1-0.2,1.5-0.6c0.7-0.7,1.6-1,2.5-1h12.1c0,0,0.1,0,0.1-0.1V4.6c0,0,0-0.1-0.1-0.1h-0.8
			c-0.4,0-0.8-0.3-0.8-0.8S37,3,37.4,3h0.8c0.9,0,1.6,0.7,1.6,1.6v21.6c0,0.9-0.7,1.6-1.6,1.6H26.2c-0.6,0-1.1,0.2-1.5,0.6
			C24,29.1,23.1,29.5,22.1,29.5z"/>
	</g>
	<g>
		<path d="M20.8,26.1H18l-0.2-0.3c-0.4-0.5-1.2-1.4-2.7-1.4H3.5V0.5H15c3.4,0,5.7,2.3,5.7,5.7V26.1z M18.7,24.6h0.6V6.3
			c0-2-1.1-4.2-4.2-4.2H5V23h10C16.9,23,18.1,23.9,18.7,24.6z"/>
	</g>
	<g>
		<path d="M22.1,26.1h-2.9V6.3c0-3.4,2.3-5.7,5.7-5.7h11.5v23.9H25c-1.4,0-2.2,0.4-2.7,1.3L22.1,26.1z M20.8,24.6h0.5
			c1-1.5,2.6-1.7,3.7-1.7h10V2H25c-3.1,0-4.2,2.2-4.2,4.2V24.6z"/>
	</g>
	<g>
		<path d="M16.7,7H7.5C7.1,7,6.8,6.7,6.8,6.3s0.3-0.8,0.8-0.8h9.1c0.4,0,0.8,0.3,0.8,0.8S17.1,7,16.7,7z"/>
	</g>
	<g>
		<path d="M16.7,10.4H7.5c-0.4,0-0.8-0.3-0.8-0.8s0.3-0.8,0.8-0.8h9.1c0.4,0,0.8,0.3,0.8,0.8S17.1,10.4,16.7,10.4z"/>
	</g>
	<g>
		<path d="M16.7,13.7H7.5c-0.4,0-0.8-0.3-0.8-0.8s0.3-0.8,0.8-0.8h9.1c0.4,0,0.8,0.3,0.8,0.8S17.1,13.7,16.7,13.7z"/>
	</g>
	<g>
		<path d="M16.7,17H7.5c-0.4,0-0.8-0.3-0.8-0.8s0.3-0.8,0.8-0.8h9.1c0.4,0,0.8,0.3,0.8,0.8S17.1,17,16.7,17z"/>
	</g>
	<g>
		<path d="M16.7,20.3H7.5c-0.4,0-0.8-0.3-0.8-0.8s0.3-0.8,0.8-0.8h9.1c0.4,0,0.8,0.3,0.8,0.8S17.1,20.3,16.7,20.3z"/>
	</g>
	<g>
		<path d="M32.5,7h-9.1c-0.4,0-0.8-0.3-0.8-0.8s0.3-0.8,0.8-0.8h9.1c0.4,0,0.8,0.3,0.8,0.8S32.9,7,32.5,7z"/>
	</g>
	<g>
		<path d="M32.5,10.4h-9.1c-0.4,0-0.8-0.3-0.8-0.8s0.3-0.8,0.8-0.8h9.1c0.4,0,0.8,0.3,0.8,0.8S32.9,10.4,32.5,10.4z"/>
	</g>
	<g>
		<path d="M32.5,13.7h-9.1c-0.4,0-0.8-0.3-0.8-0.8s0.3-0.8,0.8-0.8h9.1c0.4,0,0.8,0.3,0.8,0.8S32.9,13.7,32.5,13.7z"/>
	</g>
	<g>
		<path d="M32.5,17h-9.1c-0.4,0-0.8-0.3-0.8-0.8s0.3-0.8,0.8-0.8h9.1c0.4,0,0.8,0.3,0.8,0.8S32.9,17,32.5,17z"/>
	</g>
	<g>
		<path d="M32.5,20.3h-9.1c-0.4,0-0.8-0.3-0.8-0.8s0.3-0.8,0.8-0.8h9.1c0.4,0,0.8,0.3,0.8,0.8S32.9,20.3,32.5,20.3z"/>
	</g>
</g>
</svg>
