<?xml version="1.0" encoding="utf-8"?>
<!-- Generator: Adobe Illustrator 19.1.0, SVG Export Plug-In . SVG Version: 6.00 Build 0)  -->
<svg version="1.1" baseProfile="basic" id="Layer_1"
	 xmlns="http://www.w3.org/2000/svg" xmlns:xlink="http://www.w3.org/1999/xlink" x="0px" y="0px" viewBox="0 0 38 23"
	 xml:space="preserve">
<g>
	<path d="M0,17c0,3.3,2.7,6,6,6s6-2.7,6-6s-2.7-6-6-6S0,13.7,0,17z M1.3,17c0-2.6,2.1-4.8,4.8-4.8s4.8,2.1,4.8,4.8S8.6,21.8,6,21.8
		S1.3,19.7,1.3,17z"/>
	<path d="M2.9,17c0,1.7,1.4,3.1,3.1,3.1c1.7,0,3.1-1.4,3.1-3.1c0-1.7-1.4-3.1-3.1-3.1C4.3,13.9,2.9,15.3,2.9,17z M4.1,17
		c0-1,0.8-1.9,1.9-1.9c1,0,1.9,0.8,1.9,1.9c0,1-0.8,1.9-1.9,1.9C5,18.9,4.1,18.1,4.1,17z"/>
	<path d="M24.8,17c0,3.3,2.7,6,6,6c3.3,0,6-2.7,6-6s-2.7-6-6-6C27.5,11.1,24.8,13.7,24.8,17z M26,17c0-2.6,2.1-4.8,4.8-4.8
		c2.6,0,4.8,2.1,4.8,4.8s-2.1,4.8-4.8,4.8C28.2,21.8,26,19.7,26,17z"/>
	<path d="M27.7,17c0,1.7,1.4,3.1,3.1,3.1c1.7,0,3.1-1.4,3.1-3.1c0-1.7-1.4-3.1-3.1-3.1C29.1,13.9,27.7,15.3,27.7,17z M28.9,17
		c0-1,0.8-1.9,1.9-1.9c1,0,1.9,0.8,1.9,1.9c0,1-0.8,1.9-1.9,1.9C29.7,18.9,28.9,18.1,28.9,17z"/>
	<path d="M12.7,19.6c-0.1,0.2,0,0.4,0.1,0.6c0.1,0.2,0.3,0.3,0.5,0.3h7.9c0.2,0,0.5-0.2,0.6-0.4l3.3-8.3l10.3-4.8
		c0.1-0.1,0.2-0.2,0.3-0.3l2.3-4.4C38,2.1,38,2,37.9,1.8c-0.1-0.2-0.2-0.3-0.4-0.3c0,0-0.4-0.1-0.9-0.1c-0.7,0-2,0.2-3,1.7l-5.2,0.8
		c-0.2,0-0.3,0.1-0.4,0.3l-1.2,2.2l-5.3,1.6l-0.2-0.8C20.9,5.6,19.4,4,17.2,4c-0.2,0-0.5,0-0.7,0.1c0,0,0,0,0,0l-3.2,0.7
		c-0.1,0-0.2,0.1-0.2,0.1l-2.4,1.8l-0.3-1.4l1.5-1.6C11.9,3.5,12,3.4,12,3.2c0-0.2-0.1-0.3-0.2-0.4L8.9,0.4C8.7,0.2,8.4,0.2,8.2,0.3
		C8,0.4,3.5,2.4,2.1,6.5C2,6.7,2.1,6.9,2.2,7.1c1.5,2,2.3,2.6,2.3,2.6c0.1,0,0.1,0.1,0.2,0.1l0.2,0.1c0.1,0,0.2,0,0.2,0
		c0.3,0,0.6-0.1,0.8-0.1c1.7,0,3.3,0.6,4.6,1.6c0.8,0.7,1.5,1.5,1.9,2.5c0,0,0,0,0,0c0.4,0.9,0.7,2,0.7,3.1
		C13.2,17.9,13,18.8,12.7,19.6z M9.2,4.6C9.1,4.8,9,5,9,5.2l1,4.5c-1.2-0.7-2.6-1-4-1c-0.3,0-0.6,0-0.8,0C4.9,8.5,4.3,7.9,3.4,6.6
		c1.1-2.8,4.1-4.5,5-5.1l2.1,1.7L9.2,4.6z M20.3,8.2l-3.9,1.2l-4.9-1.8l2.2-1.6l3-0.7c0.2,0,0.4,0,0.5,0c1.7,0,2.7,1.4,2.9,2.2
		c0,0,0,0,0,0L20.3,8.2z M14.1,19.2c0.2-0.6,0.3-1.2,0.3-1.8h2.7c0.3,0,0.6-0.3,0.6-0.6c0-0.3-0.3-0.6-0.6-0.6h-2.7
		c-0.1-0.6-0.2-1.2-0.4-1.8h5.7c0.3,0,0.6-0.3,0.6-0.6c0-0.3-0.3-0.6-0.6-0.6h-6.2c-0.5-0.9-1.1-1.7-1.9-2.4l-0.5-2l5.1,1.9
		c0.1,0,0.3,0.1,0.4,0l10.8-3.2c0.2,0,0.3-0.1,0.4-0.3L28.9,5l5.2-0.8c0.2,0,0.3-0.1,0.4-0.3c0.5-0.8,1.1-1.3,1.9-1.3l-1.8,3.4
		l-10.3,4.8C24.2,10.8,24,10.9,24,11l-3.2,8.2H14.1z"/>
</g>
</svg>
