<?xml version="1.0" encoding="utf-8"?>
<!-- Generator: Adobe Illustrator 19.1.0, SVG Export Plug-In . SVG Version: 6.00 Build 0)  -->
<svg version="1.1" baseProfile="basic" id="Layer_2"
	 xmlns="http://www.w3.org/2000/svg" xmlns:xlink="http://www.w3.org/1999/xlink" x="0px" y="0px" viewBox="0 0 28 26"
	 xml:space="preserve">
<g>
	<path d="M19.9,25.8c-0.3,0-0.7-0.1-0.9-0.3l-4.1-4.1c-0.5-0.5-0.9-1.3-1.4-2.1c-0.8-1.3-1.6-2.9-2.8-3.5c0,0-0.1,0-0.2,0L10,15.9
		c-0.6,0.2-1.4,0.1-1.8-0.4l-0.7-0.7c-0.3-0.3-0.3-0.8,0-1.1L9.2,12L5.5,8.3L2.3,6.8C1.7,6.5,1.1,5.6,0.4,4.4
		C-0.1,3.7,0,2.8,0.6,2.2L2,0.8c0.6-0.6,1.5-0.7,2.2-0.3c1.2,0.8,2.1,1.3,2.4,1.9l1.5,3.2l3.7,3.7l1-1c0.7-0.7,1.8-0.7,2.5,0
		c0.5,0.5,0.6,1.2,0.4,1.8l-0.2,0.5c0,0.1,0,0.1,0,0.2c0.6,1.2,2.2,2,3.5,2.8c0.9,0.5,1.6,0.9,2.1,1.4l4.1,4.1
		c1.2,1.3-1,3.8-1.8,4.5C22.9,24.2,21.2,25.8,19.9,25.8z M10.6,14.2c0.3,0,0.5,0.1,0.8,0.2c1.5,0.8,2.5,2.6,3.4,4.1
		c0.4,0.7,0.8,1.5,1.2,1.8l4,4c0.3,0,1.3-0.5,2.4-1.7c1.2-1.2,1.7-2.2,1.7-2.5l-4-4c-0.3-0.3-1.1-0.7-1.8-1.2
		c-1.4-0.8-3.2-1.8-4.1-3.4c-0.2-0.4-0.3-0.9-0.1-1.4l0.2-0.5c0-0.1,0-0.2-0.1-0.3c-0.1-0.1-0.2-0.1-0.4,0L9,14.2l0.2,0.2
		c0.1,0.1,0.2,0.1,0.3,0.1l0.5-0.2C10.2,14.2,10.4,14.2,10.6,14.2z M3.2,1.8c-0.1,0-0.1,0-0.2,0.1L1.7,3.3c-0.1,0.1-0.1,0.2,0,0.3
		c0.3,0.5,1,1.6,1.3,1.8l3.2,1.5C6.3,7,6.4,7.1,6.6,7.3l3.7,3.7l0.5-0.5L7.1,6.8C6.9,6.6,6.8,6.5,6.7,6.3L5.2,3.1
		C5,2.8,3.9,2.2,3.5,1.9C3.4,1.8,3.3,1.8,3.2,1.8z M6.8,25.8c0,0-0.1,0-0.1,0c-1,0-2.1-0.6-2.9-1.5c-0.9-0.8-1.4-1.9-1.5-2.9
		c0-0.9,0.3-1.7,0.9-2.3L6.4,16c0.3-0.3,0.8-0.3,1.1,0c0.3,0.3,0.3,0.8,0,1.1l-3.1,3.1c-0.4,0.3-0.5,0.8-0.5,1.2
		c0,0.6,0.4,1.3,1,1.9c0,0,0,0,0.1,0.1c0.5,0.6,1.2,1,1.9,1c0.5,0,0.9-0.2,1.2-0.5l3.9-3.9c0.3-0.3,0.8-0.3,1.1,0s0.3,0.8,0,1.1
		l-3.9,3.9C8.4,25.5,7.7,25.8,6.8,25.8z M20.7,23.2c-0.2,0-0.4-0.1-0.5-0.2l-3.4-3.5c-0.3-0.3-0.3-0.8,0-1.1c0.3-0.3,0.8-0.3,1.1,0
		l3.4,3.5c0.3,0.3,0.3,0.8,0,1.1C21.1,23.2,20.9,23.2,20.7,23.2z M22.4,21.5c-0.2,0-0.4-0.1-0.5-0.2l-3.4-3.5
		c-0.3-0.3-0.3-0.8,0-1.1c0.3-0.3,0.8-0.3,1.1,0l3.4,3.5c0.3,0.3,0.3,0.8,0,1.1C22.8,21.4,22.6,21.5,22.4,21.5z M19.9,13.6
		c-0.4,0-0.7-0.3-0.7-0.6c-0.1-0.4,0.2-0.8,0.6-0.9l3.8-0.6c0.1,0,0.1,0,0.1-0.1l1.5-1.5c0,0,0.1-0.1,0.1-0.1l1-3.1
		c0-0.1,0-0.2-0.1-0.3c-0.1-0.1-0.2-0.1-0.4,0L24.5,8c-0.9,0.9-2.4,0.9-3.3,0l-1-1c-0.9-0.9-0.9-2.4,0-3.3l1.5-1.5
		C21.7,2.1,21.7,2,21.7,2c0,0,0-0.1-0.1-0.2c-0.1-0.1-0.2-0.1-0.3-0.1l-3.1,1c0,0-0.1,0-0.1,0.1l-1.5,1.5c0,0-0.1,0.1-0.1,0.1
		L16.2,7c-0.1,0.4-0.4,0.7-0.9,0.6c-0.4-0.1-0.7-0.4-0.6-0.9l0.4-2.5c0.1-0.4,0.2-0.7,0.5-1l1.5-1.5c0.2-0.2,0.4-0.3,0.7-0.4l3.1-1
		c0.6-0.2,1.3,0,1.8,0.4C23,1.1,23.2,1.5,23.2,2c0,0.5-0.2,0.9-0.5,1.2l-1.5,1.5c-0.3,0.3-0.3,0.8,0,1.1l1,1c0.3,0.3,0.9,0.3,1.2,0
		l1.5-1.5c0.7-0.7,1.8-0.7,2.5,0c0.5,0.5,0.6,1.2,0.4,1.8l-1,3.1c-0.1,0.3-0.2,0.5-0.4,0.7l-1.5,1.5c-0.3,0.3-0.6,0.4-1,0.5
		l-3.8,0.6C20,13.6,20,13.6,19.9,13.6z"/>
</g>
</svg>
