<?xml version="1.0" encoding="utf-8"?>
<!-- Generator: Adobe Illustrator 19.1.0, SVG Export Plug-In . SVG Version: 6.00 Build 0)  -->
<svg version="1.1" baseProfile="basic" id="Layer_2"
	 xmlns="http://www.w3.org/2000/svg" xmlns:xlink="http://www.w3.org/1999/xlink" x="0px" y="0px" viewBox="0 0 31 26"
	 xml:space="preserve">
<g>
	<path d="M28.4,25.6H2.6c-1,0-1.7-0.8-1.7-1.7v-7.7c0-0.4,0.3-0.8,0.8-0.8s0.8,0.3,0.8,0.8v7.7c0,0.1,0.1,0.2,0.2,0.2h25.8
		c0.1,0,0.2-0.1,0.2-0.2v-7.7c0-0.4,0.3-0.8,0.8-0.8s0.8,0.3,0.8,0.8v7.7C30.2,24.8,29.4,25.6,28.4,25.6z M18.3,19.8h-5.6
		c-0.4,0-0.8-0.3-0.8-0.8v-3c0-0.4,0.3-0.8,0.8-0.8s0.8,0.3,0.8,0.8v2.2h4.1v-2.2c0-0.4,0.3-0.8,0.8-0.8s0.8,0.3,0.8,0.8v3
		C19.1,19.5,18.7,19.8,18.3,19.8z M29.2,14.6H1.8c-1,0-1.7-0.8-1.7-1.7V8.1c0-1,0.8-1.7,1.7-1.7h27.4c1,0,1.7,0.8,1.7,1.7v4.7
		C30.9,13.8,30.1,14.6,29.2,14.6z M1.8,7.8c-0.1,0-0.2,0.1-0.2,0.2v4.7c0,0.1,0.1,0.2,0.2,0.2h27.4c0.1,0,0.2-0.1,0.2-0.2V8.1
		c0-0.1-0.1-0.2-0.2-0.2H1.8z M18.9,5.8c-0.4,0-0.8-0.3-0.8-0.8V4.6h-5.4V5c0,0.4-0.3,0.8-0.8,0.8S11.3,5.4,11.3,5V3.9
		c0-0.4,0.3-0.8,0.8-0.8h6.9c0.4,0,0.8,0.3,0.8,0.8V5C19.7,5.4,19.3,5.8,18.9,5.8z M23.5,5.7h-1.9c-0.4,0-0.8-0.3-0.8-0.8V2.5
		c0-0.3-0.3-0.6-0.6-0.6h-9.5c-0.3,0-0.6,0.3-0.6,0.6V5c0,0.4-0.3,0.8-0.8,0.8H7.5C7.1,5.7,6.8,5.4,6.8,5s0.3-0.8,0.8-0.8h1.1V2.5
		c0-1.1,0.9-2.1,2.1-2.1h9.5c1.1,0,2.1,0.9,2.1,2.1v1.7h1.1c0.4,0,0.8,0.3,0.8,0.8S23.9,5.7,23.5,5.7z"/>
</g>
</svg>
