<?xml version="1.0" encoding="utf-8"?>
<!-- Generator: Adobe Illustrator 19.1.0, SVG Export Plug-In . SVG Version: 6.00 Build 0)  -->
<svg version="1.1" baseProfile="basic" id="Layer_2"
	 xmlns="http://www.w3.org/2000/svg" xmlns:xlink="http://www.w3.org/1999/xlink" x="0px" y="0px" viewBox="0 0 21 27"
	 xml:space="preserve">
<g>
	<path d="M9.7,7.7c1.1,0,2-0.9,2-2s-0.9-2-2-2H5.1c-1.1,0-2,0.9-2,2s0.9,2,2,2H9.7z M4.6,5.7c0-0.3,0.2-0.5,0.5-0.5h4.6
		c0.3,0,0.5,0.2,0.5,0.5S10,6.2,9.7,6.2H5.1C4.8,6.2,4.6,6,4.6,5.7z"/>
	<path d="M8,13.2l-2.5-2.5c-0.3-0.3-0.8-0.3-1.1,0s-0.3,0.8,0,1.1l2.5,2.5v4.4l-2.5,2.5c-0.3,0.3-0.3,0.8,0,1.1
		c0.1,0.1,0.3,0.2,0.5,0.2s0.4-0.1,0.5-0.2l2.4-2.4h4.6l2.4,2.4c0.1,0.1,0.3,0.2,0.5,0.2s0.4-0.1,0.5-0.2c0.3-0.3,0.3-0.8,0-1.1
		l-2.5-2.5v-4.4l2.5-2.5c0.3-0.3,0.3-0.8,0-1.1s-0.8-0.3-1.1,0l-2.5,2.5H8z M8.4,14.7h3.6v3.6H8.4V14.7z"/>
	<path d="M20.4,2.4l-1.8-1.8c-0.2-0.2-0.5-0.3-0.8-0.2l-4,1.6l-0.6-0.6c-0.1-0.1-0.3-0.2-0.5-0.2H4c-2,0-3.6,1.6-3.6,3.6V23
		c0,2,1.6,3.6,3.6,3.6h12.3c2,0,3.6-1.6,3.6-3.6V8.4c0-0.2-0.1-0.4-0.2-0.5L19,7.2l1.6-4C20.6,2.9,20.6,2.6,20.4,2.4z M18.3,23
		c0,1.1-0.9,2.1-2.1,2.1H4c-1.1,0-2.1-0.9-2.1-2.1V4.7c0-1.1,0.9-2.1,2.1-2.1h8.3l6.1,6.1V23z M17.9,2l1.1,1.1L17.8,6l-2.9-2.9
		L17.9,2z"/>
</g>
</svg>
