<?xml version="1.0" encoding="utf-8"?>
<!-- Generator: Adobe Illustrator 19.1.0, SVG Export Plug-In . SVG Version: 6.00 Build 0)  -->
<svg version="1.1" baseProfile="basic" id="Layer_2"
	 xmlns="http://www.w3.org/2000/svg" xmlns:xlink="http://www.w3.org/1999/xlink" x="0px" y="0px" viewBox="0 0 22 31"
	 xml:space="preserve">
<g>
	<g>
		<path d="M15.9,7.5h-5.5C10,7.5,9.6,7.3,9.3,7L7.8,5.2l-3.8,0c-0.8,0-1.4-0.7-1.4-1.5V1.9c0-0.8,0.7-1.5,1.4-1.5h9.3
			c0.5,0,0.9,0.2,1.2,0.7l2.7,4.1c0.3,0.4,0.3,1,0.1,1.5S16.5,7.5,15.9,7.5z M7.8,3.7c0.4,0,0.8,0.2,1.1,0.5L10.5,6l5.5,0l-2.7-4
			H3.9L4,3.7L7.8,3.7z"/>
	</g>
	<g>
		<line x1="1.2" y1="1.5" x2="1.2" y2="3.8"/>
		<path d="M1.2,4.5c-0.4,0-0.8-0.3-0.8-0.8V1.5c0-0.4,0.3-0.8,0.8-0.8s0.8,0.3,0.8,0.8v2.3C1.9,4.2,1.6,4.5,1.2,4.5z"/>
	</g>
	<g>
		<path d="M4.8,11.3c-0.2,0-0.4-0.1-0.6-0.3c-0.2-0.3-0.2-0.6,0-0.9c0,0,1.1-1.6,1.5-2.9c0.6-1.9,0.5-2.7,0.5-2.7
			C6.2,4.2,6.4,3.8,6.8,3.7c0.4-0.1,0.8,0.1,0.9,0.5c0,0.2,0.2,1.2-0.5,3.5C7.1,8,7,8.2,6.9,8.4c0.8-0.7,1.5-1.5,1.8-2.6
			c0.1-0.4,0.5-0.6,0.9-0.5c0.4,0.1,0.6,0.5,0.5,0.9c-0.9,3.4-4.9,5-5,5.1C5,11.3,4.9,11.3,4.8,11.3z"/>
	</g>
	<g>
		<path d="M15.9,14.3h-4.9c-1.1,0-2.1-0.9-2.1-2.1v-1.7c0-1.1,0.9-2.1,2.1-2.1h4.9c1.1,0,2.1,0.9,2.1,2.1v1.7
			C17.9,13.4,17,14.3,15.9,14.3z M10.9,10c-0.3,0-0.6,0.3-0.6,0.6v1.7c0,0.3,0.3,0.6,0.6,0.6h4.9c0.3,0,0.6-0.3,0.6-0.6v-1.7
			c0-0.3-0.3-0.6-0.6-0.6H10.9z"/>
	</g>
	<g>
		<path d="M13.5,30.5c-3.2,0-5.5-0.4-6.9-1.2c-1-0.6-1.5-1.8-1.2-2.9l4-13.9l1.4,0.4l-4,13.9c-0.1,0.5,0.1,0.9,0.5,1.2
			c0.8,0.4,2.6,1,6.2,1c3.8,0,5.5-0.6,6.2-1.1c0.3-0.2,0.5-0.7,0.4-1.1l-3.9-13.7l1.4-0.4l3.9,13.7c0.3,1.1-0.1,2.2-1,2.8
			C19.1,30.1,16.8,30.5,13.5,30.5z"/>
	</g>
</g>
</svg>
