<?xml version="1.0" encoding="utf-8"?>
<!-- Generator: Adobe Illustrator 19.1.0, SVG Export Plug-In . SVG Version: 6.00 Build 0)  -->
<svg version="1.1" baseProfile="basic" id="Layer_1"
	 xmlns="http://www.w3.org/2000/svg" xmlns:xlink="http://www.w3.org/1999/xlink" x="0px" y="0px" viewBox="0 0 30 43"
	 xml:space="preserve">
<g>
	<g> <path d="M23.8,14.1H6.3c-0.8,0-1.4-0.6-1.4-1.4V7.9c0-0.9,0.7-1.6,1.6-1.6h2c1.3,0,1.6-0.3,1.7-0.6c0-0.1,0-0.3,0-0.4 c0-2.3,1.8-4.8,4.8-4.8s4.8,2.4,4.8,4.8c0,0.1,0,0.2,0,0.4c0.1,0.3,0.4,0.6,1.7,0.6h2c0.9,0,1.6,0.7,1.6,1.6v4.8 C25.2,13.4,24.6,14.1,23.8,14.1z M6.4,12.6h17.3V7.9c0-0.1-0.1-0.1-0.1-0.1h-2c-0.6,0-2.6,0-3.1-1.7c-0.1-0.3-0.1-0.6-0.1-0.8 c0-1.4-1-3.3-3.3-3.3s-3.3,1.9-3.3,3.3c0,0.2,0,0.5-0.1,0.8c-0.5,1.7-2.5,1.7-3.1,1.7h-2c-0.1,0-0.1,0.1-0.1,0.1V12.6z" /> </g>
        <g> <path d="M15,7.2c-1,0-1.9-0.8-1.9-1.9c0-1,0.8-1.9,1.9-1.9s1.9,0.8,1.9,1.9C16.9,6.3,16.1,7.2,15,7.2z M15,4.9 c-0.2,0-0.4,0.2-0.4,0.4c0,0.2,0.2,0.4,0.4,0.4s0.4-0.2,0.4-0.4C15.4,5.1,15.3,4.9,15,4.9z" /> </g>
        <g> <path class="st0" d="M24.4,8.8" /> </g>
        <g> <path d="M26.5,42.5H3.5c-1.9,0-3.5-1.6-3.5-3.5V11.5C0.1,9.6,1.6,8,3.5,8h2.1v1.5H3.5c-1.1,0-2,0.9-2,2v27.6c0,1.1,0.9,2,2,2h22.9 c1.1,0,2-0.9,2-2V11.5c0-1.1-0.9-2-2-2h-2V8h2c1.9,0,3.5,1.6,3.5,3.5v27.6C29.9,41,28.4,42.5,26.5,42.5z" /> </g>
        <g> <path d="M16.4,39H4.9c-0.9,0-1.7-0.7-1.7-1.7V12.2c0-0.9,0.7-1.7,1.7-1.7h0.8c0.4,0,0.8,0.3,0.8,0.8S6.1,12,5.6,12H4.9 c-0.1,0-0.2,0.1-0.2,0.2v25.2c0,0.1,0.1,0.2,0.2,0.2h11.5c0.5,0,1-0.2,1.4-0.6l1.9-1.9c0.3-0.3,0.8-0.3,1.1,0s0.3,0.8,0,1.1 L18.8,38C18.2,38.6,17.3,39,16.4,39z" /> </g>
        <g> <path class="st0" d="M5.6,11.3" /> </g>
        <g> <path d="M25.2,39h-2.6c-0.4,0-0.8-0.3-0.8-0.8s0.3-0.8,0.8-0.8h2.6c0.1,0,0.2-0.1,0.2-0.2V12.2c0-0.1-0.1-0.2-0.2-0.2h-0.7 c-0.4,0-0.8-0.3-0.8-0.8s0.3-0.8,0.8-0.8h0.7c0.9,0,1.7,0.7,1.7,1.7v25.2C26.8,38.3,26.1,39,25.2,39z" /> </g>
        <g> <g> <path d="M8.4,33.2c-1,0-1.8-0.8-1.8-1.8s0.8-1.8,1.8-1.8s1.8,0.8,1.8,1.8S9.3,33.2,8.4,33.2z M8.4,31.1c-0.1,0-0.3,0.1-0.3,0.3 c0,0.3,0.5,0.3,0.5,0C8.6,31.2,8.5,31.1,8.4,31.1z" /> </g> <g> <path d="M22,32.1h-10c-0.4,0-0.8-0.3-0.8-0.8s0.3-0.8,0.8-0.8h10c0.4,0,0.8,0.3,0.8,0.8S22.4,32.1,22,32.1z" /> </g> </g>
        <g> <g> <path d="M8.4,26.9c-1,0-1.8-0.8-1.8-1.8c0-1,0.8-1.8,1.8-1.8s1.8,0.8,1.8,1.8C10.1,26.1,9.3,26.9,8.4,26.9z M8.4,24.8 c-0.1,0-0.3,0.1-0.3,0.3c0,0.3,0.5,0.3,0.5,0C8.6,25,8.5,24.8,8.4,24.8z" /> </g> <g> <path d="M22,25.9h-10c-0.4,0-0.8-0.3-0.8-0.8s0.3-0.8,0.8-0.8h10c0.4,0,0.8,0.3,0.8,0.8S22.4,25.9,22,25.9z" /> </g> </g>
        <g> <g> <path d="M8.4,20.6c-1,0-1.8-0.8-1.8-1.8S7.4,17,8.4,17s1.8,0.8,1.8,1.8S9.3,20.6,8.4,20.6z M8.4,18.5c-0.1,0-0.3,0.1-0.3,0.3 c0,0.3,0.5,0.3,0.5,0C8.6,18.7,8.5,18.5,8.4,18.5z" /> </g> <g> <path d="M22,19.6h-10c-0.4,0-0.8-0.3-0.8-0.8s0.3-0.8,0.8-0.8h10c0.4,0,0.8,0.3,0.8,0.8S22.4,19.6,22,19.6z" /> </g> </g>
</g>
</svg>
