<?xml version="1.0" encoding="utf-8"?>
<!-- Generator: Adobe Illustrator 19.1.0, SVG Export Plug-In . SVG Version: 6.00 Build 0)  -->
<svg version="1.1" baseProfile="basic" id="Layer_2"
	 xmlns="http://www.w3.org/2000/svg" xmlns:xlink="http://www.w3.org/1999/xlink" x="0px" y="0px" viewBox="0 0 31 31"
	 xml:space="preserve">
<g>
	<g>
		<path d="M15.5,17c-2.3-0.1-4.5-2.1-5.5-4.7c0,0,0,0,0,0c-0.7,0-1.4-0.5-1.5-1.3L8.2,8.6C8.1,8,8.4,7.3,9,7.1
			c0-0.2-0.1-0.5-0.1-0.7V5.5c0-2.5,2.1-4.6,4.6-4.6c0.7-1,2.6-0.8,4.4-0.1c0.4,0.2,0.8,0.3,1.1,0.5c1.7,0.7,2.8,2.4,2.8,4.3v0.9
			c0,0.2,0,0.5-0.1,0.7c0.6,0.3,0.9,0.9,0.8,1.6L22.2,11c-0.1,0.4-0.3,0.7-0.6,1c-0.2,0.2-0.5,0.3-0.7,0.3
			C19.9,15,17.7,16.9,15.5,17z M10.6,10.8c0.3,0,0.6,0.2,0.7,0.5c0.7,2.3,2.5,4.2,4.3,4.3c1.7-0.1,3.5-1.9,4.2-4.2
			c0.1-0.3,0.4-0.6,0.8-0.5l0.2,0c0,0,0.1,0,0.1-0.1l0.4-2.4c0,0,0-0.1-0.1-0.1l-0.3,0c-0.2,0-0.4-0.2-0.5-0.3
			c-0.1-0.2-0.1-0.4-0.1-0.6c0.1-0.3,0.2-0.6,0.2-1V5.5c0-1.3-0.8-2.5-2-3c-0.4-0.2-0.7-0.3-1-0.5c-1.4-0.5-2.4-0.5-2.7-0.4
			c0,0.2-0.1,0.3-0.2,0.4c-0.1,0.1-0.3,0.2-0.5,0.2h-0.5c-1.8,0-3.2,1.4-3.2,3.2v0.9c0,0.3,0.1,0.7,0.2,1c0.1,0.2,0,0.4-0.1,0.6
			c-0.1,0.2-0.3,0.3-0.5,0.3l-0.3,0c0,0-0.1,0-0.1,0.1l0.4,2.4c0,0,0,0.1,0.1,0.1l0.4-0.1C10.5,10.8,10.5,10.8,10.6,10.8z"/>
	</g>
	<g>
		<path d="M24.7,28.5h-4.2c-0.4,0-0.7-0.3-0.7-0.7s0.3-0.7,0.7-0.7h4.2c0.4,0,0.7,0.3,0.7,0.7S25.1,28.5,24.7,28.5z"/>
	</g>
	<g>
		<path d="M17.8,30.8C17.8,30.8,17.8,30.8,17.8,30.8c-0.4,0-0.6-0.3-0.7-0.6l-1.5-7.8c0-0.1,0-0.3,0-0.4l0.9-2.3h-2.1l0.9,2.3
			c0,0.1,0.1,0.3,0,0.4l-1.5,7.8c-0.1,0.3-0.4,0.6-0.7,0.6c0,0,0,0,0,0c-0.3,0-0.6-0.2-0.7-0.6l-2.3-11c-1.9,0.9-5.2,1.6-6.3,1.8
			C3,21.3,1.6,21.8,1.6,23v0.7L2.3,30c0,0.4-0.2,0.8-0.6,0.8c-0.4,0-0.8-0.2-0.8-0.6l-0.7-6.4l0-0.8c0-1.8,1.7-3,3.4-3.3
			c2.6-0.5,5.6-1.4,6.6-2c0.1-0.1,0.2-0.1,0.3-0.1c0.4-0.1,0.8,0.2,0.9,0.5l1.8,8.4l0.8-4.2l-1.2-3.1c-0.1-0.2-0.1-0.5,0.1-0.7
			c0.1-0.2,0.4-0.3,0.6-0.3h4.2c0.2,0,0.5,0.1,0.6,0.3c0.1,0.2,0.2,0.4,0.1,0.7L17,22.3l0.8,4.1l1.8-8.4c0.1-0.4,0.4-0.6,0.8-0.6
			c0.1,0,0.3,0.1,0.4,0.1c1,0.7,4,1.5,6.6,2c1.7,0.3,3.4,1.5,3.4,3.3v0.7l-0.7,6.5c0,0.4-0.4,0.7-0.8,0.6c-0.4,0-0.7-0.4-0.6-0.8
			l0.7-6.4l0-0.6c0-1.2-1.4-1.8-2.2-1.9c-1.1-0.2-4.4-0.9-6.3-1.8l-2.4,11C18.4,30.6,18.1,30.8,17.8,30.8z"/>
	</g>
</g>
</svg>
