<?xml version="1.0" encoding="utf-8"?>
<!-- Generator: Adobe Illustrator 19.1.0, SVG Export Plug-In . SVG Version: 6.00 Build 0)  -->
<svg version="1.1" baseProfile="basic" id="Layer_1"
	 xmlns="http://www.w3.org/2000/svg" xmlns:xlink="http://www.w3.org/1999/xlink" x="0px" y="0px" viewBox="0 0 74 36"
	 xml:space="preserve">
<g>
	<g>
		<path d="M37.2,31.9h-5.5c-1.6,0-3-1.3-3-3v-2c0-1.6,1.3-3,3-3h5.5c1.6,0,3,1.3,3,3v2C40.2,30.6,38.8,31.9,37.2,31.9z M31.7,25.5
			c-0.8,0-1.5,0.7-1.5,1.5v2c0,0.8,0.7,1.5,1.5,1.5h5.5c0.8,0,1.5-0.7,1.5-1.5v-2c0-0.8-0.7-1.5-1.5-1.5H31.7z"/>
	</g>
	<path d="M71.8,1H30c-1.1,0-2.1,0.9-2.1,2.1v17.1c0,1.1,0.9,2.1,2.1,2.1h41.8c1.1,0,2.1-0.9,2.1-2.1V3C73.9,1.9,72.9,1,71.8,1z
		 M29.4,20.1V18h10v2.7H30C29.7,20.7,29.4,20.4,29.4,20.1z M50.5,18v2.7h-9.6V18H50.5z M61.5,20.7H52V18h9.5V20.7z M72.4,20.1
		c0,0.3-0.3,0.6-0.6,0.6H63V18h9.4V20.1z M72.4,16.5H29.4V3c0-0.3,0.3-0.6,0.6-0.6h41.8c0.3,0,0.6,0.3,0.6,0.6V16.5z"/>
	<path d="M73.1,29.4H71v-5c0-0.4-0.3-0.8-0.8-0.8s-0.8,0.3-0.8,0.8v5.7c0,0.4,0.3,0.8,0.8,0.8h2.9c0.4,0,0.8-0.3,0.8-0.8
		S73.5,29.4,73.1,29.4z"/>
	<g>
		<path d="M47.7,24c-3.3,0-6,2.7-6,6c0,3.3,2.7,6,6,6c3.3,0,6-2.7,6-6C53.8,26.7,51.1,24,47.7,24z M47.7,34.5c-2.5,0-4.5-2-4.5-4.5
			c0-2.5,2-4.5,4.5-4.5c2.5,0,4.5,2,4.5,4.5C52.3,32.5,50.2,34.5,47.7,34.5z"/>
		<path d="M47.7,27c-1.6,0-3,1.3-3,3s1.3,3,3,3c1.6,0,3-1.3,3-3S49.4,27,47.7,27z M47.7,31.4c-0.8,0-1.5-0.7-1.5-1.5
			s0.7-1.5,1.5-1.5c0.8,0,1.5,0.7,1.5,1.5S48.6,31.4,47.7,31.4z"/>
	</g>
	<g>
		<path d="M61.6,24c-3.3,0-6,2.7-6,6c0,3.3,2.7,6,6,6s6-2.7,6-6C67.6,26.7,64.9,24,61.6,24z M61.6,34.5c-2.5,0-4.5-2-4.5-4.5
			c0-2.5,2-4.5,4.5-4.5s4.5,2,4.5,4.5C66.1,32.5,64.1,34.5,61.6,34.5z"/>
		<path d="M61.6,27c-1.6,0-3,1.3-3,3s1.3,3,3,3s3-1.3,3-3S63.2,27,61.6,27z M61.6,31.4c-0.8,0-1.5-0.7-1.5-1.5s0.7-1.5,1.5-1.5
			s1.5,0.7,1.5,1.5S62.4,31.4,61.6,31.4z"/>
	</g>
	<g>
		<path d="M11.4,27c-1.6,0-3,1.3-3,3s1.3,3,3,3s3-1.3,3-3S13,27,11.4,27z M11.4,31.4c-0.8,0-1.5-0.7-1.5-1.5s0.7-1.5,1.5-1.5
			s1.5,0.7,1.5,1.5S12.2,31.4,11.4,31.4z"/>
		<path d="M25.1,7.3H13.7c-0.3,0-0.6,0.2-0.7,0.5l-3.6,8.9L2.9,19c-0.3,0.1-0.5,0.4-0.5,0.7v6.9l-1.8,0.8c-0.3,0.1-0.4,0.4-0.4,0.7
			v3.2c0,0.4,0.3,0.8,0.8,0.8h4.8c0.8,2.3,3.1,4,5.7,4s4.8-1.7,5.7-4h8.1c0.4,0,0.8-0.3,0.8-0.8V8C25.9,7.6,25.5,7.3,25.1,7.3z
			 M14.2,8.8h6.3v7.8h-9.4L14.2,8.8z M20.5,18v7.4h-5.1c-1.1-0.9-2.4-1.5-4-1.5c-0.2,0-0.4,0-0.6,0v-6H20.5z M1.6,30.5v-1.9l1.8-0.8
			c0.3-0.1,0.4-0.4,0.4-0.7v-6.9l5.4-1.9v6C7,25.2,5.4,27.4,5.4,30c0,0.2,0,0.4,0,0.5H1.6z M11.4,34.5c-2.5,0-4.5-2-4.5-4.5
			c0-2.5,2-4.5,4.5-4.5s4.5,2,4.5,4.5C15.9,32.5,13.9,34.5,11.4,34.5z M24.4,30.5h-7c0-0.2,0-0.4,0-0.5c0-1.1-0.3-2.1-0.8-3h7.8
			V30.5z M24.4,25.5H22V18h2.4V25.5z M24.4,16.5H22V8.8h2.4V16.5z"/>
		<path d="M16.8,20.5h2.1c0.4,0,0.8-0.3,0.8-0.8S19.3,19,18.9,19h-2.1c-0.4,0-0.8,0.3-0.8,0.8S16.4,20.5,16.8,20.5z"/>
	</g>
</g>
</svg>
