<?xml version="1.0" encoding="utf-8"?>
<!-- Generator: Adobe Illustrator 19.1.0, SVG Export Plug-In . SVG Version: 6.00 Build 0)  -->
<svg version="1.1" baseProfile="basic" id="Layer_1"
	 xmlns="http://www.w3.org/2000/svg" xmlns:xlink="http://www.w3.org/1999/xlink" x="0px" y="0px" viewBox="0 0 34 36"
	 xml:space="preserve">
<g>
	<g> <path d="M19.9,35.6H2.4c-1.2,0-2.2-1-2.2-2.2V2.6c0-1.2,1-2.2,2.2-2.2h17.5c1.2,0,2.2,1,2.2,2.2c0,0.4-0.3,0.8-0.8,0.8 s-0.8-0.3-0.8-0.8c0-0.4-0.3-0.7-0.7-0.7H2.4C2,1.9,1.7,2.3,1.7,2.6v30.7c0,0.4,0.3,0.7,0.7,0.7h17.5c0.4,0,0.7-0.3,0.7-0.7V26 c0-0.4,0.3-0.8,0.8-0.8s0.8,0.3,0.8,0.8v7.3C22.1,34.6,21.1,35.6,19.9,35.6z" /> </g>
        <g> <path d="M21.4,31.2H0.9c-0.4,0-0.8-0.3-0.8-0.8s0.3-0.8,0.8-0.8h20.5c0.4,0,0.8,0.3,0.8,0.8S21.8,31.2,21.4,31.2z" /> </g>
        <g> <path d="M14.1,28.3c-0.1,0-0.2,0-0.3-0.1c-0.3-0.1-0.5-0.4-0.5-0.7v-5.1h-0.7c-0.4,0-0.8-0.3-0.8-0.8V8.5c0-1.2,1-2.2,2.2-2.2 h17.5c1.2,0,2.2,1,2.2,2.2v11.7c0,1.2-1,2.2-2.2,2.2H20.2L14.6,28C14.5,28.2,14.3,28.3,14.1,28.3z M13.4,20.9h0.7 c0.4,0,0.8,0.3,0.8,0.8v4l4.6-4.6c0.1-0.1,0.3-0.2,0.5-0.2h11.7c0.4,0,0.7-0.3,0.7-0.7V8.5c0-0.4-0.3-0.7-0.7-0.7H14.1 c-0.4,0-0.7,0.3-0.7,0.7V20.9z" /> </g>
</g>
</svg>
